<svg width="647" height="651" fill="none" xmlns="http://www.w3.org/2000/svg"><g filter="url(#a)"><rect x="78" y="9" width="540" height="543.694" rx="22.161" fill="#F2F2F2" fill-opacity=".93" shape-rendering="crispEdges"/></g><g filter="url(#b)"><rect x="132.177" y="447.057" width="437.432" height="59.032" rx="7.387" transform="rotate(-.562 132.177 447.057)" fill="url(#c)" fill-opacity=".93" shape-rendering="crispEdges"/></g><path d="M157.161 470.316v-1.61h7.21v1.61h-2.734v8.732h-1.758v-8.732h-2.718zm7.879 6.619c0 .227.054.424.162.591a.993.993 0 0 0 .443.355c.197.078.419.118.665.118.316 0 .601-.064.857-.192.266-.128.478-.315.636-.562.167-.256.251-.551.251-.886l.236.886c0 .434-.128.798-.384 1.094a2.326 2.326 0 0 1-.946.65 3.303 3.303 0 0 1-1.152.207 2.79 2.79 0 0 1-1.182-.252 2.058 2.058 0 0 1-.872-.738c-.216-.325-.325-.719-.325-1.182 0-.66.232-1.182.695-1.566.463-.394 1.118-.591 1.965-.591.453 0 .842.049 1.167.147.335.099.611.217.827.355.217.128.37.246.458.355v.812a3.212 3.212 0 0 0-.975-.473 3.98 3.98 0 0 0-1.093-.147c-.335 0-.606.044-.813.133a1.016 1.016 0 0 0-.473.339.969.969 0 0 0-.147.547zm-.503-2.91-.65-1.123c.306-.187.7-.37 1.182-.547.493-.177 1.054-.266 1.685-.266.561 0 1.053.084 1.477.251.433.168.773.409 1.019.724.247.306.37.685.37 1.138v4.846h-1.566v-4.536c0-.217-.04-.394-.118-.532a.898.898 0 0 0-.296-.34 1.31 1.31 0 0 0-.458-.192 2.675 2.675 0 0 0-.576-.059c-.315 0-.616.04-.901.118a3.268 3.268 0 0 0-.724.266 3.82 3.82 0 0 0-.444.252zm7.253 2.792c.217.236.434.443.65.62.227.168.453.296.68.385.226.078.453.118.68.118.285 0 .507-.064.664-.192a.632.632 0 0 0 .252-.532.706.706 0 0 0-.193-.502 1.464 1.464 0 0 0-.531-.37 8.384 8.384 0 0 0-.798-.325 9.143 9.143 0 0 1-.916-.414 2.337 2.337 0 0 1-.739-.65c-.187-.266-.281-.6-.281-1.004 0-.414.104-.759.311-1.034.216-.276.502-.478.857-.606a3.264 3.264 0 0 1 1.167-.207c.374 0 .724.054 1.049.162.335.109.635.252.901.429s.492.379.679.606l-.886.945a2.745 2.745 0 0 0-.813-.65 2.057 2.057 0 0 0-.975-.251.988.988 0 0 0-.561.148.482.482 0 0 0-.222.428c0 .158.064.301.192.429.138.118.316.226.532.325.227.098.478.202.754.31.374.148.719.31 1.034.487.315.178.566.394.753.651.197.256.296.591.296 1.004 0 .64-.222 1.158-.665 1.551-.433.385-1.024.577-1.773.577a3.86 3.86 0 0 1-1.285-.207 4.067 4.067 0 0 1-1.02-.562 4.646 4.646 0 0 1-.724-.738l.931-.931zm5.893-9.293h1.566v11.524h-1.566v-11.524zm4.063 4.728h1.95l-2.926 2.807 3.221 3.989h-1.935l-3.251-3.989 2.941-2.807zm9.114 4.136.325-1.477h4.802l.34 1.477h-5.467zm2.704-4.757-1.625 3.797-.03.384-1.433 3.236h-1.965l5.053-10.918 5.053 10.918h-1.965l-1.404-3.147-.044-.429-1.64-3.841zm6.433 5.186a6.3 6.3 0 0 0 .65.62c.227.168.453.296.68.385.226.078.453.118.679.118.286 0 .508-.064.665-.192a.631.631 0 0 0 .251-.532.71.71 0 0 0-.192-.502 1.46 1.46 0 0 0-.532-.37 8.25 8.25 0 0 0-.797-.325 9.143 9.143 0 0 1-.916-.414 2.337 2.337 0 0 1-.739-.65c-.187-.266-.281-.6-.281-1.004 0-.414.104-.759.31-1.034.217-.276.503-.478.857-.606a3.272 3.272 0 0 1 1.167-.207c.375 0 .724.054 1.049.162.335.109.636.252.902.429s.492.379.679.606l-.886.945a2.771 2.771 0 0 0-.813-.65 2.057 2.057 0 0 0-.975-.251.986.986 0 0 0-.561.148.482.482 0 0 0-.222.428c0 .158.064.301.192.429.138.118.315.226.532.325.227.098.478.202.754.31.374.148.719.31 1.034.487.315.178.566.394.753.651.197.256.296.591.296 1.004 0 .64-.222 1.158-.665 1.551-.434.385-1.025.577-1.773.577a3.86 3.86 0 0 1-1.285-.207 4.05 4.05 0 0 1-1.02-.562 4.604 4.604 0 0 1-.724-.738l.931-.931zm6.262 0c.216.236.433.443.65.62.226.168.453.296.679.385.227.078.453.118.68.118.286 0 .507-.064.665-.192a.634.634 0 0 0 .251-.532.71.71 0 0 0-.192-.502 1.46 1.46 0 0 0-.532-.37 8.173 8.173 0 0 0-.798-.325 9.351 9.351 0 0 1-.916-.414 2.344 2.344 0 0 1-.738-.65c-.188-.266-.281-.6-.281-1.004 0-.414.103-.759.31-1.034.217-.276.502-.478.857-.606a3.268 3.268 0 0 1 1.167-.207c.374 0 .724.054 1.049.162.335.109.635.252.901.429s.493.379.68.606l-.886.945a2.771 2.771 0 0 0-.813-.65 2.057 2.057 0 0 0-.975-.251.99.99 0 0 0-.562.148.483.483 0 0 0-.221.428c0 .158.064.301.192.429.138.118.315.226.532.325.226.098.477.202.753.31.375.148.719.31 1.034.487.316.178.567.394.754.651.197.256.295.591.295 1.004 0 .64-.221 1.158-.664 1.551-.434.385-1.025.577-1.773.577-.463 0-.892-.069-1.286-.207a4.043 4.043 0 0 1-1.019-.562 4.604 4.604 0 0 1-.724-.738l.931-.931zm5.892-7.269c0-.276.099-.507.296-.694.206-.188.443-.281.709-.281.285 0 .522.093.709.281a.918.918 0 0 1 .295.694.949.949 0 0 1-.295.694.959.959 0 0 1-.709.281c-.266 0-.503-.093-.709-.281a.95.95 0 0 1-.296-.694zm.222 2.704h1.566v6.796h-1.566v-6.796zm3.378 7.254h1.58c.01.305.094.581.252.827.167.246.394.439.679.576.286.138.616.207.99.207.335 0 .655-.079.96-.236.306-.158.552-.399.739-.724.197-.325.296-.744.296-1.256v-6.648h1.566v6.648c0 .818-.168 1.492-.503 2.024a3.024 3.024 0 0 1-1.285 1.182 3.811 3.811 0 0 1-1.729.399c-.738 0-1.369-.128-1.891-.384a2.803 2.803 0 0 1-1.211-1.049c-.276-.453-.424-.975-.443-1.566zm-.133-3.886c0-.758.152-1.393.458-1.906a3.132 3.132 0 0 1 1.211-1.196 3.405 3.405 0 0 1 1.64-.414c.571 0 1.069.143 1.492.428.434.276.773.675 1.02 1.197.256.522.384 1.153.384 1.891 0 .729-.128 1.355-.384 1.877-.247.522-.586.925-1.02 1.211-.423.276-.921.414-1.492.414a3.405 3.405 0 0 1-1.64-.414 3.141 3.141 0 0 1-1.211-1.197c-.306-.522-.458-1.152-.458-1.891zm1.654 0c0 .453.094.837.281 1.153.187.315.433.556.739.724.315.157.655.236 1.019.236a1.9 1.9 0 0 0 .901-.236c.306-.158.552-.394.739-.71.197-.325.296-.714.296-1.167 0-.354-.06-.66-.178-.916a1.878 1.878 0 0 0-.443-.665 1.764 1.764 0 0 0-.635-.413 1.848 1.848 0 0 0-.68-.133c-.364 0-.704.083-1.019.251a1.816 1.816 0 0 0-.739.709c-.187.315-.281.704-.281 1.167zm11.893-.709c0-.502-.104-.881-.311-1.138-.206-.256-.527-.384-.96-.384-.295 0-.556.064-.783.192a1.264 1.264 0 0 0-.532.532 1.598 1.598 0 0 0-.192.798v4.137h-1.596v-6.796h1.596v1.049c.217-.404.493-.705.827-.902.345-.197.754-.295 1.227-.295.768 0 1.354.236 1.758.709.404.463.606 1.103.606 1.921v4.314h-1.64v-4.137zm6.632 4.285c-.689 0-1.3-.148-1.832-.444a3.053 3.053 0 0 1-1.211-1.241c-.286-.532-.429-1.152-.429-1.861 0-.719.143-1.345.429-1.877a3.04 3.04 0 0 1 1.241-1.226c.532-.295 1.157-.443 1.876-.443.719 0 1.33.138 1.832.414.502.275.886.674 1.152 1.196.276.513.414 1.133.414 1.862 0 .079-.005.162-.015.251a.946.946 0 0 1-.014.192h-5.969v-1.093h4.609l-.487.679c.029-.059.059-.137.088-.236a.807.807 0 0 0 .06-.266c0-.364-.074-.679-.222-.945a1.5 1.5 0 0 0-.591-.621 1.66 1.66 0 0 0-.872-.222c-.404 0-.748.089-1.034.266a1.673 1.673 0 0 0-.65.769c-.148.335-.227.748-.236 1.241 0 .492.073.911.221 1.255.148.335.365.591.65.769.296.177.65.266 1.064.266.433 0 .813-.089 1.138-.266a2.14 2.14 0 0 0 .812-.813l1.374.562c-.354.61-.812 1.068-1.374 1.374-.561.305-1.236.458-2.024.458zm10.107-11.672h1.61v11.524h-1.61v-11.524zm-5.629 8.126c0-.749.153-1.384.458-1.906a3.11 3.11 0 0 1 1.212-1.212 3.317 3.317 0 0 1 1.639-.428c.572 0 1.069.143 1.493.428.433.286.773.695 1.019 1.227.256.522.384 1.152.384 1.891 0 .729-.128 1.359-.384 1.891-.246.532-.586.941-1.019 1.226-.424.286-.921.429-1.493.429a3.402 3.402 0 0 1-1.639-.414 3.216 3.216 0 0 1-1.212-1.226c-.305-.532-.458-1.168-.458-1.906zm1.655 0c0 .453.093.842.28 1.167.188.325.434.571.739.739.315.167.655.251 1.02.251.305 0 .605-.084.901-.251.305-.168.551-.409.739-.724.197-.325.295-.719.295-1.182 0-.463-.098-.852-.295-1.167a1.908 1.908 0 0 0-.739-.739 1.805 1.805 0 0 0-.901-.251c-.365 0-.705.083-1.02.251a1.908 1.908 0 0 0-.739.739c-.187.325-.28.714-.28 1.167zm11.09-5.334v-1.61h7.21v1.61h-2.733v8.732h-1.758v-8.732h-2.719zm6.358 5.334c0-.7.157-1.315.472-1.847a3.396 3.396 0 0 1 1.315-1.241c.552-.305 1.177-.458 1.877-.458.699 0 1.32.153 1.861.458.552.295.99.709 1.315 1.241.325.532.488 1.147.488 1.847 0 .689-.163 1.305-.488 1.847a3.5 3.5 0 0 1-1.315 1.255c-.541.296-1.162.444-1.861.444-.7 0-1.325-.148-1.877-.444a3.514 3.514 0 0 1-1.315-1.255c-.315-.542-.472-1.158-.472-1.847zm1.64 0c0 .423.088.798.266 1.123.177.315.418.566.724.753.305.177.65.266 1.034.266.374 0 .714-.089 1.019-.266.315-.187.562-.438.739-.753.177-.325.266-.7.266-1.123a2.31 2.31 0 0 0-.266-1.123 1.882 1.882 0 0 0-.739-.754 1.994 1.994 0 0 0-1.019-.266c-.384 0-.729.089-1.034.266a1.905 1.905 0 0 0-.724.754 2.299 2.299 0 0 0-.266 1.123zm13.685-2.896-.709 6.294h-1.803l1.418-10.859 4.241 7.018 4.255-7.018 1.418 10.859h-1.802l-.724-6.294-3.147 5.334-3.147-5.334zm13.338 6.442c-.69 0-1.3-.148-1.832-.444a3.062 3.062 0 0 1-1.212-1.241c-.285-.532-.428-1.152-.428-1.861 0-.719.143-1.345.428-1.877.296-.531.71-.94 1.242-1.226.531-.295 1.157-.443 1.876-.443.719 0 1.33.138 1.832.414.502.275.886.674 1.152 1.196.276.513.414 1.133.414 1.862 0 .079-.005.162-.015.251a.862.862 0 0 1-.015.192h-5.968v-1.093h4.609l-.487.679c.029-.059.059-.137.088-.236a.801.801 0 0 0 .059-.266c0-.364-.074-.679-.221-.945a1.5 1.5 0 0 0-.591-.621 1.66 1.66 0 0 0-.872-.222c-.404 0-.749.089-1.034.266a1.673 1.673 0 0 0-.65.769c-.148.335-.227.748-.237 1.241 0 .492.074.911.222 1.255.148.335.364.591.65.769.296.177.65.266 1.064.266a2.34 2.34 0 0 0 1.137-.266c.325-.178.596-.448.813-.813l1.374.562c-.355.61-.813 1.068-1.374 1.374-.561.305-1.236.458-2.024.458z" fill="#303030"/><path d="m530.805 468.789-4.176 4.163-2.502-2.493 4.176-4.162c-2.329-1.133-5.596-1.137-7.529.791-1.819 1.812-2.047 4.666-1.161 6.911l-9.283 9.208a.619.619 0 0 0 0 .876l2.692 2.683a.604.604 0 0 0 .437.182.618.618 0 0 0 .438-.182l9.27-9.295c2.223.835 5.048.599 6.837-1.184 1.931-1.929 1.927-5.168.801-7.498z" fill="#CFCFCF"/><path d="m524.397 478.947-3.672 3.709 3.861 4.116a.56.56 0 0 0 .616.134.534.534 0 0 0 .184-.124l3.068-3.113a.579.579 0 0 0 .162-.407.56.56 0 0 0-.175-.401l-4.044-3.914zm-12.599-4.976c0-.251-.204-.48-.381-.658l-.012-.012-.079-.076a.052.052 0 0 1-.013-.041.817.817 0 0 1 .486-.103c.065.006.302.046.634.253.173.107 1.668 1.557 2.246 2.096a.572.572 0 0 0 .007.79l.38.405 3.357-3.356-.422-.404a.552.552 0 0 0-.783-.003c-1.176-1.271-1.482-1.826-1.585-2.186-.226-.797.212-1.442.716-1.854.299-.238.914-.417 1.483-.464.198-.012.397-.001.593.031.178.026.322.059.378.072.193.052.381.121.562.206l.614-.979a4.615 4.615 0 0 0-.685-.911 6.001 6.001 0 0 0-.266-.263c-.397-.368-1.431-.989-2.79-.989-.785 0-1.563.154-2.289.455-1.914.79-3.163 1.867-3.738 2.438l-.003.004c-.386.39-.743.809-1.068 1.252-.274.388-.244.816-.224 1.099 0 .016 0 .034.004.051a.936.936 0 0 0-1.211.095l-1.892 1.9a.35.35 0 0 0 0 .494l3.221 3.233a.342.342 0 0 0 .485 0l1.895-1.905c.176-.177.38-.419.38-.67z" fill="#CFCFCF"/><path d="M462.87 464.787c-6.924 0-12.558 5.633-12.558 12.558 0 6.924 5.634 12.558 12.558 12.558 6.925 0 12.558-5.634 12.558-12.558 0-6.925-5.633-12.558-12.558-12.558zm6.536 8.349-8.115 9.66a.96.96 0 0 1-.724.345h-.017a.962.962 0 0 1-.717-.32l-3.478-3.864a.97.97 0 0 1-.171-1.074.954.954 0 0 1 .557-.501.957.957 0 0 1 .748.048.96.96 0 0 1 .302.235l2.734 3.038 7.402-8.81a.967.967 0 0 1 1.479 1.243z" fill="#2FCF3F"/><path d="M420.025 470.591a3.377 3.377 0 0 0-3.377-3.377h-.845v-.821a.861.861 0 0 0-.803-.867.854.854 0 0 0-.817.511.844.844 0 0 0-.068.333v.844h-11.819v-.821a.862.862 0 0 0-.804-.867.868.868 0 0 0-.335.052.845.845 0 0 0-.55.792v.844h-.844a3.377 3.377 0 0 0-3.377 3.377v.633c0 .056.022.11.062.149.039.04.093.062.149.062h23.217a.212.212 0 0 0 .211-.211v-.633zm-23.639 15.196a3.377 3.377 0 0 0 3.377 3.377h16.885a3.38 3.38 0 0 0 3.377-3.377v-12.452a.216.216 0 0 0-.062-.15.213.213 0 0 0-.149-.061h-23.217a.211.211 0 0 0-.211.211v12.452zM353.54 464.787c-6.924 0-12.558 5.633-12.558 12.558 0 6.924 5.634 12.558 12.558 12.558 6.925 0 12.559-5.634 12.559-12.558 0-6.925-5.634-12.558-12.559-12.558zm5.797 13.524h-4.831v4.83h-1.932v-4.83h-4.83v-1.932h4.83v-4.83h1.932v4.83h4.831v1.932z" fill="#CFCFCF"/><g filter="url(#d)"><rect x="406.615" y="251.402" width="172.864" height="172.864" rx="86.432" transform="rotate(-.562 406.615 251.402)" fill="url(#e)" fill-opacity=".93" shape-rendering="crispEdges"/></g><path d="M493.896 257.208a79.041 79.041 0 0 0-46.76 142.77 79.038 79.038 0 0 0 107.283-12.888l-60.523-50.839v-79.043z" fill="url(#f)"/><path d="M464.869 262.731a79.034 79.034 0 0 0-48.777 59.585l77.804 13.935-29.027-73.52z" fill="url(#g)"/><path d="M552.083 374.319c7.751-9.375 12.609-20.849 14.012-33.094 1.404-12.245-.705-24.762-6.082-36.102a69.047 69.047 0 0 0-24.3-27.976c-10.499-6.937-22.642-10.828-35.025-11.223l.248 65.548 51.147 42.847z" fill="#625FFB"/><g filter="url(#h)"><rect x="126.031" y="254.433" width="269.73" height="171.239" rx="18.468" transform="rotate(-.562 126.031 254.433)" fill="url(#i)" fill-opacity=".93" shape-rendering="crispEdges"/></g><path d="M155.239 277.05h1.714v10.859l-7.549-7.461v6.944h-1.714v-10.859l7.549 7.461v-6.944zm5.514 7.682c0 .483.104.857.311 1.123.207.266.522.399.945.399.306 0 .572-.059.798-.177.227-.128.404-.305.532-.532.128-.236.192-.507.192-.813v-4.136h1.596v6.796h-1.596v-1.049a2.331 2.331 0 0 1-.842.901c-.335.197-.739.296-1.212.296-.758 0-1.344-.237-1.758-.71-.404-.472-.605-1.113-.605-1.92v-4.314h1.639v4.136zm16.133-1.654v4.314h-1.596v-4.137c0-.512-.093-.891-.28-1.138-.178-.256-.463-.384-.857-.384a1.4 1.4 0 0 0-.71.178c-.197.118-.354.29-.472.517-.109.226-.163.502-.163.827v4.137h-1.595v-4.137c0-.512-.094-.891-.281-1.138-.177-.256-.463-.384-.857-.384-.276 0-.517.059-.724.178a1.17 1.17 0 0 0-.458.517 1.908 1.908 0 0 0-.163.827v4.137h-1.566v-6.796h1.566v.99c.197-.375.454-.655.769-.843a2.15 2.15 0 0 1 1.137-.295c.503 0 .916.103 1.241.31.335.207.577.507.724.901.237-.394.532-.694.887-.901.364-.207.778-.31 1.241-.31.482 0 .881.103 1.197.31.325.197.566.493.723.887.158.394.237.871.237 1.433zm3.589-7.21v11.524h-1.611v-11.524h1.611zm5.629 8.126c0 .738-.153 1.374-.458 1.906a3.23 3.23 0 0 1-1.212 1.226 3.35 3.35 0 0 1-1.64.414 2.72 2.72 0 0 1-1.507-.429c-.433-.286-.773-.694-1.019-1.226-.247-.532-.37-1.162-.37-1.891 0-.739.123-1.369.37-1.891.246-.532.586-.941 1.019-1.227a2.727 2.727 0 0 1 1.507-.428c.591 0 1.138.143 1.64.428.502.276.906.68 1.212 1.212.305.522.458 1.157.458 1.906zm-1.655 0c0-.453-.094-.842-.281-1.167a1.87 1.87 0 0 0-.753-.739 2.083 2.083 0 0 0-1.02-.251c-.305 0-.606.083-.901.251a2.036 2.036 0 0 0-.739.739c-.187.315-.28.704-.28 1.167 0 .463.093.857.28 1.182.197.315.443.556.739.724.295.167.596.251.901.251.374 0 .714-.084 1.02-.251.315-.168.566-.414.753-.739.187-.325.281-.714.281-1.167zm6.129 3.546c-.689 0-1.3-.148-1.832-.444a3.053 3.053 0 0 1-1.211-1.241c-.286-.532-.429-1.152-.429-1.861 0-.719.143-1.345.429-1.877a3.04 3.04 0 0 1 1.241-1.226c.532-.295 1.157-.443 1.876-.443.719 0 1.33.138 1.832.414.502.275.886.674 1.152 1.196.276.513.414 1.133.414 1.862 0 .079-.005.162-.015.251a.946.946 0 0 1-.014.192h-5.969v-1.093h4.609l-.487.679c.029-.059.059-.137.088-.236a.807.807 0 0 0 .06-.266c0-.364-.074-.68-.222-.945a1.5 1.5 0 0 0-.591-.621 1.66 1.66 0 0 0-.872-.222c-.404 0-.748.089-1.034.266a1.673 1.673 0 0 0-.65.769c-.148.335-.227.748-.236 1.241 0 .492.073.911.221 1.255.148.335.365.591.65.769.296.177.65.266 1.064.266.433 0 .813-.089 1.138-.266a2.14 2.14 0 0 0 .812-.813l1.374.562c-.354.61-.812 1.068-1.374 1.374-.561.305-1.236.458-2.024.458zm6.576-6.944v6.796h-1.581v-6.796h1.581zm2.024 1.699a2.075 2.075 0 0 0-.414-.266 1.164 1.164 0 0 0-.487-.089c-.266 0-.483.069-.65.207-.168.138-.291.33-.37.576a3.03 3.03 0 0 0-.103.842l-.532-.31c0-.542.099-1.019.296-1.433.206-.424.467-.758.783-1.005.325-.246.66-.369 1.004-.369.247 0 .478.039.695.118.216.069.399.197.546.384l-.768 1.345zm7.682-.074c0 .709.147 1.344.443 1.906a3.39 3.39 0 0 0 1.256 1.3c.531.315 1.137.473 1.817.473.689 0 1.295-.158 1.817-.473a3.283 3.283 0 0 0 1.241-1.3c.305-.562.458-1.197.458-1.906 0-.709-.148-1.34-.443-1.891-.296-.562-.709-1-1.241-1.315-.522-.315-1.133-.473-1.832-.473-.68 0-1.286.158-1.817.473a3.355 3.355 0 0 0-1.256 1.315c-.296.551-.443 1.182-.443 1.891zm-1.847 0c0-.778.133-1.492.399-2.142.266-.65.64-1.212 1.122-1.685a5.298 5.298 0 0 1 1.714-1.123 5.657 5.657 0 0 1 2.128-.398c.778 0 1.492.133 2.142.398.65.266 1.216.641 1.699 1.123a4.852 4.852 0 0 1 1.138 1.685c.266.65.399 1.364.399 2.142 0 .768-.133 1.482-.399 2.142a5.077 5.077 0 0 1-1.123 1.714 5.269 5.269 0 0 1-1.714 1.138 5.622 5.622 0 0 1-2.142.398 5.692 5.692 0 0 1-2.142-.398 5.258 5.258 0 0 1-1.714-1.138 5.194 5.194 0 0 1-1.108-1.714 5.676 5.676 0 0 1-.399-2.142zm11.742-1.625h3.9v1.403h-3.9v-1.403zm3.723-3.014c-.099-.158-.212-.261-.34-.311a.952.952 0 0 0-.369-.073.632.632 0 0 0-.384.118c-.099.079-.178.207-.237.384a2.25 2.25 0 0 0-.088.694v8.998h-1.567v-9.308c0-.532.084-.97.252-1.315.177-.354.428-.62.753-.798.325-.187.724-.28 1.197-.28a2.1 2.1 0 0 1 .694.103c.197.069.365.153.503.251.147.099.261.197.339.296l-.753 1.241zm5.96-.532h1.743v8.776h4.107v1.566h-5.85V277.05zm9.935 10.49c-.69 0-1.3-.148-1.832-.444a3.062 3.062 0 0 1-1.212-1.241c-.285-.532-.428-1.152-.428-1.861 0-.719.143-1.345.428-1.877.296-.531.709-.94 1.241-1.226.532-.295 1.158-.443 1.877-.443.719 0 1.329.138 1.832.414.502.275.886.674 1.152 1.196.276.513.414 1.133.414 1.862 0 .079-.005.162-.015.251a.862.862 0 0 1-.015.192h-5.969v-1.093h4.61l-.488.679c.03-.059.059-.137.089-.236a.827.827 0 0 0 .059-.266c0-.364-.074-.68-.222-.945a1.487 1.487 0 0 0-.591-.621 1.657 1.657 0 0 0-.871-.222c-.404 0-.749.089-1.034.266a1.675 1.675 0 0 0-.651.769c-.147.335-.226.748-.236 1.241 0 .492.074.911.222 1.255.147.335.364.591.65.769.295.177.65.266 1.064.266a2.34 2.34 0 0 0 1.137-.266c.325-.178.596-.448.813-.813l1.374.562c-.355.61-.813 1.068-1.374 1.374-.562.305-1.236.458-2.024.458zm5.999-2.261c0 .227.054.424.163.591a.988.988 0 0 0 .443.355c.197.078.419.118.665.118.315 0 .601-.064.857-.192a1.577 1.577 0 0 0 .886-1.448l.237.886c0 .434-.128.798-.384 1.094a2.34 2.34 0 0 1-.946.65 3.303 3.303 0 0 1-1.152.207c-.424 0-.818-.084-1.182-.252a2.052 2.052 0 0 1-.872-.738c-.217-.325-.325-.719-.325-1.182 0-.66.231-1.182.694-1.566.463-.394 1.118-.591 1.965-.591.453 0 .842.049 1.167.147.335.099.611.217.828.355.216.128.369.246.458.355v.812a3.235 3.235 0 0 0-.975-.473 3.982 3.982 0 0 0-1.094-.147c-.334 0-.605.044-.812.133a1.011 1.011 0 0 0-.473.339.969.969 0 0 0-.148.547zm-.502-2.91-.65-1.123c.305-.187.699-.37 1.182-.547.492-.177 1.054-.266 1.684-.266.562 0 1.054.084 1.478.251.433.168.773.409 1.019.724.246.306.369.685.369 1.138v4.846h-1.566v-4.536c0-.217-.039-.394-.118-.532a.895.895 0 0 0-.295-.34 1.31 1.31 0 0 0-.458-.192 2.691 2.691 0 0 0-.577-.059c-.315 0-.615.04-.901.118a3.286 3.286 0 0 0-.724.266 3.706 3.706 0 0 0-.443.252zm12.054-6.501h1.611v11.524h-1.611v-11.524zm-5.629 8.126c0-.749.153-1.384.458-1.906.306-.532.71-.936 1.212-1.212a3.321 3.321 0 0 1 1.64-.428c.571 0 1.069.143 1.492.428.433.286.773.695 1.019 1.227.257.522.385 1.152.385 1.891 0 .729-.128 1.359-.385 1.891-.246.532-.586.94-1.019 1.226-.423.286-.921.429-1.492.429a3.405 3.405 0 0 1-1.64-.414 3.23 3.23 0 0 1-1.212-1.226c-.305-.532-.458-1.168-.458-1.906zm1.655 0c0 .453.094.842.281 1.167.187.325.433.571.739.739.315.167.655.251 1.019.251.305 0 .606-.084.901-.251a1.93 1.93 0 0 0 .739-.724c.197-.325.295-.719.295-1.182 0-.463-.098-.852-.295-1.167a1.895 1.895 0 0 0-.739-.739 1.802 1.802 0 0 0-.901-.251c-.364 0-.704.083-1.019.251a1.895 1.895 0 0 0-.739.739c-.187.325-.281.714-.281 1.167zm7.873 1.167a6.3 6.3 0 0 0 .65.62c.226.168.453.296.68.385.226.078.453.118.679.118.286 0 .507-.064.665-.192a.634.634 0 0 0 .251-.532.71.71 0 0 0-.192-.502 1.46 1.46 0 0 0-.532-.37 8.173 8.173 0 0 0-.798-.325 9.351 9.351 0 0 1-.916-.414 2.344 2.344 0 0 1-.738-.65c-.187-.266-.281-.6-.281-1.004 0-.414.103-.759.31-1.034.217-.276.503-.478.857-.606a3.272 3.272 0 0 1 1.167-.207c.375 0 .724.054 1.049.162.335.109.636.252.902.429.265.177.492.379.679.606l-.886.945a2.771 2.771 0 0 0-.813-.65 2.057 2.057 0 0 0-.975-.251.984.984 0 0 0-.561.148.482.482 0 0 0-.222.428c0 .158.064.301.192.429.138.118.315.226.532.325.226.098.478.202.753.31.375.148.719.31 1.035.487.315.178.566.394.753.651.197.256.296.591.296 1.004 0 .64-.222 1.158-.665 1.551-.434.385-1.025.577-1.773.577-.463 0-.892-.069-1.286-.207a4.043 4.043 0 0 1-1.019-.562 4.604 4.604 0 0 1-.724-.738l.931-.931zM147.297 305.545c0-.993.266-1.853.798-2.58.532-.726 1.241-1.285 2.128-1.675.904-.408 1.905-.612 3.005-.612 1.081 0 2.065.204 2.952.612.904.39 1.622.949 2.154 1.675.549.727.824 1.587.824 2.58 0 .816-.168 1.534-.505 2.154a4.362 4.362 0 0 1-1.33 1.516 6.067 6.067 0 0 1-1.888.931 7.665 7.665 0 0 1-2.207.319 7.666 7.666 0 0 1-2.208-.319 6.402 6.402 0 0 1-1.914-.931 4.75 4.75 0 0 1-1.33-1.516c-.319-.62-.479-1.338-.479-2.154zm3.564.372c0 .479.106.896.319 1.25.213.355.496.638.851.851a2.44 2.44 0 0 0 1.197.293c.443 0 .842-.098 1.196-.293.355-.213.63-.496.825-.851.212-.354.319-.771.319-1.25 0-.461-.098-.877-.293-1.25a2.01 2.01 0 0 0-.824-.851 2.497 2.497 0 0 0-1.223-.292 2.5 2.5 0 0 0-1.224.292 2.189 2.189 0 0 0-.851.851 2.655 2.655 0 0 0-.292 1.25zm-4.229 8.696c0-.939.195-1.746.585-2.42a5.097 5.097 0 0 1 1.543-1.702 7.218 7.218 0 0 1 2.154-.984 8.794 8.794 0 0 1 2.314-.319c.762 0 1.533.107 2.313.319.78.213 1.49.541 2.128.984a4.989 4.989 0 0 1 1.569 1.702c.39.674.585 1.481.585 2.42 0 .816-.177 1.561-.532 2.234a5.343 5.343 0 0 1-1.463 1.702 6.787 6.787 0 0 1-2.101 1.117 8.201 8.201 0 0 1-2.499.373 8.466 8.466 0 0 1-2.527-.373 7.232 7.232 0 0 1-2.101-1.117 5.34 5.34 0 0 1-1.462-1.702 4.92 4.92 0 0 1-.506-2.234zm3.75-.558c0 .621.124 1.144.372 1.569.266.408.612.727 1.038.957.443.213.921.32 1.436.32.496 0 .957-.107 1.382-.32.444-.23.798-.549 1.064-.957.266-.425.399-.948.399-1.569 0-.514-.133-.984-.399-1.409a2.9 2.9 0 0 0-1.064-1.011 2.695 2.695 0 0 0-1.382-.372 2.89 2.89 0 0 0-1.436.372 2.971 2.971 0 0 0-1.038 1.011 2.746 2.746 0 0 0-.372 1.409zm26.263-.399c0 1.099-.204 2.048-.612 2.846a5.582 5.582 0 0 1-1.648 1.968 7.245 7.245 0 0 1-2.314 1.143 9.364 9.364 0 0 1-2.633.372c-1.135 0-2.154-.133-3.058-.399-.887-.265-1.667-.611-2.34-1.037a11.236 11.236 0 0 1-1.782-1.436l1.782-2.952c.443.444.922.842 1.436 1.197a8.087 8.087 0 0 0 1.648.851 5 5 0 0 0 1.623.293c.798 0 1.471-.124 2.021-.373.567-.248 1.002-.602 1.303-1.063.301-.479.452-1.064.452-1.756 0-.673-.177-1.241-.532-1.702-.337-.461-.798-.806-1.383-1.037a4.596 4.596 0 0 0-1.861-.372c-.497 0-1.02.044-1.569.133a9.05 9.05 0 0 0-1.702.399 9.71 9.71 0 0 0-1.809.798l2.553-10.478h10.132v3.297h-7.313l-1.117 3.83a4.798 4.798 0 0 1 1.463-.506 8.283 8.283 0 0 1 1.622-.159c1.011 0 1.942.248 2.793.745.851.496 1.533 1.205 2.047 2.127.532.904.798 1.995.798 3.271z" fill="#303030"/><path d="M180.725 313.84h2.039v.665h-2.039v-.665zm.665-1.418h.709v5.496h-.709v-5.496zm2.795-1.418v6.914h-.709v-6.914h.709zm1.906 4.432c0-.337-.074-.591-.222-.762-.142-.172-.358-.258-.647-.258-.207 0-.39.045-.55.133a.976.976 0 0 0-.363.364 1.083 1.083 0 0 0-.124.523h-.231a1.9 1.9 0 0 1 .186-.86c.125-.254.293-.455.506-.603a1.31 1.31 0 0 1 .753-.221c.284 0 .529.059.736.177.213.118.375.295.487.532.119.236.178.532.178.886v2.571h-.709v-2.482zm2.042-3.28a.47.47 0 0 1 .142-.346.49.49 0 0 1 .833.346.49.49 0 0 1-.142.346.49.49 0 0 1-.691 0 .49.49 0 0 1-.142-.346zm.133 1.684h.709v4.078h-.709v-4.078zm2.338 2.828c.083.124.177.239.284.346.106.106.227.192.363.257.142.059.296.089.461.089.201 0 .358-.045.47-.133a.465.465 0 0 0 .177-.382.479.479 0 0 0-.142-.354 1 1 0 0 0-.345-.248 4.552 4.552 0 0 0-.452-.195 6 6 0 0 1-.541-.249 1.558 1.558 0 0 1-.452-.381.97.97 0 0 1-.178-.594c0-.242.063-.443.187-.603.13-.159.295-.277.496-.354a1.817 1.817 0 0 1 1.764.275c.148.118.263.254.346.407l-.568.364a1.38 1.38 0 0 0-.425-.381 1.066 1.066 0 0 0-.567-.151.721.721 0 0 0-.382.098.328.328 0 0 0-.159.301c0 .106.041.201.124.284.083.082.189.156.319.221s.266.127.408.186c.236.095.452.198.647.311.195.106.349.236.461.39.118.153.177.351.177.594 0 .354-.13.65-.39.886-.254.236-.591.355-1.01.355-.272 0-.517-.048-.736-.142a1.93 1.93 0 0 1-.559-.381 1.841 1.841 0 0 1-.336-.47l.558-.346zm5.444-2.828h.798l1.019 2.651 1.108-2.961 1.188 2.979 1.028-2.669h.798l-1.773 4.388-1.232-2.969-1.161 2.969-1.773-4.388zm8.094 4.167a1.93 1.93 0 0 1-1.011-.266 1.922 1.922 0 0 1-.682-.754 2.44 2.44 0 0 1-.24-1.108c0-.425.083-.798.248-1.117.172-.319.408-.567.71-.744a2.082 2.082 0 0 1 1.063-.266c.402 0 .745.085 1.029.257.289.165.511.405.664.718.154.313.231.685.231 1.117 0 .041-.003.085-.009.133v.079h-3.484v-.602h2.926l-.284.407a.584.584 0 0 0 .053-.133.624.624 0 0 0 .027-.159c0-.242-.05-.452-.151-.63a1.031 1.031 0 0 0-.399-.416 1.164 1.164 0 0 0-.603-.151c-.271 0-.505.059-.7.177a1.14 1.14 0 0 0-.443.497c-.101.213-.154.476-.16.789 0 .319.051.591.151.815.1.225.248.396.443.514.195.119.432.178.709.178.278 0 .523-.059.736-.178.213-.124.393-.31.541-.558l.576.363a2.176 2.176 0 0 1-.807.781c-.319.171-.697.257-1.134.257zm4.562 0c-.378 0-.715-.089-1.011-.266a1.922 1.922 0 0 1-.682-.754 2.44 2.44 0 0 1-.24-1.108c0-.425.083-.798.249-1.117.171-.319.407-.567.709-.744a2.083 2.083 0 0 1 1.064-.266c.401 0 .744.085 1.028.257.289.165.511.405.665.718.153.313.23.685.23 1.117 0 .041-.003.085-.009.133v.079h-3.484v-.602h2.926l-.284.407a.541.541 0 0 0 .053-.133.624.624 0 0 0 .027-.159c0-.242-.05-.452-.151-.63a1.031 1.031 0 0 0-.399-.416 1.163 1.163 0 0 0-.602-.151 1.33 1.33 0 0 0-.701.177 1.14 1.14 0 0 0-.443.497 1.94 1.94 0 0 0-.16.789c0 .319.051.591.151.815.101.225.248.396.443.514.195.119.432.178.71.178.277 0 .523-.059.735-.178.213-.124.393-.31.541-.558l.576.363a2.173 2.173 0 0 1-.806.781c-.32.171-.698.257-1.135.257zm2.94-7.003h.709v6.914h-.709v-6.914zm2.216 2.836h.886l-1.773 1.685 1.951 2.393h-.887l-1.95-2.393 1.773-1.685z" fill="#9A9A9A"/><path d="M365.995 319.585c0 .444-.07.832-.211 1.164-.14.332-.336.609-.587.831a2.517 2.517 0 0 1-.864.499c-.325.11-.676.166-1.053.166-.473 0-.886-.074-1.241-.222a2.906 2.906 0 0 1-.897-.587 4.138 4.138 0 0 1-.621-.82l.798-.543c.118.222.273.432.465.632.2.192.429.351.687.476.259.118.528.177.809.177.37 0 .683-.073.942-.221.259-.148.454-.355.587-.621.141-.266.211-.576.211-.931 0-.354-.078-.664-.233-.93a1.57 1.57 0 0 0-.62-.621 1.754 1.754 0 0 0-.887-.221 3.25 3.25 0 0 0-.676.066 2.29 2.29 0 0 0-.609.211 5.22 5.22 0 0 0-.698.421l1.019-4.133h3.657v.831h-2.926l-.52 2.05c.184-.097.373-.167.565-.211.199-.052.395-.078.587-.078.443 0 .839.111 1.186.333.354.221.631.528.831.92.199.391.299.845.299 1.362zm1.833-1.329c0 .45.045.868.133 1.252a3.4 3.4 0 0 0 .388.986c.17.273.373.488.61.643.243.148.513.221.808.221.303 0 .573-.073.809-.221.237-.155.44-.37.61-.643a3.4 3.4 0 0 0 .388-.986c.088-.384.133-.802.133-1.252 0-.451-.045-.865-.133-1.241a3.239 3.239 0 0 0-.388-.986 1.891 1.891 0 0 0-.61-.643 1.441 1.441 0 0 0-.809-.233c-.295 0-.565.078-.808.233-.237.148-.44.362-.61.643-.17.273-.299.602-.388.986-.088.376-.133.79-.133 1.241zm-.942 0c0-.776.122-1.463.366-2.061.244-.599.58-1.068 1.008-1.407a2.348 2.348 0 0 1 1.507-.521 2.3 2.3 0 0 1 1.496.521c.436.339.776.808 1.02 1.407.244.598.365 1.285.365 2.061 0 .775-.121 1.462-.365 2.061-.244.598-.584 1.071-1.02 1.418-.428.34-.927.51-1.496.51-.568 0-1.071-.17-1.507-.51-.428-.347-.764-.82-1.008-1.418-.244-.599-.366-1.286-.366-2.061zm6.589-2.216c0-.333.07-.632.211-.898.147-.266.354-.476.62-.631.266-.163.573-.244.92-.244.354 0 .661.081.92.244.266.155.469.365.609.631.148.266.222.565.222.898 0 .325-.074.624-.222.897-.14.266-.343.48-.609.643a1.76 1.76 0 0 1-.92.233c-.347 0-.654-.078-.92-.233a1.722 1.722 0 0 1-.62-.643 1.925 1.925 0 0 1-.211-.897zm.787 0c0 .184.037.358.111.52a1 1 0 0 0 .332.388.934.934 0 0 0 .521.144c.207 0 .38-.048.521-.144a.92.92 0 0 0 .321-.388 1.15 1.15 0 0 0 .122-.52c0-.192-.041-.366-.122-.521a.92.92 0 0 0-.321-.388.903.903 0 0 0-.521-.144c-.2 0-.373.048-.521.144a1 1 0 0 0-.332.388 1.195 1.195 0 0 0-.111.521zm3.258 4.432c0-.332.07-.632.21-.898.148-.266.355-.476.621-.631.266-.163.572-.244.919-.244.355 0 .661.081.92.244.266.155.469.365.609.631.148.266.222.566.222.898 0 .325-.074.624-.222.897-.14.266-.343.481-.609.643a1.757 1.757 0 0 1-.92.233c-.347 0-.653-.078-.919-.233a1.725 1.725 0 0 1-.621-.643 1.937 1.937 0 0 1-.21-.897zm.786 0c0 .185.037.358.111.521a1 1 0 0 0 .333.388.931.931 0 0 0 .52.144.9.9 0 0 0 .521-.144.92.92 0 0 0 .321-.388 1.14 1.14 0 0 0 .122-.521c0-.192-.04-.366-.122-.521a.92.92 0 0 0-.321-.388.9.9 0 0 0-.521-.144.931.931 0 0 0-.52.144 1 1 0 0 0-.333.388 1.195 1.195 0 0 0-.111.521zm1.02-6.094h.831l-4.987 7.756h-.831l4.987-7.756zM303.282 308.505c0 .354.074.668.221.942.156.266.362.476.621.631.266.155.565.233.898.233.332 0 .627-.078.886-.233.266-.155.473-.365.62-.631a1.87 1.87 0 0 0 .233-.942c0-.355-.077-.669-.233-.942a1.597 1.597 0 0 0-.62-.654 1.69 1.69 0 0 0-.886-.232 1.75 1.75 0 0 0-.898.232 1.71 1.71 0 0 0-.621.654 1.956 1.956 0 0 0-.221.942zm2.205-5.208h1.186l-2.427 3.202-.067-.055c.148-.185.318-.307.51-.366.2-.059.425-.088.676-.088a2.176 2.176 0 0 1 1.618.72c.214.229.38.498.498.809.119.303.178.631.178.986 0 .532-.118.997-.355 1.396a2.429 2.429 0 0 1-.942.931 2.677 2.677 0 0 1-1.34.332 2.72 2.72 0 0 1-1.341-.332 2.505 2.505 0 0 1-.953-.931c-.229-.399-.344-.864-.344-1.396 0-.318.045-.613.133-.887a2.63 2.63 0 0 1 .355-.72l2.615-3.601zm4.113 3.878c0 .451.044.868.133 1.252.088.377.218.706.388.987.169.273.373.487.609.642.244.148.513.222.809.222.303 0 .572-.074.809-.222.236-.155.439-.369.609-.642.17-.281.299-.61.388-.987a5.54 5.54 0 0 0 .133-1.252c0-.45-.044-.864-.133-1.241a3.239 3.239 0 0 0-.388-.986 1.899 1.899 0 0 0-.609-.643 1.443 1.443 0 0 0-.809-.232c-.296 0-.565.077-.809.232-.236.148-.44.362-.609.643-.17.273-.3.602-.388.986a5.404 5.404 0 0 0-.133 1.241zm-.942 0c0-.775.122-1.462.366-2.061.243-.598.579-1.067 1.008-1.407a2.351 2.351 0 0 1 1.507-.521c.569 0 1.067.174 1.496.521.436.34.775.809 1.019 1.407.244.599.366 1.286.366 2.061 0 .776-.122 1.463-.366 2.061-.244.599-.583 1.071-1.019 1.419a2.342 2.342 0 0 1-1.496.509c-.569 0-1.071-.17-1.507-.509-.429-.348-.765-.82-1.008-1.419-.244-.598-.366-1.285-.366-2.061zm6.589-2.216c0-.332.07-.632.21-.897.148-.266.355-.477.621-.632.266-.163.572-.244.919-.244.355 0 .661.081.92.244.266.155.469.366.609.632.148.265.222.565.222.897 0 .325-.074.624-.222.898-.14.266-.343.48-.609.642a1.757 1.757 0 0 1-.92.233c-.347 0-.653-.078-.919-.233a1.722 1.722 0 0 1-.621-.642 1.944 1.944 0 0 1-.21-.898zm.786 0c0 .185.037.358.111.521a1 1 0 0 0 .333.388.931.931 0 0 0 .52.144.9.9 0 0 0 .521-.144.92.92 0 0 0 .321-.388 1.14 1.14 0 0 0 .122-.521c0-.192-.04-.366-.122-.521a.92.92 0 0 0-.321-.388.9.9 0 0 0-.521-.144.931.931 0 0 0-.52.144 1 1 0 0 0-.333.388 1.195 1.195 0 0 0-.111.521zm3.258 4.432c0-.332.07-.631.211-.897.147-.266.354-.477.62-.632.266-.162.573-.244.92-.244.354 0 .661.082.919.244.266.155.47.366.61.632.148.266.222.565.222.897 0 .325-.074.625-.222.898-.14.266-.344.48-.61.643a1.753 1.753 0 0 1-.919.232c-.347 0-.654-.077-.92-.232a1.722 1.722 0 0 1-.62-.643 1.93 1.93 0 0 1-.211-.898zm.787 0c0 .185.037.359.111.521a1 1 0 0 0 .332.388.934.934 0 0 0 .521.144c.207 0 .38-.048.521-.144a.92.92 0 0 0 .321-.388 1.15 1.15 0 0 0 .122-.521c0-.192-.041-.365-.122-.52a.92.92 0 0 0-.321-.388.903.903 0 0 0-.521-.144c-.2 0-.373.048-.521.144a1 1 0 0 0-.332.388 1.19 1.19 0 0 0-.111.52zm1.019-6.094h.831l-4.986 7.756h-.831l4.986-7.756zM241.477 332.402l4.3-6.205h.387v7.757h-.941v-5.663l-2.194 3.28h4.354v.831h-5.906zm7.624-2.327c0 .451.044.868.133 1.252.089.377.218.706.388.987.17.273.373.487.609.642.244.148.514.222.809.222.303 0 .573-.074.809-.222.236-.155.439-.369.609-.642.17-.281.3-.61.388-.987a5.54 5.54 0 0 0 .133-1.252c0-.45-.044-.864-.133-1.241a3.213 3.213 0 0 0-.388-.986 1.899 1.899 0 0 0-.609-.643 1.44 1.44 0 0 0-.809-.232c-.295 0-.565.077-.809.232a1.899 1.899 0 0 0-.609.643c-.17.273-.299.602-.388.986a5.404 5.404 0 0 0-.133 1.241zm-.942 0c0-.775.122-1.462.366-2.061.243-.598.58-1.067 1.008-1.407a2.351 2.351 0 0 1 1.507-.521c.569 0 1.067.174 1.496.521.436.34.776.809 1.019 1.407.244.599.366 1.286.366 2.061 0 .776-.122 1.463-.366 2.061-.243.599-.583 1.072-1.019 1.419-.429.34-.927.509-1.496.509a2.38 2.38 0 0 1-1.507-.509c-.428-.347-.765-.82-1.008-1.419-.244-.598-.366-1.285-.366-2.061zm6.589-2.216c0-.332.07-.631.21-.897.148-.266.355-.477.621-.632.266-.162.572-.244.919-.244.355 0 .662.082.92.244.266.155.469.366.61.632.147.266.221.565.221.897 0 .325-.074.624-.221.898-.141.266-.344.48-.61.642a1.745 1.745 0 0 1-.92.233c-.347 0-.653-.077-.919-.233a1.722 1.722 0 0 1-.621-.642 1.944 1.944 0 0 1-.21-.898zm.786 0c0 .185.037.358.111.521.082.163.192.292.333.388a.931.931 0 0 0 .52.144.9.9 0 0 0 .521-.144.916.916 0 0 0 .322-.388c.081-.163.122-.336.122-.521 0-.192-.041-.365-.122-.521a.919.919 0 0 0-.322-.387.9.9 0 0 0-.521-.144.931.931 0 0 0-.52.144 1.006 1.006 0 0 0-.333.387 1.198 1.198 0 0 0-.111.521zm3.258 4.433c0-.333.07-.632.211-.898.147-.266.354-.477.62-.632.266-.162.573-.243.92-.243.355 0 .661.081.92.243.266.155.469.366.609.632.148.266.222.565.222.898 0 .325-.074.624-.222.897-.14.266-.343.48-.609.643a1.756 1.756 0 0 1-.92.232c-.347 0-.654-.077-.92-.232a1.722 1.722 0 0 1-.62-.643 1.925 1.925 0 0 1-.211-.897zm.787 0c0 .184.037.358.111.52a1 1 0 0 0 .332.388.937.937 0 0 0 .521.144c.207 0 .38-.048.521-.144a.92.92 0 0 0 .321-.388 1.15 1.15 0 0 0 .122-.52c0-.193-.041-.366-.122-.521a.92.92 0 0 0-.321-.388.903.903 0 0 0-.521-.144.937.937 0 0 0-.521.144 1 1 0 0 0-.332.388 1.192 1.192 0 0 0-.111.521zm1.019-6.095h.831l-4.986 7.757h-.831l4.986-7.757zM177.135 371.31v-.975l2.66-.665v7.868h-.942v-6.737l-1.718.509zm5.487 2.349c0 .451.045.868.133 1.252.089.377.218.706.388.987.17.273.373.487.61.642.243.148.513.222.809.222.302 0 .572-.074.808-.222.237-.155.44-.369.61-.642.17-.281.299-.61.388-.987.088-.384.133-.801.133-1.252 0-.45-.045-.864-.133-1.241a3.239 3.239 0 0 0-.388-.986 1.891 1.891 0 0 0-.61-.643 1.44 1.44 0 0 0-.808-.232c-.296 0-.566.077-.809.232-.237.148-.44.362-.61.643-.17.273-.299.602-.388.986a5.46 5.46 0 0 0-.133 1.241zm-.941 0c0-.775.121-1.462.365-2.061.244-.598.58-1.067 1.009-1.407a2.35 2.35 0 0 1 1.507-.521c.568 0 1.067.174 1.495.521.436.34.776.809 1.02 1.407.244.599.366 1.286.366 2.061 0 .776-.122 1.463-.366 2.061-.244.599-.584 1.071-1.02 1.419-.428.34-.927.509-1.495.509a2.379 2.379 0 0 1-1.507-.509c-.429-.348-.765-.82-1.009-1.419-.244-.598-.365-1.285-.365-2.061zm6.588-2.216c0-.332.07-.631.211-.897.148-.266.354-.477.62-.632.266-.162.573-.244.92-.244.355 0 .661.082.92.244.266.155.469.366.609.632.148.266.222.565.222.897 0 .325-.074.624-.222.898-.14.266-.343.48-.609.642a1.747 1.747 0 0 1-.92.233c-.347 0-.654-.077-.92-.233a1.72 1.72 0 0 1-.62-.642 1.932 1.932 0 0 1-.211-.898zm.787 0c0 .185.037.358.111.521a1 1 0 0 0 .332.388.937.937 0 0 0 .521.144c.207 0 .38-.048.521-.144a.92.92 0 0 0 .321-.388c.081-.163.122-.336.122-.521 0-.192-.041-.365-.122-.521a.924.924 0 0 0-.321-.387.903.903 0 0 0-.521-.144.937.937 0 0 0-.521.144c-.14.096-.251.225-.332.387a1.198 1.198 0 0 0-.111.521zm3.258 4.432c0-.332.07-.631.21-.897.148-.266.355-.477.621-.632a1.73 1.73 0 0 1 .919-.243c.355 0 .662.081.92.243.266.155.469.366.61.632.147.266.221.565.221.897 0 .326-.074.625-.221.898a1.65 1.65 0 0 1-.61.643 1.754 1.754 0 0 1-.92.232 1.79 1.79 0 0 1-.919-.232 1.732 1.732 0 0 1-.621-.643 1.938 1.938 0 0 1-.21-.898zm.786 0c0 .185.037.359.111.521.082.163.192.292.333.388a.931.931 0 0 0 .52.144.9.9 0 0 0 .521-.144.916.916 0 0 0 .322-.388 1.15 1.15 0 0 0 .121-.521c0-.192-.04-.365-.121-.52a.916.916 0 0 0-.322-.388.9.9 0 0 0-.521-.144.931.931 0 0 0-.52.144 1.002 1.002 0 0 0-.333.388 1.19 1.19 0 0 0-.111.52zm1.02-6.094h.831l-4.986 7.757h-.831l4.986-7.757z" fill="#303030"/><path d="M203.445 386.51c-26.494 20.229-46.554-19.009-53.79-43.611v69.07H376.44v-59.467c-2.587-1.15-4.803-3.056-6.66-5.274-6.666-7.965-9.61-18.762-17.059-25.999-15.892-15.44-28.374-10.267-35.747-3.816-8.865 7.757-26.963 25.486-56.142 25.486-17.697 0-32.832 13.444-41.961 25.044-4.997 6.348-9.004 13.664-15.426 18.567z" fill="url(#j)"/><path d="M150.394 342.929c7.274 24.733 27.509 64.256 54.212 43.284 6.073-4.77 9.931-11.72 14.672-17.816 9.092-11.694 24.38-25.468 42.292-25.468 29.18 0 47.278-17.729 56.143-25.486 6.586-5.762 17.249-10.506 30.778-.446 11.813 8.783 14.371 26.885 26.911 34.596.572.352 1.164.667 1.777.939" stroke="#2EB4E3" stroke-width="2.216" stroke-linecap="round"/><circle cx="250.859" cy="345.115" r="6.279" fill="#F3F4F4" stroke="#2EB4E3" stroke-width="2.216"/><circle cx="311.434" cy="322.215" r="6.279" fill="#F3F4F4" stroke="#2EB4E3" stroke-width="2.216"/><circle cx="188.068" cy="389.438" r="6.279" fill="#F3F4F4" stroke="#2EB4E3" stroke-width="2.216"/><circle cx="364.621" cy="336.989" r="6.279" fill="#F3F4F4" stroke="#2EB4E3" stroke-width="2.216"/><g filter="url(#k)"><rect x="124.539" y="63.353" width="441.995" height="172.659" rx="18.468" transform="rotate(-.562 124.539 63.353)" fill="url(#l)" fill-opacity=".93" shape-rendering="crispEdges"/></g><path d="M146.892 94.404c.227.394.468.744.724 1.049.266.296.556.527.872.694.315.158.669.237 1.063.237.473 0 .857-.128 1.153-.384.295-.256.443-.586.443-.99 0-.384-.094-.69-.281-.916a2.132 2.132 0 0 0-.783-.591 9.87 9.87 0 0 0-1.137-.488 8.943 8.943 0 0 1-.857-.354 5.197 5.197 0 0 1-.902-.576 3.007 3.007 0 0 1-.709-.857c-.187-.345-.28-.759-.28-1.241 0-.552.142-1.035.428-1.448.286-.424.67-.749 1.152-.975.493-.237 1.049-.355 1.67-.355.611 0 1.143.108 1.596.325a3.64 3.64 0 0 1 1.137.827c.315.335.562.685.739 1.05l-1.418.797a3.135 3.135 0 0 0-.488-.709 2.145 2.145 0 0 0-.694-.532 1.875 1.875 0 0 0-.902-.207c-.482 0-.837.114-1.063.34-.227.217-.34.473-.34.768 0 .266.079.508.236.724.168.207.424.404.769.591.344.187.792.38 1.344.576.305.109.611.247.916.414.315.168.601.38.857.635.256.247.458.537.606.872.157.335.236.729.236 1.182 0 .483-.094.916-.281 1.3-.187.384-.443.71-.768.975a3.623 3.623 0 0 1-1.108.591 3.67 3.67 0 0 1-1.271.222c-.61 0-1.177-.118-1.699-.355a4.571 4.571 0 0 1-1.344-.975 5.093 5.093 0 0 1-.916-1.315l1.3-.9zm8.748 1.212c0 .226.054.423.162.59a.991.991 0 0 0 .444.355c.197.079.418.118.664.118.316 0 .601-.064.857-.192.266-.128.478-.315.636-.561.167-.256.251-.552.251-.887l.236.887c0 .433-.128.798-.384 1.093a2.322 2.322 0 0 1-.945.65 3.315 3.315 0 0 1-1.153.207c-.423 0-.817-.084-1.182-.251a2.054 2.054 0 0 1-.871-.739c-.217-.325-.326-.719-.326-1.182 0-.66.232-1.182.695-1.566.463-.394 1.118-.59 1.965-.59.453 0 .842.048 1.167.147.335.098.611.217.827.355.217.127.37.246.458.354v.813a3.186 3.186 0 0 0-.975-.473 3.956 3.956 0 0 0-1.093-.148c-.335 0-.606.044-.813.133a1.015 1.015 0 0 0-.472.34.96.96 0 0 0-.148.546zm-.502-2.911-.651-1.123c.306-.187.7-.37 1.182-.546.493-.178 1.054-.266 1.685-.266.561 0 1.054.083 1.477.25.434.168.773.41 1.02.725.246.305.369.684.369 1.137v4.846h-1.566v-4.535c0-.217-.04-.394-.118-.532a.895.895 0 0 0-.296-.34 1.287 1.287 0 0 0-.458-.192 2.65 2.65 0 0 0-.576-.06c-.315 0-.616.04-.901.119a3.266 3.266 0 0 0-.724.266 3.655 3.655 0 0 0-.443.251zm6.942-6.5h1.596v11.523h-1.596V86.204zm6.591 11.671c-.69 0-1.3-.148-1.832-.443a3.066 3.066 0 0 1-1.212-1.241c-.285-.532-.428-1.153-.428-1.862 0-.719.143-1.344.428-1.876.296-.532.709-.94 1.241-1.226.532-.296 1.158-.444 1.877-.444.719 0 1.329.138 1.832.414.502.276.886.675 1.152 1.197.276.512.414 1.133.414 1.861 0 .08-.005.163-.015.251a.867.867 0 0 1-.015.192h-5.969v-1.093h4.61l-.488.68c.03-.06.06-.138.089-.237a.83.83 0 0 0 .059-.266c0-.364-.074-.68-.221-.945a1.497 1.497 0 0 0-.591-.62 1.664 1.664 0 0 0-.872-.222c-.404 0-.749.089-1.034.266a1.662 1.662 0 0 0-.65.768c-.148.335-.227.749-.237 1.241 0 .493.074.911.222 1.256.148.335.364.59.65.768.295.177.65.266 1.064.266.433 0 .812-.089 1.137-.266.325-.177.596-.448.813-.812l1.374.561c-.355.61-.813 1.069-1.374 1.374-.562.305-1.236.458-2.024.458zm10.798-2.807.325-1.478h4.802l.34 1.478h-5.467zm2.704-4.757-1.625 3.797-.03.384-1.433 3.235h-1.965l5.053-10.918 5.053 10.918h-1.965l-1.404-3.147-.044-.428-1.64-3.841zm10.496 3.28c0-.503-.103-.882-.31-1.138-.207-.256-.527-.384-.961-.384-.295 0-.556.064-.783.192a1.268 1.268 0 0 0-.532.532 1.595 1.595 0 0 0-.192.797v4.137h-1.595v-6.796h1.595v1.05c.217-.405.493-.705.828-.902.344-.197.753-.296 1.226-.296.768 0 1.354.237 1.758.71.404.463.606 1.103.606 1.92v4.314h-1.64v-4.136zm4.682 2.023c0 .227.054.424.163.592a.988.988 0 0 0 .443.354c.197.079.419.118.665.118.315 0 .601-.064.857-.192.266-.128.477-.315.635-.561.167-.256.251-.552.251-.887l.237.887c0 .433-.128.798-.385 1.093a2.322 2.322 0 0 1-.945.65 3.305 3.305 0 0 1-1.152.207c-.424 0-.818-.084-1.182-.251a2.057 2.057 0 0 1-.872-.739c-.217-.325-.325-.719-.325-1.182 0-.66.231-1.182.694-1.566.463-.394 1.118-.59 1.965-.59.453 0 .842.048 1.167.147.335.098.611.217.828.355.216.127.369.246.458.354v.813a3.208 3.208 0 0 0-.975-.473 3.963 3.963 0 0 0-1.094-.148c-.335 0-.605.044-.812.133a1.013 1.013 0 0 0-.473.34.968.968 0 0 0-.148.546zm-.502-2.91-.65-1.123c.305-.187.699-.37 1.182-.546.492-.178 1.054-.266 1.684-.266.562 0 1.054.083 1.478.25.433.168.773.41 1.019.725.246.305.369.684.369 1.137v4.846h-1.566v-4.535c0-.217-.039-.394-.118-.532a.892.892 0 0 0-.295-.34 1.294 1.294 0 0 0-.458-.192c-.178-.04-.37-.06-.577-.06-.315 0-.615.04-.901.119a3.266 3.266 0 0 0-.724.266 3.655 3.655 0 0 0-.443.251zm6.942-6.5h1.596v11.523h-1.596V86.204zm9.649 4.727-4.432 10.047h-1.699l1.773-4.049-2.733-5.998h1.832l2.172 5.378-.754-.044 2.128-5.334h1.713zm.01 0h3.857v1.404h-3.857v-1.404zm1.138-2.364h1.581v9.16h-1.581v-9.16zm3.76-.34a.92.92 0 0 1 .295-.694 1.03 1.03 0 0 1 .71-.28c.285 0 .522.093.709.28a.92.92 0 0 1 .295.694.95.95 0 0 1-.295.695.962.962 0 0 1-.709.28 1.03 1.03 0 0 1-.71-.28.95.95 0 0 1-.295-.695zm.222 2.704h1.566v6.796h-1.566v-6.796zm4.825 3.398c0 .434.094.813.281 1.138.187.315.438.566.753.753.325.187.685.281 1.079.281.325 0 .635-.05.931-.148.295-.098.556-.236.783-.413.226-.178.394-.375.502-.591v1.758c-.236.236-.556.423-.96.561a4.093 4.093 0 0 1-1.33.207c-.699 0-1.33-.148-1.891-.443a3.498 3.498 0 0 1-1.315-1.256c-.315-.542-.473-1.157-.473-1.847 0-.7.158-1.315.473-1.847a3.386 3.386 0 0 1 1.315-1.24c.561-.306 1.192-.459 1.891-.459.483 0 .926.07 1.33.207.404.138.724.325.96.562v1.758a1.542 1.542 0 0 0-.517-.591 2.595 2.595 0 0 0-.783-.414 2.88 2.88 0 0 0-.916-.148c-.394 0-.754.094-1.079.281a2.087 2.087 0 0 0-.753.768c-.187.325-.281.7-.281 1.123zm6.403 1.167c.217.237.433.444.65.62.227.168.453.296.68.385.226.079.453.118.679.118.286 0 .508-.064.665-.192a.63.63 0 0 0 .251-.532.712.712 0 0 0-.192-.502 1.456 1.456 0 0 0-.532-.37 8.249 8.249 0 0 0-.797-.325 9.276 9.276 0 0 1-.916-.413 2.345 2.345 0 0 1-.739-.65c-.187-.266-.281-.601-.281-1.005 0-.413.104-.758.31-1.034.217-.276.503-.478.857-.606a3.274 3.274 0 0 1 1.167-.207c.375 0 .724.054 1.049.163.335.108.636.251.902.428.266.178.492.38.679.606l-.886.946a2.763 2.763 0 0 0-.813-.65 2.052 2.052 0 0 0-.975-.252.99.99 0 0 0-.561.148.483.483 0 0 0-.222.429c0 .157.064.3.192.428.138.118.315.227.532.325.227.099.478.202.754.31.374.148.719.31 1.034.488.315.177.566.394.753.65.197.256.296.59.296 1.005 0 .64-.222 1.157-.665 1.55-.434.385-1.024.577-1.773.577-.463 0-.891-.069-1.285-.207a4.055 4.055 0 0 1-1.02-.561 4.658 4.658 0 0 1-.724-.739l.931-.93zM145.924 116.998h1.308v6.582h3.08v1.174h-4.388v-7.756zm7.451 7.867c-.517 0-.975-.111-1.374-.332a2.3 2.3 0 0 1-.908-.931c-.214-.399-.322-.865-.322-1.396 0-.54.108-1.009.322-1.408a2.27 2.27 0 0 1 .931-.919c.399-.222.868-.333 1.407-.333s.997.104 1.374.31c.377.207.665.506.864.898.207.384.31.85.31 1.396 0 .059-.003.122-.011.189a.629.629 0 0 1-.011.144h-4.476v-.82h3.457l-.366.509c.022-.044.045-.103.067-.177a.627.627 0 0 0 .044-.199c0-.274-.055-.51-.166-.71a1.128 1.128 0 0 0-.443-.465 1.247 1.247 0 0 0-.654-.166c-.303 0-.562.066-.776.199a1.247 1.247 0 0 0-.487.576c-.111.252-.17.562-.178.931 0 .37.056.684.167.942.11.251.273.443.487.576.222.133.488.2.798.2.325 0 .609-.067.853-.2s.447-.336.61-.609l1.03.421a2.654 2.654 0 0 1-1.03 1.03c-.422.229-.928.344-1.519.344zm4.5-1.695a.8.8 0 0 0 .122.443.743.743 0 0 0 .332.266c.148.059.314.088.499.088.237 0 .451-.048.643-.144a1.183 1.183 0 0 0 .665-1.086l.177.665c0 .325-.096.599-.288.82a1.74 1.74 0 0 1-.709.488 2.494 2.494 0 0 1-.865.155c-.317 0-.613-.063-.886-.188a1.557 1.557 0 0 1-.654-.554c-.162-.244-.244-.54-.244-.887 0-.495.174-.886.521-1.174.347-.296.839-.444 1.474-.444.34 0 .632.037.875.111.251.074.458.163.621.266.162.096.277.185.343.266v.609a2.4 2.4 0 0 0-.731-.354 2.97 2.97 0 0 0-.82-.111c-.251 0-.454.033-.609.1a.755.755 0 0 0-.355.255.72.72 0 0 0-.111.41zm-.377-2.183-.487-.842c.229-.141.524-.277.886-.41.37-.133.791-.2 1.264-.2.421 0 .79.063 1.108.189.325.125.58.306.764.542.185.229.277.514.277.854v3.634h-1.174v-3.402a.802.802 0 0 0-.089-.399.67.67 0 0 0-.222-.254.942.942 0 0 0-.343-.144 1.962 1.962 0 0 0-.432-.045c-.237 0-.462.03-.676.089a2.473 2.473 0 0 0-.543.199 2.752 2.752 0 0 0-.333.189zm9.041-4.876h1.208v8.643h-1.208v-8.643zm-4.221 6.095c0-.562.114-1.038.343-1.43.229-.399.532-.702.909-.908a2.478 2.478 0 0 1 1.23-.322c.428 0 .801.107 1.119.322.325.214.58.52.764.919.192.392.288.865.288 1.419 0 .546-.096 1.019-.288 1.418a2.15 2.15 0 0 1-.764.92 1.956 1.956 0 0 1-1.119.321c-.436 0-.846-.103-1.23-.31a2.42 2.42 0 0 1-.909-.92c-.229-.399-.343-.875-.343-1.429zm1.241 0c0 .339.07.631.21.875.14.244.325.428.554.554.237.126.491.188.765.188.229 0 .454-.062.676-.188.229-.126.413-.307.554-.543.147-.244.221-.539.221-.886 0-.348-.074-.639-.221-.876a1.431 1.431 0 0 0-.554-.554 1.364 1.364 0 0 0-.676-.188c-.274 0-.528.063-.765.188-.229.126-.414.31-.554.554-.14.244-.21.536-.21.876zM520.859 121.09c0-.318-.071-.595-.211-.831a1.408 1.408 0 0 0-.554-.565 1.525 1.525 0 0 0-.798-.211c-.303 0-.572.07-.809.211a1.488 1.488 0 0 0-.565.565 1.665 1.665 0 0 0-.199.831c0 .318.066.598.199.842.141.244.329.436.565.576.237.141.506.211.809.211.296 0 .562-.07.798-.211.236-.14.421-.332.554-.576a1.66 1.66 0 0 0 .211-.842zm-1.84 5.13h-1.662l2.46-3.047.199-.033c-.177.192-.361.318-.554.377a2.307 2.307 0 0 1-.675.088c-.311 0-.606-.059-.887-.177a2.325 2.325 0 0 1-.753-.51 2.565 2.565 0 0 1-.51-.809 2.682 2.682 0 0 1-.188-1.019c0-.576.125-1.067.376-1.474a2.541 2.541 0 0 1 1.031-.942 3.092 3.092 0 0 1 1.44-.332 3.1 3.1 0 0 1 1.441.332c.428.215.768.529 1.019.942.251.407.377.898.377 1.474 0 .362-.063.694-.188.997-.119.303-.274.58-.466.831l-2.46 3.302zm5.4-3.867c0 .414.04.794.122 1.142.081.347.195.646.343.897.155.251.34.447.554.587.214.133.451.2.709.2.274 0 .514-.067.72-.2.215-.14.396-.336.543-.587.156-.251.274-.55.355-.897.081-.348.122-.728.122-1.142 0-.413-.041-.794-.122-1.141a2.982 2.982 0 0 0-.355-.898 1.624 1.624 0 0 0-.543-.576 1.25 1.25 0 0 0-.72-.21c-.258 0-.495.07-.709.21a1.733 1.733 0 0 0-.554.576 3.202 3.202 0 0 0-.343.898 4.966 4.966 0 0 0-.122 1.141zm-1.286 0c0-.805.126-1.507.377-2.105.259-.598.613-1.064 1.064-1.396a2.605 2.605 0 0 1 1.573-.499c.606 0 1.134.166 1.585.499.458.332.812.798 1.064 1.396.251.598.376 1.3.376 2.105 0 .805-.125 1.507-.376 2.106-.252.598-.606 1.063-1.064 1.396-.451.332-.979.498-1.585.498a2.61 2.61 0 0 1-1.573-.498c-.451-.333-.805-.798-1.064-1.396-.251-.599-.377-1.301-.377-2.106zm6.815-2.149c0-.348.077-.662.233-.942a1.82 1.82 0 0 1 .676-.687c.288-.17.613-.255.975-.255.376 0 .705.085.986.255.288.17.51.399.665.687.162.28.243.594.243.942 0 .347-.081.664-.243.952a1.768 1.768 0 0 1-.665.676c-.281.17-.61.255-.986.255a1.882 1.882 0 0 1-1.651-.931 1.965 1.965 0 0 1-.233-.952zm1.019 0c0 .162.037.317.111.465.074.14.174.255.299.343a.85.85 0 0 0 .455.122c.184 0 .339-.04.465-.122a.954.954 0 0 0 .299-.343 1.027 1.027 0 0 0 0-.931.866.866 0 0 0-.299-.332.834.834 0 0 0-.465-.122.85.85 0 0 0-.455.122.874.874 0 0 0-.299.332.986.986 0 0 0-.111.466zm3.602 4.299c0-.355.081-.672.243-.953.163-.288.384-.513.665-.676.288-.17.617-.255.986-.255.37 0 .695.085.975.255.289.163.51.388.665.676.163.281.244.598.244.953 0 .34-.081.654-.244.942a1.742 1.742 0 0 1-.665.687c-.28.162-.605.243-.975.243-.369 0-.698-.081-.986-.243a1.89 1.89 0 0 1-.908-1.629zm1.03-.011c0 .162.033.317.1.465a.958.958 0 0 0 .299.344.876.876 0 0 0 .465.122.822.822 0 0 0 .455-.122.84.84 0 0 0 .299-.344.98.98 0 0 0 .111-.465.963.963 0 0 0-.111-.455.768.768 0 0 0-.299-.332.767.767 0 0 0-.455-.133.816.816 0 0 0-.465.133.866.866 0 0 0-.299.332c-.067.141-.1.292-.1.455zm.643-6.017h1.185l-5.374 7.756h-1.185l5.374-7.756z" fill="#303030"/><rect x="222.049" y="116.852" width="277.757" height="11.819" rx="5.91" fill="#EBEBEB"/><rect x="222" y="117" width="262" height="12" rx="6" fill="#49DDE2"/><path d="M147.52 148.385h1.418l2.626 3.701h-1.573l-2.471-3.701zm-1.596-4.055h1.308v7.756h-1.308v-7.756zm.776 1.13v-1.13h1.618c.561 0 1.049.1 1.462.299.421.2.746.48.975.842.229.355.344.776.344 1.263 0 .488-.115.913-.344 1.275a2.275 2.275 0 0 1-.975.842c-.413.199-.901.299-1.462.299H146.7v-1.075h1.562c.296 0 .554-.052.776-.155.229-.103.406-.251.532-.443.125-.2.188-.436.188-.709 0-.281-.063-.517-.188-.709a1.216 1.216 0 0 0-.532-.444 1.825 1.825 0 0 0-.776-.155H146.7zm7.931 6.737c-.517 0-.975-.111-1.374-.332a2.295 2.295 0 0 1-.909-.931c-.214-.399-.321-.864-.321-1.396 0-.539.107-1.008.321-1.407.222-.399.532-.706.931-.92.399-.222.868-.333 1.407-.333s.997.104 1.374.311c.377.207.665.506.864.897.207.384.311.85.311 1.396 0 .06-.004.122-.011.189a.693.693 0 0 1-.011.144h-4.477v-.82h3.457l-.366.51c.023-.045.045-.104.067-.178a.622.622 0 0 0 .044-.199c0-.273-.055-.51-.166-.709a1.119 1.119 0 0 0-.443-.466 1.256 1.256 0 0 0-.654-.166c-.303 0-.561.067-.776.2a1.253 1.253 0 0 0-.487.576c-.111.251-.17.561-.177.931 0 .369.055.683.166.941.111.252.273.444.487.577.222.133.488.199.798.199.325 0 .61-.066.853-.199.244-.133.447-.337.61-.61l1.03.421a2.657 2.657 0 0 1-1.03 1.031c-.421.229-.927.343-1.518.343zm3.325-5.208h2.925v1.053h-2.925v-1.053zm2.792-2.26a.543.543 0 0 0-.255-.233.71.71 0 0 0-.277-.055.478.478 0 0 0-.288.088.603.603 0 0 0-.177.288 1.695 1.695 0 0 0-.067.521v6.748h-1.174v-6.98c0-.399.063-.728.188-.987.133-.266.322-.465.565-.598.244-.14.543-.21.898-.21.199 0 .373.025.521.077.147.052.273.115.376.188.111.074.196.148.255.222l-.565.931zm3.265 7.468c-.518 0-.976-.111-1.374-.332a2.295 2.295 0 0 1-.909-.931c-.214-.399-.321-.864-.321-1.396 0-.539.107-1.008.321-1.407.222-.399.532-.706.931-.92.399-.222.868-.333 1.407-.333s.997.104 1.374.311c.377.207.665.506.864.897.207.384.31.85.31 1.396 0 .06-.003.122-.011.189a.629.629 0 0 1-.011.144h-4.476v-.82h3.457l-.366.51c.022-.045.045-.104.067-.178a.622.622 0 0 0 .044-.199c0-.273-.055-.51-.166-.709a1.125 1.125 0 0 0-.443-.466 1.256 1.256 0 0 0-.654-.166c-.303 0-.562.067-.776.2a1.247 1.247 0 0 0-.487.576c-.111.251-.17.561-.178.931 0 .369.056.683.167.941.11.252.273.444.487.577.222.133.488.199.798.199.325 0 .609-.066.853-.199s.447-.337.61-.61l1.03.421a2.657 2.657 0 0 1-1.03 1.031c-.421.229-.928.343-1.518.343zm4.931-5.208v5.097h-1.185v-5.097h1.185zm1.518 1.275a1.499 1.499 0 0 0-.31-.2.88.88 0 0 0-.365-.066.74.74 0 0 0-.488.155.889.889 0 0 0-.277.432 2.26 2.26 0 0 0-.078.632l-.399-.233c0-.406.074-.765.222-1.075.155-.318.351-.569.587-.753.244-.185.495-.278.754-.278.185 0 .358.03.521.089a.845.845 0 0 1 .41.288l-.577 1.009zm2.584-1.275v5.097h-1.186v-5.097h1.186zm1.518 1.275a1.53 1.53 0 0 0-.311-.2.88.88 0 0 0-.365-.066.74.74 0 0 0-.488.155.896.896 0 0 0-.277.432 2.262 2.262 0 0 0-.077.632l-.399-.233c0-.406.074-.765.221-1.075.155-.318.351-.569.588-.753.243-.185.494-.278.753-.278.185 0 .358.03.521.089a.845.845 0 0 1 .41.288l-.576 1.009zm2.151 2.238c0 .17.04.318.121.443a.751.751 0 0 0 .333.266c.148.059.314.089.499.089.236 0 .45-.048.642-.144.2-.096.358-.237.477-.421.125-.192.188-.414.188-.665l.177.665c0 .325-.096.598-.288.82a1.741 1.741 0 0 1-.709.487 2.47 2.47 0 0 1-.864.155 2.11 2.11 0 0 1-.887-.188 1.541 1.541 0 0 1-.653-.554c-.163-.244-.244-.539-.244-.887 0-.495.173-.886.521-1.174.347-.296.838-.443 1.473-.443.34 0 .632.037.876.11.251.074.458.163.62.266.163.096.277.185.344.266v.61a2.385 2.385 0 0 0-.732-.355 2.964 2.964 0 0 0-.82-.111c-.251 0-.454.034-.609.1a.765.765 0 0 0-.355.255.721.721 0 0 0-.11.41zm-.377-2.183-.488-.842c.229-.141.525-.277.887-.41.369-.133.79-.2 1.263-.2.421 0 .79.063 1.108.189.325.125.58.306.765.543.184.229.277.513.277.853v3.634h-1.175v-3.401a.796.796 0 0 0-.089-.399.656.656 0 0 0-.221-.255.947.947 0 0 0-.344-.144 1.964 1.964 0 0 0-.432-.044c-.236 0-.462.029-.676.088a2.423 2.423 0 0 0-.543.2 2.614 2.614 0 0 0-.332.188zm5.207-4.876h1.196v8.643h-1.196v-8.643zm2.959 6.97c.163.178.325.333.488.466.17.125.34.221.51.288.169.059.339.088.509.088.215 0 .381-.048.499-.144a.475.475 0 0 0 .188-.399.532.532 0 0 0-.144-.376 1.093 1.093 0 0 0-.399-.277 5.97 5.97 0 0 0-.598-.244 7.167 7.167 0 0 1-.687-.31 1.76 1.76 0 0 1-.554-.488c-.14-.199-.211-.451-.211-.753 0-.311.078-.569.233-.776.163-.207.377-.358.643-.454.273-.104.565-.156.875-.156.281 0 .543.041.787.122.251.082.476.189.676.322.199.133.369.284.51.454l-.665.709a2.057 2.057 0 0 0-.61-.487 1.534 1.534 0 0 0-.731-.189c-.17 0-.31.037-.421.111a.362.362 0 0 0-.166.321c0 .119.048.226.144.322.103.088.236.17.399.244.169.073.358.151.565.232.28.111.539.233.775.366.237.133.425.295.565.487.148.193.222.444.222.754 0 .48-.166.868-.499 1.163-.325.289-.768.433-1.329.433-.347 0-.669-.052-.964-.156a3.026 3.026 0 0 1-.765-.421 3.487 3.487 0 0 1-.543-.554l.698-.698zM516.77 147.68c0-.399.103-.746.31-1.041.207-.303.484-.54.831-.71a2.71 2.71 0 0 1 1.186-.255c.436 0 .827.085 1.174.255.355.17.636.407.842.71.215.295.322.642.322 1.041a1.9 1.9 0 0 1-.189.864 1.878 1.878 0 0 1-.509.621c-.214.17-.462.299-.743.388a2.98 2.98 0 0 1-.897.133c-.318 0-.617-.045-.898-.133a2.302 2.302 0 0 1-.742-.388 1.894 1.894 0 0 1-.51-.621 2.009 2.009 0 0 1-.177-.864zm1.241.133c0 .222.048.414.144.576.103.163.236.292.399.388.162.089.343.133.543.133a1.055 1.055 0 0 0 .942-.521 1.11 1.11 0 0 0 .144-.576 1.15 1.15 0 0 0-.144-.576.917.917 0 0 0-.377-.388 1.092 1.092 0 0 0-.565-.144c-.207 0-.395.048-.565.144a.978.978 0 0 0-.388.388c-.089.17-.133.362-.133.576zm-1.518 3.646a2.1 2.1 0 0 1 .221-.987 2.04 2.04 0 0 1 .599-.698c.251-.192.532-.332.842-.421.31-.088.624-.133.942-.133.317 0 .631.045.942.133.31.089.591.229.842.421.251.185.45.418.598.698.155.281.233.61.233.987 0 .325-.07.624-.211.897a2.24 2.24 0 0 1-.565.709 2.59 2.59 0 0 1-.831.466 2.97 2.97 0 0 1-1.008.166c-.362 0-.702-.055-1.02-.166a2.773 2.773 0 0 1-.831-.466 2.319 2.319 0 0 1-.554-.709 2.02 2.02 0 0 1-.199-.897zm1.285-.178c0 .281.059.521.177.721.126.192.289.339.488.443.207.103.425.155.654.155.229 0 .443-.052.642-.155.207-.104.374-.251.499-.443.126-.2.188-.44.188-.721 0-.243-.062-.465-.188-.665a1.312 1.312 0 0 0-.499-.465 1.237 1.237 0 0 0-.642-.177c-.229 0-.447.059-.654.177a1.35 1.35 0 0 0-.488.465c-.118.2-.177.422-.177.665zm10.683-.243c0 .45-.077.842-.232 1.174-.155.333-.37.61-.643.831a2.956 2.956 0 0 1-.931.488c-.34.103-.698.155-1.075.155-.472 0-.89-.063-1.252-.189a3.243 3.243 0 0 1-.942-.498 4.735 4.735 0 0 1-.698-.687l.765-.942c.155.199.336.384.543.554.214.163.443.296.687.399.244.096.487.144.731.144.355 0 .654-.059.898-.177.243-.119.428-.292.554-.521.133-.229.199-.499.199-.809 0-.318-.074-.587-.221-.809a1.448 1.448 0 0 0-.599-.51 1.929 1.929 0 0 0-.831-.177c-.221 0-.443.019-.665.056a2.916 2.916 0 0 0-.664.177 4.844 4.844 0 0 0-.732.377l1.053-4.267h3.978v1.153h-2.992l-.488 1.773c.193-.096.392-.166.599-.211.207-.044.417-.066.631-.066.429 0 .82.107 1.175.321.355.214.635.514.842.898.207.384.31.838.31 1.363zm.773-3.502c0-.347.077-.661.232-.942.163-.288.388-.517.676-.687.288-.17.613-.255.975-.255.377 0 .706.085.987.255.288.17.509.399.664.687.163.281.244.595.244.942s-.081.665-.244.953a1.766 1.766 0 0 1-.664.676 1.87 1.87 0 0 1-.987.255 1.882 1.882 0 0 1-1.651-.931 1.98 1.98 0 0 1-.232-.953zm1.019 0c0 .163.037.318.111.465a.967.967 0 0 0 .299.344.857.857 0 0 0 .454.122c.185 0 .34-.041.466-.122a.967.967 0 0 0 .299-.344 1.02 1.02 0 0 0 .111-.465.98.98 0 0 0-.111-.465.877.877 0 0 0-.299-.333.844.844 0 0 0-.466-.122.857.857 0 0 0-.454.122.877.877 0 0 0-.299.333.98.98 0 0 0-.111.465zm3.601 4.299c0-.354.082-.672.244-.953.163-.288.384-.513.665-.675.288-.17.617-.255.986-.255.37 0 .695.085.975.255.288.162.51.387.665.675.163.281.244.599.244.953 0 .34-.081.654-.244.942a1.749 1.749 0 0 1-.665.687c-.28.163-.605.244-.975.244-.369 0-.698-.081-.986-.244a1.89 1.89 0 0 1-.909-1.629zm1.031-.011c0 .163.033.318.1.466.074.14.173.255.299.343a.876.876 0 0 0 .465.122.824.824 0 0 0 .455-.122.845.845 0 0 0 .299-.343.986.986 0 0 0 .11-.466.958.958 0 0 0-.11-.454.774.774 0 0 0-.299-.332.769.769 0 0 0-.455-.133.816.816 0 0 0-.465.133.866.866 0 0 0-.299.332c-.067.14-.1.292-.1.454zm.643-6.017h1.185l-5.374 7.757h-1.186l5.375-7.757z" fill="#303030"/><rect x="222.049" y="144.185" width="277.757" height="11.819" rx="5.91" fill="#EBEBEB"/><rect x="222" y="144" width="245" height="12" rx="6" fill="#FFB545"/><path d="M145.924 171.662h1.308v7.757h-1.308v-7.757zm.776 1.153v-1.153h1.562c.562 0 1.049.1 1.463.3.421.192.746.469.975.831.229.354.344.779.344 1.274s-.115.923-.344 1.285a2.269 2.269 0 0 1-.975.842c-.414.193-.901.289-1.463.289H146.7v-1.153h1.562c.451 0 .813-.107 1.086-.321.274-.214.41-.528.41-.942 0-.414-.136-.724-.41-.931-.273-.214-.635-.321-1.086-.321H146.7zm6.544 4.609c0 .362.078.643.233.843.155.199.391.299.709.299.229 0 .428-.045.598-.133.17-.096.303-.229.399-.399.096-.177.144-.381.144-.61v-3.102h1.197v5.097h-1.197v-.787a1.743 1.743 0 0 1-.631.676c-.251.148-.554.222-.909.222-.569 0-1.008-.178-1.319-.532-.302-.355-.454-.835-.454-1.441v-3.235h1.23v3.102zm5.994-3.102v5.097h-1.186v-5.097h1.186zm1.518 1.274a1.517 1.517 0 0 0-.31-.199.864.864 0 0 0-.366-.067.742.742 0 0 0-.487.155.898.898 0 0 0-.277.432 2.265 2.265 0 0 0-.078.632l-.399-.233c0-.406.074-.764.222-1.074.155-.318.351-.569.587-.754.244-.185.495-.277.753-.277.185 0 .359.03.521.089a.828.828 0 0 1 .41.288l-.576 1.008zm2.033 1.274c0 .325.07.61.21.854.141.236.329.424.566.565.243.14.513.21.809.21.243 0 .476-.037.698-.111.221-.073.417-.177.587-.31.17-.133.295-.281.377-.443v1.319a1.86 1.86 0 0 1-.721.421 3.08 3.08 0 0 1-.997.155c-.524 0-.997-.111-1.418-.333a2.617 2.617 0 0 1-.986-.942 2.697 2.697 0 0 1-.355-1.385c0-.524.118-.986.355-1.385.243-.399.572-.709.986-.93a2.92 2.92 0 0 1 1.418-.344c.362 0 .694.052.997.155.303.104.543.244.721.421v1.319a1.16 1.16 0 0 0-.388-.443 1.949 1.949 0 0 0-.587-.311 2.157 2.157 0 0 0-.687-.11c-.296 0-.566.07-.809.21-.237.14-.425.332-.566.576-.14.244-.21.525-.21.842zm5.766-6.094v8.643h-1.197v-8.643h1.197zm2.083 5.54c0-.376-.077-.661-.232-.853-.148-.192-.388-.288-.721-.288-.221 0-.417.048-.587.144-.17.096-.303.229-.399.399-.096.17-.144.369-.144.598h-.288c0-.406.074-.768.222-1.086.147-.317.354-.572.62-.764.273-.192.602-.288.986-.288.377 0 .695.074.953.221.266.148.466.37.599.665.133.288.199.65.199 1.086v3.269h-1.208v-3.103zm3.48 1.518c0 .17.04.318.121.444a.752.752 0 0 0 .333.266c.148.059.314.088.498.088.237 0 .451-.048.643-.144.2-.096.358-.236.477-.421.125-.192.188-.414.188-.665l.177.665c0 .325-.096.598-.288.82a1.75 1.75 0 0 1-.709.488 2.493 2.493 0 0 1-.864.155c-.318 0-.613-.063-.887-.189a1.543 1.543 0 0 1-.654-.554c-.162-.243-.243-.539-.243-.886 0-.495.173-.887.521-1.175.347-.295.838-.443 1.473-.443.34 0 .632.037.876.111.251.074.458.162.62.266.163.096.277.185.344.266v.609a2.405 2.405 0 0 0-.732-.354 2.964 2.964 0 0 0-.82-.111c-.251 0-.454.033-.609.1a.77.77 0 0 0-.355.254.723.723 0 0 0-.11.41zm-.377-2.182-.488-.843a5.09 5.09 0 0 1 .887-.41c.369-.133.79-.199 1.263-.199.421 0 .79.063 1.108.188.325.126.58.307.765.543.184.229.277.514.277.853v3.635h-1.175v-3.402a.802.802 0 0 0-.089-.399.67.67 0 0 0-.221-.255.983.983 0 0 0-.344-.144 2.026 2.026 0 0 0-.432-.044c-.236 0-.462.03-.676.089a2.423 2.423 0 0 0-.543.199 2.724 2.724 0 0 0-.332.189zm5.439 2.094c.163.177.325.332.488.465.17.126.34.222.51.288.17.059.339.089.509.089.215 0 .381-.048.499-.144a.473.473 0 0 0 .188-.399.535.535 0 0 0-.144-.377 1.093 1.093 0 0 0-.399-.277 6.486 6.486 0 0 0-.598-.244 6.929 6.929 0 0 1-.687-.31 1.756 1.756 0 0 1-.554-.487c-.14-.2-.211-.451-.211-.754 0-.31.078-.569.233-.776.163-.206.377-.358.643-.454a2.46 2.46 0 0 1 .875-.155c.281 0 .543.041.787.122.251.081.476.188.676.321.199.133.369.285.51.455l-.665.709a2.06 2.06 0 0 0-.61-.488 1.545 1.545 0 0 0-.731-.188c-.17 0-.31.037-.421.111a.36.36 0 0 0-.166.321c0 .118.048.225.144.321.103.089.236.17.399.244.17.074.358.151.565.233.28.111.539.232.775.365.237.133.425.296.566.488.147.192.221.443.221.753 0 .481-.166.868-.498 1.164-.326.288-.769.432-1.33.432-.347 0-.669-.052-.964-.155a3.057 3.057 0 0 1-.765-.421 3.487 3.487 0 0 1-.543-.554l.698-.698zm6.68 1.784c-.517 0-.975-.111-1.374-.333a2.297 2.297 0 0 1-.908-.93c-.215-.399-.322-.865-.322-1.397 0-.539.107-1.008.322-1.407.221-.399.531-.705.93-.92.399-.221.868-.332 1.408-.332.539 0 .997.103 1.374.31.376.207.664.506.864.898.207.384.31.849.31 1.396 0 .059-.004.122-.011.188a.68.68 0 0 1-.011.144h-4.477v-.82h3.458l-.366.51c.022-.044.044-.103.066-.177a.606.606 0 0 0 .045-.2c0-.273-.056-.509-.167-.709a1.122 1.122 0 0 0-.443-.465 1.242 1.242 0 0 0-.654-.166c-.302 0-.561.066-.775.199a1.255 1.255 0 0 0-.488.576c-.111.251-.17.562-.177.931 0 .369.055.683.166.942.111.251.273.443.488.576.221.133.487.2.798.2.325 0 .609-.067.853-.2s.447-.336.609-.609l1.031.421c-.266.458-.61.801-1.031 1.03-.421.229-.927.344-1.518.344zm7.58-8.754h1.208v8.643h-1.208v-8.643zm-4.221 6.094c0-.561.114-1.038.343-1.429.229-.399.532-.702.909-.909a2.487 2.487 0 0 1 1.23-.321c.428 0 .801.107 1.119.321.325.215.58.521.764.92.192.392.288.864.288 1.418 0 .547-.096 1.02-.288 1.419a2.14 2.14 0 0 1-.764.919 1.95 1.95 0 0 1-1.119.322c-.436 0-.846-.104-1.23-.311a2.41 2.41 0 0 1-.909-.919c-.229-.399-.343-.876-.343-1.43zm1.241 0c0 .34.07.632.21.876.14.244.325.428.554.554.237.125.491.188.765.188.229 0 .454-.063.676-.188.229-.126.413-.307.554-.543.147-.244.221-.539.221-.887 0-.347-.074-.639-.221-.875a1.431 1.431 0 0 0-.554-.554 1.353 1.353 0 0 0-.676-.188c-.274 0-.528.062-.765.188-.229.126-.414.31-.554.554a1.73 1.73 0 0 0-.21.875zM516.227 174.37v-1.23h5.784l-3.723 7.756h-1.396l3.18-6.526h-3.845zm11.985 4c0 .45-.077.842-.232 1.174-.155.333-.37.61-.643.831a2.925 2.925 0 0 1-.931.488 3.68 3.68 0 0 1-1.074.155c-.473 0-.891-.063-1.253-.188a3.25 3.25 0 0 1-.941-.499 4.743 4.743 0 0 1-.699-.687l.765-.942c.155.2.336.384.543.554.214.163.443.296.687.399.244.096.488.144.731.144.355 0 .654-.059.898-.177s.428-.292.554-.521a1.58 1.58 0 0 0 .199-.809c0-.317-.074-.587-.221-.809a1.44 1.44 0 0 0-.599-.509 1.915 1.915 0 0 0-.831-.178c-.221 0-.443.019-.665.056a2.916 2.916 0 0 0-.664.177 4.938 4.938 0 0 0-.732.377l1.053-4.266h3.978v1.152h-2.992l-.487 1.773c.192-.096.391-.166.598-.21.207-.045.417-.067.632-.067.428 0 .82.107 1.174.321.355.215.635.514.842.898.207.384.31.838.31 1.363zm.773-3.502a1.824 1.824 0 0 1 .908-1.629c.289-.169.614-.254.976-.254.376 0 .705.085.986.254.288.17.509.399.665.687.162.281.243.595.243.942 0 .348-.081.665-.243.953a1.775 1.775 0 0 1-.665.676c-.281.17-.61.255-.986.255-.362 0-.687-.085-.976-.255a1.846 1.846 0 0 1-.675-.676 1.966 1.966 0 0 1-.233-.953zm1.019 0c0 .163.037.318.111.466.074.14.174.255.299.343a.858.858 0 0 0 .455.122.843.843 0 0 0 .465-.122.954.954 0 0 0 .299-.343 1.028 1.028 0 0 0 0-.931.866.866 0 0 0-.299-.332.834.834 0 0 0-.465-.122.85.85 0 0 0-.455.122.874.874 0 0 0-.299.332.98.98 0 0 0-.111.465zm3.602 4.3c0-.355.081-.673.243-.953a1.77 1.77 0 0 1 .665-.676c.288-.17.617-.255.986-.255.37 0 .695.085.975.255.289.162.51.388.665.676.163.28.244.598.244.953 0 .339-.081.653-.244.942a1.742 1.742 0 0 1-.665.687c-.28.162-.605.243-.975.243-.369 0-.698-.081-.986-.243a1.894 1.894 0 0 1-.908-1.629zm1.03-.011c0 .162.033.317.1.465.074.14.173.255.299.343a.867.867 0 0 0 .465.122c.178 0 .329-.04.455-.122a.838.838 0 0 0 .299-.343.982.982 0 0 0 .111-.465.963.963 0 0 0-.111-.455.768.768 0 0 0-.299-.332.767.767 0 0 0-.455-.133.816.816 0 0 0-.465.133.866.866 0 0 0-.299.332c-.067.141-.1.292-.1.455zm.643-6.017h1.185l-5.374 7.756h-1.185l5.374-7.756z" fill="#303030"/><rect x="222.049" y="171.517" width="277.757" height="11.819" rx="5.91" fill="#EBEBEB"/><rect x="222" y="172" width="225" height="11" rx="5.5" fill="url(#m)"/><path d="M147.52 203.05h1.418l2.626 3.701h-1.573l-2.471-3.701zm-1.596-4.055h1.308v7.756h-1.308v-7.756zm.776 1.13v-1.13h1.618c.561 0 1.049.099 1.462.299.421.199.746.48.975.842.229.355.344.776.344 1.263 0 .488-.115.913-.344 1.275a2.282 2.282 0 0 1-.975.842c-.413.199-.901.299-1.462.299H146.7v-1.075h1.562c.296 0 .554-.052.776-.155a1.22 1.22 0 0 0 .532-.443c.125-.2.188-.436.188-.71 0-.28-.063-.517-.188-.709a1.22 1.22 0 0 0-.532-.443 1.825 1.825 0 0 0-.776-.155H146.7zm7.931 6.737c-.517 0-.975-.111-1.374-.332a2.295 2.295 0 0 1-.909-.931c-.214-.399-.321-.864-.321-1.396 0-.54.107-1.009.321-1.408.222-.398.532-.705.931-.919.399-.222.868-.333 1.407-.333s.997.104 1.374.311c.377.206.665.506.864.897.207.384.311.85.311 1.396 0 .059-.004.122-.011.189a.693.693 0 0 1-.011.144h-4.477v-.82h3.457l-.366.509c.023-.044.045-.103.067-.177a.627.627 0 0 0 .044-.199c0-.274-.055-.51-.166-.709a1.119 1.119 0 0 0-.443-.466 1.247 1.247 0 0 0-.654-.166c-.303 0-.561.066-.776.199a1.25 1.25 0 0 0-.487.577c-.111.251-.17.561-.177.93 0 .37.055.684.166.942.111.251.273.443.487.576.222.133.488.2.798.2.325 0 .61-.067.853-.2.244-.133.447-.336.61-.609l1.03.421a2.657 2.657 0 0 1-1.03 1.031c-.421.229-.927.343-1.518.343zm2.808-5.208h1.307l1.33 3.291 1.33-3.291h1.318l-2.648 5.563-2.637-5.563zm5.99-2.028c0-.207.074-.38.222-.52a.767.767 0 0 1 .532-.211.72.72 0 0 1 .532.211.69.69 0 0 1 .221.52c0 .2-.074.373-.221.521a.724.724 0 0 1-.532.211.772.772 0 0 1-.532-.211.712.712 0 0 1-.222-.521zm.167 2.028h1.174v5.097h-1.174v-5.097zm5.037 5.208c-.517 0-.975-.111-1.374-.332a2.308 2.308 0 0 1-.909-.931c-.214-.399-.321-.864-.321-1.396 0-.54.107-1.009.321-1.408.222-.398.532-.705.931-.919.399-.222.868-.333 1.407-.333.54 0 .998.104 1.374.311.377.206.665.506.865.897.207.384.31.85.31 1.396 0 .059-.004.122-.011.189a.693.693 0 0 1-.011.144h-4.477v-.82h3.457l-.365.509c.022-.044.044-.103.066-.177a.606.606 0 0 0 .045-.199c0-.274-.056-.51-.167-.709a1.119 1.119 0 0 0-.443-.466 1.244 1.244 0 0 0-.654-.166c-.302 0-.561.066-.775.199a1.253 1.253 0 0 0-.488.577c-.111.251-.17.561-.177.93 0 .37.055.684.166.942.111.251.273.443.488.576.221.133.487.2.797.2.326 0 .61-.067.854-.2a1.61 1.61 0 0 0 .609-.609l1.031.421c-.266.458-.61.802-1.031 1.031-.421.229-.927.343-1.518.343zm2.819-5.208h1.297l1.197 3.036 1.407-3.424 1.496 3.435 1.196-3.047h1.297l-2.382 5.463-1.596-3.446-1.529 3.446-2.383-5.463zm8.886 3.424c.163.177.325.332.488.465.17.126.34.222.509.289.17.059.34.088.51.088.214 0 .381-.048.499-.144a.475.475 0 0 0 .188-.399.535.535 0 0 0-.144-.377 1.105 1.105 0 0 0-.399-.277 6.232 6.232 0 0 0-.598-.243 6.94 6.94 0 0 1-.687-.311 1.756 1.756 0 0 1-.554-.487c-.141-.2-.211-.451-.211-.754 0-.31.078-.568.233-.775.163-.207.377-.359.643-.455a2.46 2.46 0 0 1 .875-.155c.281 0 .543.041.787.122.251.081.476.189.676.322.199.132.369.284.509.454l-.664.709a2.076 2.076 0 0 0-.61-.488 1.545 1.545 0 0 0-.731-.188c-.17 0-.31.037-.421.111a.362.362 0 0 0-.166.321c0 .118.048.226.144.322.103.088.236.169.398.243.17.074.359.152.566.233.28.111.539.233.775.366.237.133.425.295.565.487.148.192.222.443.222.754 0 .48-.166.868-.499 1.163-.325.288-.768.432-1.329.432a2.88 2.88 0 0 1-.964-.155 3.057 3.057 0 0 1-.765-.421 3.487 3.487 0 0 1-.543-.554l.698-.698zM516.726 202.289v-1.241l3.091-.698v7.879h-1.296v-6.438l-1.795.498zm6.145 2.062c0 .413.041.794.122 1.141.081.347.196.646.344.897.155.252.339.447.554.588.214.133.45.199.709.199.273 0 .513-.066.72-.199.214-.141.395-.336.543-.588.155-.251.273-.55.355-.897.081-.347.122-.728.122-1.141 0-.414-.041-.795-.122-1.142a3.018 3.018 0 0 0-.355-.897 1.636 1.636 0 0 0-.543-.577 1.254 1.254 0 0 0-.72-.21c-.259 0-.495.07-.709.21a1.718 1.718 0 0 0-.554.577c-.148.251-.263.55-.344.897a5.025 5.025 0 0 0-.122 1.142zm-1.285 0c0-.806.125-1.507.377-2.106.258-.598.613-1.064 1.063-1.396a2.615 2.615 0 0 1 1.574-.499c.606 0 1.134.167 1.584.499.458.332.813.798 1.064 1.396.251.599.377 1.3.377 2.106 0 .805-.126 1.506-.377 2.105-.251.598-.606 1.064-1.064 1.396-.45.332-.978.499-1.584.499a2.615 2.615 0 0 1-1.574-.499c-.45-.332-.805-.798-1.063-1.396-.252-.599-.377-1.3-.377-2.105zm8.211 0c0 .413.04.794.122 1.141.081.347.195.646.343.897.155.252.34.447.554.588.214.133.451.199.709.199.274 0 .514-.066.721-.199.214-.141.395-.336.542-.588.156-.251.274-.55.355-.897.081-.347.122-.728.122-1.141 0-.414-.041-.795-.122-1.142a2.966 2.966 0 0 0-.355-.897 1.625 1.625 0 0 0-.542-.577 1.255 1.255 0 0 0-.721-.21c-.258 0-.495.07-.709.21a1.727 1.727 0 0 0-.554.577c-.148.251-.262.55-.343.897a4.97 4.97 0 0 0-.122 1.142zm-1.286 0c0-.806.126-1.507.377-2.106.259-.598.613-1.064 1.064-1.396a2.612 2.612 0 0 1 1.573-.499c.606 0 1.134.167 1.585.499.458.332.812.798 1.064 1.396.251.599.376 1.3.376 2.106 0 .805-.125 1.506-.376 2.105-.252.598-.606 1.064-1.064 1.396-.451.332-.979.499-1.585.499a2.612 2.612 0 0 1-1.573-.499c-.451-.332-.805-.798-1.064-1.396-.251-.599-.377-1.3-.377-2.105zm6.815-2.15c0-.347.078-.661.233-.942a1.82 1.82 0 0 1 .676-.687c.288-.17.613-.255.975-.255.376 0 .705.085.986.255.288.17.51.399.665.687.162.281.243.595.243.942s-.081.665-.243.953a1.768 1.768 0 0 1-.665.676c-.281.17-.61.255-.986.255a1.882 1.882 0 0 1-1.651-.931 1.98 1.98 0 0 1-.233-.953zm1.019 0c0 .162.037.317.111.465a.967.967 0 0 0 .299.344.858.858 0 0 0 .455.122.843.843 0 0 0 .465-.122.958.958 0 0 0 .299-.344 1.027 1.027 0 0 0 0-.931.866.866 0 0 0-.299-.332.843.843 0 0 0-.465-.122.858.858 0 0 0-.455.122.874.874 0 0 0-.299.332.986.986 0 0 0-.111.466zm3.602 4.299c0-.354.081-.672.243-.953.163-.288.385-.513.665-.676.288-.17.617-.255.986-.255.37 0 .695.085.976.255.288.163.509.388.664.676.163.281.244.599.244.953 0 .34-.081.654-.244.942a1.746 1.746 0 0 1-.664.687 1.909 1.909 0 0 1-.976.244c-.369 0-.698-.081-.986-.244a1.89 1.89 0 0 1-.908-1.629zm1.03-.011c0 .163.033.318.1.465a.958.958 0 0 0 .299.344.876.876 0 0 0 .465.122.822.822 0 0 0 .455-.122.84.84 0 0 0 .299-.344.98.98 0 0 0 .111-.465.959.959 0 0 0-.111-.454.77.77 0 0 0-.299-.333.774.774 0 0 0-.455-.133.824.824 0 0 0-.465.133.87.87 0 0 0-.299.333c-.067.14-.1.292-.1.454zm.643-6.017h1.185l-5.374 7.757h-1.185l5.374-7.757z" fill="#303030"/><rect x="222.049" y="198.85" width="277.757" height="11.819" rx="5.91" fill="#EBEBEB"/><rect x="222" y="199" width="278" height="12" rx="6" fill="#FF6F89"/><defs><linearGradient id="e" x1="564.227" y1="314.439" x2="414.35" y2="297.405" gradientUnits="userSpaceOnUse"><stop stop-color="#F4F4F4"/><stop offset=".422" stop-color="#F4F4F4"/><stop offset="1" stop-color="#fff"/></linearGradient><linearGradient id="m" x1="440.521" y1="183" x2="422.666" y2="118.25" gradientUnits="userSpaceOnUse"><stop stop-color="#4563FF"/><stop offset="1" stop-color="#58AFFF"/></linearGradient><linearGradient id="l" x1="527.535" y1="126.316" x2="169.661" y2="22.192" gradientUnits="userSpaceOnUse"><stop stop-color="#F4F4F4"/><stop offset=".422" stop-color="#F4F4F4"/><stop offset="1" stop-color="#fff"/></linearGradient><linearGradient id="j" x1="263.417" y1="326.278" x2="268.958" y2="454.814" gradientUnits="userSpaceOnUse"><stop stop-color="#539CFF"/><stop offset="1" stop-color="#fff" stop-opacity="0"/></linearGradient><linearGradient id="i" x1="371.961" y1="316.877" x2="142.436" y2="275.786" gradientUnits="userSpaceOnUse"><stop stop-color="#F4F4F4"/><stop offset=".422" stop-color="#F4F4F4"/><stop offset="1" stop-color="#fff"/></linearGradient><linearGradient id="c" x1="531.012" y1="468.584" x2="306.262" y2="279.302" gradientUnits="userSpaceOnUse"><stop stop-color="#F4F4F4"/><stop offset=".422" stop-color="#F4F4F4"/><stop offset="1" stop-color="#fff"/></linearGradient><linearGradient id="g" x1="572.938" y1="261.76" x2="542.424" y2="433.874" gradientUnits="userSpaceOnUse"><stop stop-color="#4563FF"/><stop offset="1" stop-color="#58AFFF"/></linearGradient><linearGradient id="f" x1="572.938" y1="261.76" x2="542.424" y2="433.874" gradientUnits="userSpaceOnUse"><stop stop-color="#4563FF"/><stop offset="1" stop-color="#58AFFF"/></linearGradient><filter id="b" x="111.565" y="427.006" width="479.214" height="110.035" filterUnits="userSpaceOnUse" color-interpolation-filters="sRGB"><feFlood flood-opacity="0" result="BackgroundImageFix"/><feGaussianBlur in="BackgroundImageFix" stdDeviation="7.918"/><feComposite in2="SourceAlpha" operator="in" result="effect1_backgroundBlur_92_215"/><feColorMatrix in="SourceAlpha" values="0 0 0 0 0 0 0 0 0 0 0 0 0 0 0 0 0 0 127 0" result="hardAlpha"/><feOffset dy="10.342"/><feGaussianBlur stdDeviation="10.342"/><feComposite in2="hardAlpha" operator="out"/><feColorMatrix values="0 0 0 0 0.804167 0 0 0 0 0.804167 0 0 0 0 0.804167 0 0 0 0.25 0"/><feBlend in2="effect1_backgroundBlur_92_215" result="effect2_dropShadow_92_215"/><feBlend in="SourceGraphic" in2="effect2_dropShadow_92_215" result="shape"/><feColorMatrix in="SourceAlpha" values="0 0 0 0 0 0 0 0 0 0 0 0 0 0 0 0 0 0 127 0" result="hardAlpha"/><feOffset dx="-1.9" dy="1.9"/><feComposite in2="hardAlpha" operator="arithmetic" k2="-1" k3="1"/><feColorMatrix values="0 0 0 0 1 0 0 0 0 1 0 0 0 0 1 0 0 0 1 0"/><feBlend in2="shape" result="effect3_innerShadow_92_215"/></filter><filter id="k" x="104.035" y="43.365" width="484.674" height="223.485" filterUnits="userSpaceOnUse" color-interpolation-filters="sRGB"><feFlood flood-opacity="0" result="BackgroundImageFix"/><feGaussianBlur in="BackgroundImageFix" stdDeviation="7.918"/><feComposite in2="SourceAlpha" operator="in" result="effect1_backgroundBlur_92_215"/><feColorMatrix in="SourceAlpha" values="0 0 0 0 0 0 0 0 0 0 0 0 0 0 0 0 0 0 127 0" result="hardAlpha"/><feOffset dy="10.342"/><feGaussianBlur stdDeviation="10.342"/><feComposite in2="hardAlpha" operator="out"/><feColorMatrix values="0 0 0 0 0.804167 0 0 0 0 0.804167 0 0 0 0 0.804167 0 0 0 0.25 0"/><feBlend in2="effect1_backgroundBlur_92_215" result="effect2_dropShadow_92_215"/><feBlend in="SourceGraphic" in2="effect2_dropShadow_92_215" result="shape"/><feColorMatrix in="SourceAlpha" values="0 0 0 0 0 0 0 0 0 0 0 0 0 0 0 0 0 0 127 0" result="hardAlpha"/><feOffset dx="-1.9" dy="1.9"/><feComposite in2="hardAlpha" operator="arithmetic" k2="-1" k3="1"/><feColorMatrix values="0 0 0 0 1 0 0 0 0 1 0 0 0 0 1 0 0 0 1 0"/><feBlend in2="shape" result="effect3_innerShadow_92_215"/></filter><filter id="h" x="105.527" y="236.133" width="312.403" height="220.377" filterUnits="userSpaceOnUse" color-interpolation-filters="sRGB"><feFlood flood-opacity="0" result="BackgroundImageFix"/><feGaussianBlur in="BackgroundImageFix" stdDeviation="7.918"/><feComposite in2="SourceAlpha" operator="in" result="effect1_backgroundBlur_92_215"/><feColorMatrix in="SourceAlpha" values="0 0 0 0 0 0 0 0 0 0 0 0 0 0 0 0 0 0 127 0" result="hardAlpha"/><feOffset dy="10.342"/><feGaussianBlur stdDeviation="10.342"/><feComposite in2="hardAlpha" operator="out"/><feColorMatrix values="0 0 0 0 0.804167 0 0 0 0 0.804167 0 0 0 0 0.804167 0 0 0 0.25 0"/><feBlend in2="effect1_backgroundBlur_92_215" result="effect2_dropShadow_92_215"/><feBlend in="SourceGraphic" in2="effect2_dropShadow_92_215" result="shape"/><feColorMatrix in="SourceAlpha" values="0 0 0 0 0 0 0 0 0 0 0 0 0 0 0 0 0 0 127 0" result="hardAlpha"/><feOffset dx="-1.9" dy="1.9"/><feComposite in2="hardAlpha" operator="arithmetic" k2="-1" k3="1"/><feColorMatrix values="0 0 0 0 1 0 0 0 0 1 0 0 0 0 1 0 0 0 1 0"/><feBlend in2="shape" result="effect3_innerShadow_92_215"/></filter><filter id="d" x="386.774" y="234.714" width="214.232" height="219.727" filterUnits="userSpaceOnUse" color-interpolation-filters="sRGB"><feFlood flood-opacity="0" result="BackgroundImageFix"/><feGaussianBlur in="BackgroundImageFix" stdDeviation="7.918"/><feComposite in2="SourceAlpha" operator="in" result="effect1_backgroundBlur_92_215"/><feColorMatrix in="SourceAlpha" values="0 0 0 0 0 0 0 0 0 0 0 0 0 0 0 0 0 0 127 0" result="hardAlpha"/><feOffset dy="10.342"/><feGaussianBlur stdDeviation="10.342"/><feComposite in2="hardAlpha" operator="out"/><feColorMatrix values="0 0 0 0 0.804167 0 0 0 0 0.804167 0 0 0 0 0.804167 0 0 0 0.25 0"/><feBlend in2="effect1_backgroundBlur_92_215" result="effect2_dropShadow_92_215"/><feBlend in="SourceGraphic" in2="effect2_dropShadow_92_215" result="shape"/><feColorMatrix in="SourceAlpha" values="0 0 0 0 0 0 0 0 0 0 0 0 0 0 0 0 0 0 127 0" result="hardAlpha"/><feOffset dx="-1.9" dy="1.9"/><feComposite in2="hardAlpha" operator="arithmetic" k2="-1" k3="1"/><feColorMatrix values="0 0 0 0 1 0 0 0 0 1 0 0 0 0 1 0 0 0 1 0"/><feBlend in2="shape" result="effect3_innerShadow_92_215"/></filter><filter id="a" x=".435" y=".135" width="646.375" height="650.068" filterUnits="userSpaceOnUse" color-interpolation-filters="sRGB"><feFlood flood-opacity="0" result="BackgroundImageFix"/><feColorMatrix in="SourceAlpha" values="0 0 0 0 0 0 0 0 0 0 0 0 0 0 0 0 0 0 127 0" result="hardAlpha"/><feOffset dx="-24.378" dy="44.323"/><feGaussianBlur stdDeviation="26.594"/><feComposite in2="hardAlpha" operator="out"/><feColorMatrix values="0 0 0 0 0.608333 0 0 0 0 0.608333 0 0 0 0 0.608333 0 0 0 0.2 0"/><feBlend mode="multiply" in2="BackgroundImageFix" result="effect1_dropShadow_92_215"/><feBlend in="SourceGraphic" in2="effect1_dropShadow_92_215" result="shape"/></filter></defs></svg>