<svg width="46" height="55" viewBox="0 0 46 55" fill="none" xmlns="http://www.w3.org/2000/svg">
<path d="M38.3446 51.9427C35.4352 54.763 32.2586 54.3177 29.2008 52.9817C25.9648 51.6161 22.996 51.5567 19.5819 52.9817C15.3069 54.8224 13.0506 54.288 10.4974 51.9427C-3.99022 37.0097 -1.8527 14.2688 14.5944 13.4375C18.6022 13.6454 21.3929 15.6344 23.7382 15.8126C27.2414 15.1001 30.5961 13.0516 34.3368 13.3188C38.8196 13.6751 42.2041 15.4563 44.4306 18.6626C35.168 24.2142 37.3649 36.4159 45.8557 39.83C44.1635 44.2832 41.9666 48.7067 38.3149 51.9724L38.3446 51.9427ZM23.4413 13.2594C22.996 6.63903 28.3695 1.17647 34.5446 0.64209C35.4055 8.30155 27.5976 14.0016 23.4413 13.2594Z" fill="white"/>
</svg>
