<svg width="48" height="40" viewBox="0 0 48 40" fill="none" xmlns="http://www.w3.org/2000/svg">
<path d="M47.16 37.4C29.64 32.3 11.64 22.64 5.76001 4.28001C7.98001 5.24001 10.2 6.20001 12.48 7.16001C13.86 7.76001 15.06 5.72001 13.68 5.12001C10.02 3.56001 6.36001 2.00001 2.64001 0.38001C1.32001 -0.21999 0.120008 1.70001 1.32001 2.36001C1.20001 2.54001 1.08001 2.72001 1.08001 3.02001C0.900009 5.90001 0.660009 8.78001 0.480009 11.6C0.0600086 13.34 -0.119992 15.08 0.120008 16.94C0.300008 18.44 2.40001 18.5 2.46001 16.94C2.58001 15.32 2.70001 13.64 2.82001 12.02C2.88001 11.72 2.94001 11.42 3.06001 11.12C3.18001 10.76 3.12001 10.4 2.94001 10.16C3.06001 8.24001 3.18001 6.32001 3.36001 4.40001C9.30001 23.84 28.08 34.22 46.56 39.62C48 40.1 48.6 37.82 47.16 37.4Z" fill="url(#paint0_linear_26_6581)"/>
<defs>
<linearGradient id="paint0_linear_26_6581" x1="46.6042" y1="39.686" x2="-4.8717" y2="28.5798" gradientUnits="userSpaceOnUse">
<stop stop-color="#4563FF"/>
<stop offset="1" stop-color="#58AFFF"/>
</linearGradient>
</defs>
</svg>
