<svg width="188" height="229" viewBox="0 0 188 229" fill="none" xmlns="http://www.w3.org/2000/svg">
<path opacity="0.7" d="M177.098 3.93749C152.775 87.4918 106.706 173.335 19.1458 201.377C23.7241 190.79 28.3024 180.203 32.8807 169.329C35.7422 162.748 26.0133 157.025 23.1518 163.606C15.7121 181.061 8.27229 198.516 0.546387 216.257C-2.31506 222.552 6.84157 228.275 9.98916 222.552C10.8476 223.124 11.706 223.697 13.1368 223.697C26.8717 224.555 40.6066 225.7 54.0554 226.558C62.3536 228.561 70.6518 229.42 79.5223 228.275C86.6759 227.417 86.9621 217.401 79.5223 217.115C71.7964 216.543 63.7844 215.971 56.0585 215.398C54.6277 215.112 53.197 214.826 51.7663 214.254C50.0494 213.682 48.3326 213.968 47.188 214.826C38.0313 214.254 28.8747 213.682 19.7181 212.823C112.429 184.495 161.932 94.9315 187.685 6.79894C189.974 -0.0685342 179.101 -2.92998 177.098 3.93749Z" fill="url(#paint0_linear_170_4701)"/>
<defs>
<linearGradient id="paint0_linear_170_4701" x1="188" y1="6.58824" x2="135.034" y2="252.081" gradientUnits="userSpaceOnUse">
<stop stop-color="#4563FF"/>
<stop offset="1" stop-color="#58AFFF"/>
</linearGradient>
</defs>
</svg>
