<svg width="188" height="229" viewBox="0 0 188 229" fill="none" xmlns="http://www.w3.org/2000/svg">
<path opacity="0.7" d="M10.9023 3.93737C35.2246 87.4916 81.2939 173.335 168.854 201.377C164.276 190.79 159.698 180.203 155.119 169.329C152.258 162.748 161.987 157.025 164.848 163.606C172.288 181.061 179.728 198.516 187.454 216.257C190.315 222.552 181.158 228.275 178.011 222.552C177.152 223.124 176.294 223.697 174.863 223.697C161.128 224.555 147.393 225.7 133.945 226.558C125.646 228.561 117.348 229.419 108.478 228.275C101.324 227.416 101.038 217.401 108.478 217.115C116.204 216.543 124.216 215.971 131.942 215.398C133.372 215.112 134.803 214.826 136.234 214.254C137.951 213.681 139.667 213.968 140.812 214.826C149.969 214.254 159.125 213.681 168.282 212.823C75.571 184.495 26.068 94.9314 0.314993 6.79882C-1.97416 -0.0686562 8.89931 -2.93011 10.9023 3.93737Z" fill="url(#paint0_linear_166_298)"/>
<defs>
<linearGradient id="paint0_linear_166_298" x1="4.95036e-05" y1="6.58812" x2="52.9664" y2="252.081" gradientUnits="userSpaceOnUse">
<stop stop-color="#4563FF"/>
<stop offset="1" stop-color="#58AFFF"/>
</linearGradient>
</defs>
</svg>
