<svg width="49" height="40" viewBox="0 0 49 40" fill="none" xmlns="http://www.w3.org/2000/svg">
<path d="M1.44794 37.3999C18.9679 32.2999 36.9679 22.6399 42.8479 4.27995C40.6279 5.23995 38.4079 6.19995 36.1279 7.15995C34.7479 7.75995 33.5479 5.71995 34.9279 5.11995C38.5879 3.55995 42.2479 1.99995 45.9679 0.379949C47.2879 -0.220051 48.4879 1.69995 47.2879 2.35995C47.4079 2.53995 47.5279 2.71995 47.5279 3.01995C47.7079 5.89995 47.9479 8.77995 48.1279 11.5999C48.5479 13.3399 48.7279 15.08 48.4879 16.94C48.3079 18.44 46.2079 18.5 46.1479 16.94C46.0279 15.32 45.9079 13.6399 45.7879 12.0199C45.7279 11.7199 45.6679 11.42 45.5479 11.12C45.4279 10.76 45.4879 10.3999 45.6679 10.1599C45.5479 8.23995 45.4279 6.31995 45.2479 4.39995C39.3079 23.8399 20.5279 34.2199 2.04794 39.6199C0.607944 40.0999 0.00794601 37.8199 1.44794 37.3999Z" fill="url(#paint0_linear_26_6745)"/>
<defs>
<linearGradient id="paint0_linear_26_6745" x1="2.00377" y1="39.686" x2="53.4797" y2="28.5798" gradientUnits="userSpaceOnUse">
<stop stop-color="#4563FF"/>
<stop offset="1" stop-color="#58AFFF"/>
</linearGradient>
</defs>
</svg>
