<svg width="43" height="43" viewBox="0 0 43 43" fill="none" xmlns="http://www.w3.org/2000/svg">
<path d="M8.89795 21.4119C8.43382 21.4119 7.9887 21.5962 7.66051 21.9244C7.33232 22.2526 7.14795 22.6977 7.14795 23.1619V37.1619C7.14795 37.626 7.33232 38.0711 7.66051 38.3993C7.9887 38.7275 8.43382 38.9119 8.89795 38.9119C9.36208 38.9119 9.8072 38.7275 10.1354 38.3993C10.4636 38.0711 10.6479 37.626 10.6479 37.1619V23.1619C10.6479 22.6977 10.4636 22.2526 10.1354 21.9244C9.8072 21.5962 9.36208 21.4119 8.89795 21.4119ZM17.6479 3.91187C17.1838 3.91187 16.7387 4.09624 16.4105 4.42443C16.0823 4.75262 15.8979 5.19774 15.8979 5.66187V37.1619C15.8979 37.626 16.0823 38.0711 16.4105 38.3993C16.7387 38.7275 17.1838 38.9119 17.6479 38.9119C18.1121 38.9119 18.5572 38.7275 18.8854 38.3993C19.2136 38.0711 19.3979 37.626 19.3979 37.1619V5.66187C19.3979 5.19774 19.2136 4.75262 18.8854 4.42443C18.5572 4.09624 18.1121 3.91187 17.6479 3.91187ZM35.1479 28.4119C34.6838 28.4119 34.2387 28.5962 33.9105 28.9244C33.5823 29.2526 33.3979 29.6977 33.3979 30.1619V37.1619C33.3979 37.626 33.5823 38.0711 33.9105 38.3993C34.2387 38.7275 34.6838 38.9119 35.1479 38.9119C35.6121 38.9119 36.0572 38.7275 36.3854 38.3993C36.7136 38.0711 36.8979 37.626 36.8979 37.1619V30.1619C36.8979 29.6977 36.7136 29.2526 36.3854 28.9244C36.0572 28.5962 35.6121 28.4119 35.1479 28.4119ZM26.3979 14.4119C25.9338 14.4119 25.4887 14.5962 25.1605 14.9244C24.8323 15.2526 24.6479 15.6977 24.6479 16.1619V37.1619C24.6479 37.626 24.8323 38.0711 25.1605 38.3993C25.4887 38.7275 25.9338 38.9119 26.3979 38.9119C26.8621 38.9119 27.3072 38.7275 27.6354 38.3993C27.9636 38.0711 28.1479 37.626 28.1479 37.1619V16.1619C28.1479 15.6977 27.9636 15.2526 27.6354 14.9244C27.3072 14.5962 26.8621 14.4119 26.3979 14.4119Z" fill="url(#paint0_linear_47_1167)"/>
<defs>
<linearGradient id="paint0_linear_47_1167" x1="36.0413" y1="38.9119" x2="3.37491" y2="33.9891" gradientUnits="userSpaceOnUse">
<stop stop-color="#4563FF"/>
<stop offset="1" stop-color="#58AFFF"/>
</linearGradient>
</defs>
</svg>
