<svg width="48" height="49" viewBox="0 0 48 49" fill="none" xmlns="http://www.w3.org/2000/svg">
<path d="M36 31.8743C35.25 31.8743 34.5 31.5743 33.9 30.9743L29.4 26.4743C28.8 25.8743 28.5 25.1243 28.5 24.3743C28.5 23.6243 28.8 22.8743 29.4 22.2743L33.9 17.7743C34.5 17.1743 35.25 16.8743 36 16.8743C36.75 16.8743 37.5 17.1743 38.1 17.7743L42.6 22.2743C43.2 22.8743 43.5 23.6243 43.5 24.3743C43.5 25.1243 43.2 25.8743 42.6 26.4743L38.1 30.9743C37.5 31.5743 36.75 31.8743 36 31.8743ZM36 19.8743L31.5 24.3743L36 28.8743L40.5 24.3743L36 19.8743ZM24 19.8743C23.25 19.8743 22.5 19.5743 21.9 18.9743L17.4 14.4743C16.8 13.8743 16.5 13.1243 16.5 12.3743C16.5 11.6243 16.8 10.8743 17.4 10.2743L21.9 5.77427C22.5 5.17427 23.25 4.87427 24 4.87427C24.75 4.87427 25.5 5.17427 26.1 5.77427L30.6 10.2743C31.2 10.8743 31.5 11.6243 31.5 12.3743C31.5 13.1243 31.2 13.8743 30.6 14.4743L26.1 18.9743C25.5 19.5743 24.75 19.8743 24 19.8743ZM24 7.87427L19.5 12.3743L24 16.8743L28.5 12.3743L24 7.87427ZM24 43.8743C23.25 43.8743 22.5 43.5743 21.9 42.9743L17.4 38.4743C16.8 37.8743 16.5 37.1243 16.5 36.3743C16.5 35.6243 16.8 34.8743 17.4 34.2743L21.9 29.7743C22.5 29.1743 23.25 28.8743 24 28.8743C24.75 28.8743 25.5 29.1743 26.1 29.7743L30.6 34.2743C31.2 34.8743 31.5 35.6243 31.5 36.3743C31.5 37.1243 31.2 37.8743 30.6 38.4743L26.1 42.9743C25.5 43.5743 24.75 43.8743 24 43.8743ZM24 31.8743L19.5 36.3743L24 40.8743L28.5 36.3743L24 31.8743ZM12 31.8743C11.25 31.8743 10.5 31.5743 9.9 30.9743L5.4 26.4743C4.8 25.8743 4.5 25.1243 4.5 24.3743C4.5 23.6243 4.8 22.8743 5.4 22.2743L9.9 17.7743C10.5 17.1743 11.25 16.8743 12 16.8743C12.75 16.8743 13.5 17.1743 14.1 17.7743L18.6 22.2743C19.2 22.8743 19.5 23.6243 19.5 24.3743C19.5 25.1243 19.2 25.8743 18.6 26.4743L14.1 30.9743C13.5 31.5743 12.75 31.8743 12 31.8743ZM12 19.8743L7.5 24.3743L12 28.8743L16.5 24.3743L12 19.8743Z" fill="url(#paint0_linear_47_1010)"/>
<defs>
<linearGradient id="paint0_linear_47_1010" x1="42.377" y1="43.8743" x2="-0.084033" y2="36.3463" gradientUnits="userSpaceOnUse">
<stop stop-color="#4563FF"/>
<stop offset="1" stop-color="#58AFFF"/>
</linearGradient>
</defs>
</svg>
