<svg width="29" height="46" viewBox="0 0 29 46" fill="none" xmlns="http://www.w3.org/2000/svg">
<path d="M17.5446 18.9007V11.7149C19.888 12.2885 22.1788 13.3809 24.0531 15.0995L24.0609 15.0889C24.2009 15.2005 24.3708 15.2772 24.5641 15.2772C24.8186 15.2772 25.0368 15.1543 25.1874 14.973L25.1981 14.9751L28.2274 10.7049L28.2203 10.7013C28.3447 10.5577 28.4271 10.3758 28.4271 10.1711C28.4271 9.92941 28.3184 9.71761 28.1521 9.56763C25.3424 6.97262 21.7552 5.41462 17.5446 4.94623V0.819514C17.5446 0.366756 17.1771 0 16.7243 0H13.4705C13.0177 0 12.6509 0.366756 12.6509 0.819514V4.84174C5.62145 5.57028 1.45636 10.0488 1.45636 15.3078C1.45636 22.3892 7.2882 24.4198 12.6509 25.7219V33.792C9.20727 33.175 6.377 31.3903 4.45153 29.3923C4.43803 29.3774 4.42381 29.3646 4.40889 29.3511L4.37193 29.3149L4.36624 29.3227C4.2237 29.2005 4.04295 29.1318 3.8552 29.1287C3.70897 29.13 3.56582 29.1708 3.44094 29.2469C3.31606 29.323 3.21409 29.4315 3.14585 29.5608L3.1359 29.5594L0.203989 33.9121L0.207544 33.9192C0.075778 34.0652 0.00195712 34.2543 0 34.4509C0 34.7117 0.12936 34.9335 0.318424 35.0835L0.310605 35.0948C3.17428 37.9585 7.18372 40.0411 12.6509 40.5102V44.3767C12.6509 44.8295 13.0177 45.1962 13.4705 45.1962H16.7243C17.1771 45.1962 17.5439 44.8288 17.5439 44.3767L17.5446 40.5094C25.1988 39.7276 29 35.2512 29 29.4705C29 22.338 22.9599 20.254 17.5446 18.9007ZM12.6502 17.7024C10.5158 17.0264 9.0573 16.2446 9.0573 14.7342C9.0573 12.9644 10.3594 11.7149 12.6502 11.4021V17.7024ZM17.5446 33.8965V26.9196C19.8361 27.6481 21.4502 28.4826 21.4502 30.1998C21.4502 31.8665 20.2 33.3755 17.5446 33.8965Z" fill="url(#paint0_linear_170_3814)"/>
<defs>
<linearGradient id="paint0_linear_170_3814" x1="28.1649" y1="45.1962" x2="-3.98502" y2="41.5389" gradientUnits="userSpaceOnUse">
<stop stop-color="#4563FF"/>
<stop offset="1" stop-color="#58AFFF"/>
</linearGradient>
</defs>
</svg>
