<svg width="48" height="49" viewBox="0 0 48 49" fill="none" xmlns="http://www.w3.org/2000/svg">
<g clip-path="url(#clip0_47_1006)">
<path d="M48 12.3743V48.3743H0V12.3743H12.1172C12.0859 12.1243 12.0625 11.8743 12.0469 11.6243C12.0312 11.3743 12.0156 11.1243 12 10.8743C12 9.42114 12.2734 8.06177 12.8203 6.79614C13.3672 5.53052 14.1172 4.41333 15.0703 3.44458C16.0234 2.47583 17.1328 1.72583 18.3984 1.19458C19.6641 0.66333 21.0312 0.389893 22.5 0.374268C23.9531 0.374268 25.3125 0.647705 26.5781 1.19458C27.8438 1.74146 28.9609 2.49146 29.9297 3.44458C30.8984 4.39771 31.6484 5.50708 32.1797 6.77271C32.7109 8.03833 32.9844 9.40552 33 10.8743C33 11.1243 32.9922 11.3743 32.9766 11.6243C32.9609 11.8743 32.9297 12.1243 32.8828 12.3743H48ZM22.5 3.37427C21.4688 3.37427 20.5 3.56958 19.5938 3.96021C18.6875 4.35083 17.8906 4.88989 17.2031 5.57739C16.5156 6.26489 15.9766 7.06177 15.5859 7.96802C15.1953 8.87427 15 9.84302 15 10.8743C15 11.9055 15.1953 12.8743 15.5859 13.7805C15.9766 14.6868 16.5078 15.4836 17.1797 16.1711C17.8516 16.8586 18.6484 17.3977 19.5703 17.7883C20.4922 18.179 21.4688 18.3743 22.5 18.3743C23.5312 18.3743 24.5 18.179 25.4062 17.7883C26.3125 17.3977 27.1016 16.8665 27.7734 16.1946C28.4453 15.5227 28.9844 14.7258 29.3906 13.804C29.7969 12.8821 30 11.9055 30 10.8743C30 9.84302 29.8047 8.87427 29.4141 7.96802C29.0234 7.06177 28.4844 6.27271 27.7969 5.60083C27.1094 4.92896 26.3125 4.38989 25.4062 3.98364C24.5 3.57739 23.5312 3.37427 22.5 3.37427ZM45 15.3743H31.9922C31.6016 16.1868 31.1172 16.9446 30.5391 17.6477C29.9609 18.3508 29.2969 18.9524 28.5469 19.4524C30.1562 20.0774 31.6094 20.9055 32.9062 21.9368C34.2031 22.968 35.2969 24.1555 36.1875 25.4993C37.0781 26.843 37.7734 28.3118 38.2734 29.9055C38.7734 31.4993 39.0156 33.1555 39 34.8743V36.3743H36V34.8743C36 32.9524 35.6562 31.1711 34.9688 29.5305C34.2812 27.8899 33.3359 26.4602 32.1328 25.2415C30.9297 24.0227 29.5078 23.0774 27.8672 22.4055C26.2266 21.7336 24.4375 21.3899 22.5 21.3743C20.7656 21.3743 19.125 21.6711 17.5781 22.2649C16.0312 22.8586 14.6562 23.6946 13.4531 24.7727C12.25 25.8508 11.2656 27.1165 10.5 28.5696C9.73438 30.0227 9.25781 31.6243 9.07031 33.3743H24.2578L18.8672 27.9836L21 25.8743L30 34.8743L21 43.8743L18.8672 41.7649L24.2578 36.3743H6V34.8743C6 33.1555 6.24219 31.5071 6.72656 29.929C7.21094 28.3508 7.91406 26.8899 8.83594 25.5461C9.75781 24.2024 10.8594 23.0149 12.1406 21.9836C13.4219 20.9524 14.8672 20.1165 16.4766 19.4758C14.9453 18.3977 13.7891 17.0305 13.0078 15.3743H3V45.3743H45V15.3743Z" fill="url(#paint0_linear_47_1006)"/>
</g>
<defs>
<linearGradient id="paint0_linear_47_1006" x1="46.6178" y1="48.3743" x2="-5.64189" y2="39.1091" gradientUnits="userSpaceOnUse">
<stop stop-color="#4563FF"/>
<stop offset="1" stop-color="#58AFFF"/>
</linearGradient>
<clipPath id="clip0_47_1006">
<rect width="48" height="48" fill="white" transform="translate(0 0.374268)"/>
</clipPath>
</defs>
</svg>
