<svg width="48" height="49" viewBox="0 0 48 49" fill="none" xmlns="http://www.w3.org/2000/svg">
<path d="M6 42.3743V40.3743C6 35.9561 9.58172 32.3743 14 32.3743H22C26.4182 32.3743 30 35.9561 30 40.3743V42.3743" stroke="url(#paint0_linear_47_1012)" stroke-width="2" stroke-linecap="round"/>
<path d="M18 26.3743C14.6863 26.3743 12 23.6881 12 20.3743C12 17.0606 14.6863 14.3743 18 14.3743C21.3138 14.3743 24 17.0606 24 20.3743C24 23.6881 21.3138 26.3743 18 26.3743Z" stroke="url(#paint1_linear_47_1012)" stroke-width="2" stroke-linecap="round"/>
<path d="M30 12.3743H42" stroke="url(#paint2_linear_47_1012)" stroke-width="2" stroke-linecap="round"/>
<path d="M36 6.37427V18.3743" stroke="url(#paint3_linear_47_1012)" stroke-width="2" stroke-linecap="round"/>
<defs>
<linearGradient id="paint0_linear_47_1012" x1="29.3089" y1="42.3743" x2="6.48923" y2="32.6645" gradientUnits="userSpaceOnUse">
<stop stop-color="#4563FF"/>
<stop offset="1" stop-color="#58AFFF"/>
</linearGradient>
<linearGradient id="paint1_linear_47_1012" x1="23.6545" y1="26.3743" x2="10.5895" y2="24.058" gradientUnits="userSpaceOnUse">
<stop stop-color="#4563FF"/>
<stop offset="1" stop-color="#58AFFF"/>
</linearGradient>
<linearGradient id="paint2_linear_47_1012" x1="41.6545" y1="13.3743" x2="39.216" y2="8.18643" gradientUnits="userSpaceOnUse">
<stop stop-color="#4563FF"/>
<stop offset="1" stop-color="#58AFFF"/>
</linearGradient>
<linearGradient id="paint3_linear_47_1012" x1="36.9712" y1="18.3743" x2="35.8485" y2="18.3577" gradientUnits="userSpaceOnUse">
<stop stop-color="#4563FF"/>
<stop offset="1" stop-color="#58AFFF"/>
</linearGradient>
</defs>
</svg>
