<svg width="174" height="47" viewBox="0 0 174 47" fill="none" xmlns="http://www.w3.org/2000/svg">
<g clip-path="url(#clip0_204_148)">
<path d="M45.0681 21.2151V22.1898C45.0681 22.1898 45.0949 21.8073 45.0681 21.2151Z" fill="#0069D4"/>
<path d="M74.0405 31.84V36.6578H57.9838V9.85181H63.7202V31.8619L74.0405 31.84Z" fill="url(#paint0_linear_204_148)"/>
<path d="M79.6284 20.2966C81.5145 18.4315 83.8856 17.4998 86.7417 17.5015C89.5701 17.5015 91.9412 18.4332 93.855 20.2966C95.7412 22.1584 96.6843 24.5043 96.6843 27.3344C96.6843 30.1644 95.7412 32.5112 93.855 34.3746C91.9412 36.2364 89.5693 37.1673 86.7392 37.1673C83.8832 37.1673 81.5121 36.2364 79.6259 34.3746C77.7398 32.5128 76.808 30.1661 76.8308 27.3344C76.8324 24.5059 77.7649 22.16 79.6284 20.2966ZM83.3885 31.0531C83.8246 31.5004 84.3459 31.856 84.9216 32.0987C85.4973 32.3415 86.1157 32.4665 86.7405 32.4665C87.3652 32.4665 87.9837 32.3415 88.5594 32.0987C89.135 31.856 89.6563 31.5004 90.0924 31.0531C90.986 30.0783 91.4327 28.8363 91.4327 27.3271C91.4327 25.8178 90.986 24.5888 90.0924 23.64C89.6628 23.1815 89.1436 22.816 88.5671 22.5661C87.9905 22.3163 87.3688 22.1873 86.7405 22.1873C86.1121 22.1873 85.4904 22.3163 84.9139 22.5661C84.3373 22.816 83.8182 23.1815 83.3885 23.64C82.5177 24.5823 82.0831 25.8113 82.0848 27.3271C82.0864 28.8428 82.521 30.0848 83.3885 31.0531Z" fill="url(#paint1_linear_204_148)"/>
<path d="M106.517 27.3344C106.517 28.8502 106.976 30.0548 107.894 30.9483C108.812 31.8419 110.03 32.2886 111.549 32.2886C113.318 32.2947 115.046 31.7617 116.504 30.7607V35.7905C114.741 36.6955 112.788 37.1675 110.806 37.1673C107.851 37.1673 105.455 36.2486 103.617 34.4112C101.78 32.5738 100.873 30.2181 100.898 27.3442C100.898 24.4637 101.804 22.1178 103.617 20.3064C105.43 18.4413 107.827 17.5096 110.806 17.5112C112.748 17.5129 114.661 17.973 116.391 18.854V23.9179C114.98 22.9082 113.284 22.3731 111.549 22.3899C110.061 22.3899 108.851 22.8432 107.918 23.7497C106.986 24.6562 106.519 25.8511 106.517 27.3344Z" fill="url(#paint2_linear_204_148)"/>
<path d="M122.681 20.2966C124.567 18.4315 126.938 17.4998 129.794 17.5015C132.624 17.5015 134.996 18.4332 136.908 20.2966C138.794 22.1584 139.738 24.5043 139.739 27.3344C139.741 30.1644 138.797 32.5112 136.908 34.3746C134.996 36.2364 132.624 37.1673 129.794 37.1673C126.938 37.1673 124.567 36.2364 122.681 34.3746C120.814 32.5128 119.881 30.1661 119.881 27.3344C119.881 24.5027 120.814 22.1568 122.681 20.2966ZM126.441 31.0531C126.877 31.5004 127.399 31.856 127.974 32.0987C128.55 32.3415 129.168 32.4665 129.793 32.4665C130.418 32.4665 131.036 32.3415 131.612 32.0987C132.188 31.856 132.709 31.5004 133.145 31.0531C134.04 30.0783 134.488 28.8363 134.488 27.3271C134.488 25.8178 134.04 24.5888 133.145 23.64C132.716 23.1815 132.196 22.816 131.62 22.5661C131.043 22.3163 130.422 22.1873 129.793 22.1873C129.165 22.1873 128.543 22.3163 127.967 22.5661C127.39 22.816 126.871 23.1815 126.441 23.64C125.574 24.5823 125.14 25.8113 125.14 27.3271C125.14 28.8428 125.574 30.0848 126.441 31.0531Z" fill="url(#paint3_linear_204_148)"/>
<path d="M144.431 36.658V18.023H149.533L149.682 20.1455C149.686 20.5845 149.636 21.0224 149.533 21.4493H149.611C150.033 20.4243 150.745 19.5444 151.658 18.9173C152.612 18.2321 153.73 17.8117 154.899 17.6989C155.503 17.5969 156.118 17.5845 156.725 17.6623C159.058 18.0084 160.585 19.2 161.306 21.2373C162.944 18.7549 165.017 17.5129 167.525 17.5112C169.611 17.5112 171.206 18.1448 172.311 19.412C173.416 20.6792 173.968 22.541 173.968 24.9974V36.658H168.376V25.8089C168.376 23.6465 167.569 22.5662 165.956 22.5678C163.3 22.5678 161.971 24.5417 161.971 28.4895V36.658H156.435V25.7699C156.435 23.6352 155.64 22.5678 154.051 22.5678C151.371 22.5678 150.031 24.5417 150.031 28.4895V36.658H144.431Z" fill="url(#paint4_linear_204_148)"/>
<path d="M30.9341 8.03406H7.73236V0.304199H30.9341C35.0352 0.304199 38.9683 1.93317 41.8684 4.83281C44.7685 7.73246 46.3981 11.6653 46.3987 15.7664V46.6931L38.6591 38.9633V15.7664C38.6591 13.7169 37.8455 11.7513 36.397 10.3014C34.9485 8.85151 32.9836 8.036 30.9341 8.03406Z" fill="url(#paint5_linear_204_148)"/>
<path d="M0 23.4985V8.03394H7.7323V23.4985C7.7323 25.5493 8.54695 27.516 9.99704 28.9661C11.4471 30.4162 13.4139 31.2308 15.4646 31.2308H30.9341L38.6664 38.9631H15.4646C11.3631 38.9631 7.42965 37.3338 4.52948 34.4337C1.6293 31.5335 0 27.6 0 23.4985Z" fill="url(#paint6_linear_204_148)"/>
</g>
<defs>
<linearGradient id="paint0_linear_204_148" x1="73.5782" y1="36.6578" x2="55.7481" y2="34.7642" gradientUnits="userSpaceOnUse">
<stop stop-color="#4563FF"/>
<stop offset="1" stop-color="#58AFFF"/>
</linearGradient>
<linearGradient id="paint1_linear_204_148" x1="96.1125" y1="37.1673" x2="74.5094" y2="33.3006" gradientUnits="userSpaceOnUse">
<stop stop-color="#4563FF"/>
<stop offset="1" stop-color="#58AFFF"/>
</linearGradient>
<linearGradient id="paint2_linear_204_148" x1="116.054" y1="37.1673" x2="98.8692" y2="34.7483" gradientUnits="userSpaceOnUse">
<stop stop-color="#4563FF"/>
<stop offset="1" stop-color="#58AFFF"/>
</linearGradient>
<linearGradient id="paint3_linear_204_148" x1="139.168" y1="37.1673" x2="117.56" y2="33.2989" gradientUnits="userSpaceOnUse">
<stop stop-color="#4563FF"/>
<stop offset="1" stop-color="#58AFFF"/>
</linearGradient>
<linearGradient id="paint4_linear_204_148" x1="173.118" y1="36.658" x2="142.256" y2="28.2172" gradientUnits="userSpaceOnUse">
<stop stop-color="#4563FF"/>
<stop offset="1" stop-color="#58AFFF"/>
</linearGradient>
<linearGradient id="paint5_linear_204_148" x1="45.2853" y1="46.6931" x2="2.79228" y2="40.4136" gradientUnits="userSpaceOnUse">
<stop stop-color="#4563FF"/>
<stop offset="1" stop-color="#58AFFF"/>
</linearGradient>
<linearGradient id="paint6_linear_204_148" x1="37.5529" y1="38.9631" x2="-3.83486" y2="29.7899" gradientUnits="userSpaceOnUse">
<stop stop-color="#4563FF"/>
<stop offset="1" stop-color="#58AFFF"/>
</linearGradient>
<clipPath id="clip0_204_148">
<rect width="173.966" height="46.3914" fill="white" transform="translate(0 0.304199)"/>
</clipPath>
</defs>
</svg>
