<svg width="80" height="51" viewBox="0 0 80 51" fill="none" xmlns="http://www.w3.org/2000/svg">
<g clip-path="url(#clip0_1_2078)">
<path d="M74.614 6.58413C74.6139 6.64216 74.6137 6.71469 74.5988 6.75819C74.5234 7.32381 74.5221 7.8896 74.5653 8.46999C74.5947 8.61513 74.624 8.76028 74.7425 8.8766C74.9349 9.09463 75.2317 9.05177 75.351 8.7909C75.4107 8.66047 75.411 8.52989 75.3815 8.39926C75.2343 7.84765 75.206 7.2673 75.1924 6.70146C75.1925 6.67245 75.1926 6.62893 75.1927 6.58541C75.3559 6.57126 75.5044 6.55708 75.6378 6.55738C75.7418 6.54311 75.8309 6.52879 75.9052 6.48543C76.1279 6.36987 76.1285 6.12325 75.8913 6.00666C75.8024 5.96294 75.6838 5.94816 75.5799 5.94793C75.2089 5.96162 74.838 5.9608 74.467 5.95998C74.3335 5.95968 74.1999 5.9739 74.0663 5.9881C73.9921 6.00245 73.9031 6.00225 73.8437 6.04565C73.7396 6.08893 73.6802 6.16134 73.68 6.26289C73.6946 6.36448 73.7389 6.42261 73.8428 6.46636C73.9019 6.51002 73.9761 6.52468 74.0503 6.52485C74.2283 6.53975 74.4212 6.56919 74.614 6.58413ZM78.6929 7.26051C78.6928 7.27502 78.7076 7.28955 78.7076 7.28955C78.7661 7.68138 78.8247 8.05871 78.8683 8.436C78.8829 8.5666 78.8975 8.68269 78.9863 8.78444C79.1786 9.03149 79.4755 9.00313 79.6095 8.74231C79.6692 8.61186 79.6843 8.48133 79.655 8.33619C79.5669 7.90077 79.5233 7.46545 79.4352 7.04454C79.3764 6.78327 79.3029 6.53648 79.2292 6.3042C79.185 6.15903 79.0814 6.05724 78.9034 6.04234C78.7254 6.01294 78.5916 6.09968 78.5171 6.23009C78.4278 6.34594 78.3534 6.46184 78.2937 6.59228C78.1894 6.82417 78.0998 7.05609 77.9807 7.27344C77.9656 7.33143 77.9507 7.37493 77.921 7.41837C77.9062 7.38933 77.8915 7.37479 77.8915 7.37479C77.6993 7.01168 77.5221 6.6486 77.33 6.3C77.3003 6.27091 77.2855 6.24186 77.2708 6.21282C77.1821 6.08206 77.0784 6.00929 76.9152 6.00893C76.7667 6.0231 76.6478 6.10989 76.5734 6.24028C76.5435 6.29825 76.5434 6.34177 76.5285 6.39977C76.4681 6.86388 76.3928 7.32795 76.3325 7.79206C76.3022 8.05313 76.2868 8.31422 76.2862 8.57536C76.2713 8.63335 76.286 8.70592 76.3155 8.76402C76.345 8.88014 76.4338 8.95288 76.5524 8.96765C76.7008 8.98249 76.8047 8.93919 76.8496 8.82323C76.8942 8.73629 76.9093 8.66379 76.9243 8.59128C76.9842 8.33028 77.0292 8.08375 77.0743 7.83722C77.1043 7.69221 77.1194 7.57619 77.1643 7.4167C77.1938 7.4748 77.2233 7.51839 77.253 7.56197C77.3861 7.73636 77.5193 7.91075 77.6822 8.05618C77.8451 8.1726 77.9787 8.15839 78.1125 8.02811C78.1423 7.99917 78.1572 7.9847 78.1869 7.95574C78.3209 7.75294 78.4846 7.5502 78.6185 7.34738C78.6483 7.31843 78.6632 7.28945 78.6929 7.26051Z" fill="#3A3B7B"/>
<path d="M44.5057 6.80239C44.4019 7.07787 44.3818 7.27645 44.4291 7.44166C44.4812 7.66627 44.6175 7.74007 44.8029 7.68339C46.5467 7.26588 50.3657 8.47037 51.7798 8.80685C52.1133 8.87758 52.3857 8.45702 52.1589 8.07891C51.8274 7.71248 48.0109 6.13839 46.5535 6.0498C45.9823 6.01696 44.9612 5.87146 44.5057 6.80239Z" fill="#3A3B7B"/>
<path d="M59.4526 1.7673C59.6381 1.87253 59.7417 1.97275 59.7927 2.08458C59.8687 2.23129 59.8282 2.3326 59.6998 2.38405C58.5466 2.93123 57.0084 5.29456 56.3877 6.10945C56.2373 6.29689 55.8916 6.18701 55.84 5.8781C55.8515 5.52898 57.2161 2.96357 57.9761 2.2657C58.2747 1.99323 58.7683 1.45841 59.4526 1.7673Z" fill="#3A3B7B"/>
<path d="M50.2808 0.582209C50.5044 0.418267 50.7364 0.361157 50.8546 0.468282C52.5895 1.92554 53.5061 4.22917 54.0722 6.33749C54.0936 6.38663 54.0948 6.45708 54.0774 6.53053C54.0702 6.59332 54.0231 6.65957 53.9484 6.71075C53.8687 6.76725 53.8001 6.78436 53.768 6.73544C53.0084 5.72067 48.6661 1.76926 50.2808 0.582209Z" fill="#3A3B7B"/>
<path d="M13.4176 25.699C13.8348 25.3966 14.2883 25.1452 14.768 24.9503C15.2697 24.8113 15.8041 24.8357 16.2904 25.02C16.7766 25.2043 17.1884 25.5383 17.4632 25.9717C17.7089 26.4039 17.8043 26.9025 17.7351 27.3923C17.6659 27.882 17.4359 28.3366 17.0795 28.6874C16.8032 28.9719 16.4897 29.2194 16.1473 29.4239C14.6211 30.3832 13.0815 31.2896 11.5418 32.2489C11.2267 32.4891 10.8924 32.7045 10.5423 32.8929C10.0098 33.1511 9.40175 33.2192 8.82327 33.0854C8.2448 32.9518 7.7323 32.6246 7.37438 32.1606C7.10678 31.832 6.88112 31.4728 6.70238 31.0909C5.25238 28.0942 3.74841 25.1105 2.35247 22.0612C1.70799 20.7411 1.18535 19.2233 0.676074 17.7584C0.455277 17.3327 0.413069 16.8395 0.558437 16.3838C0.703805 15.928 1.02528 15.5458 1.45448 15.3182C1.88368 15.0907 2.38674 15.0359 2.85667 15.1655C3.32661 15.295 3.72635 15.5987 3.97086 16.0119C4.72308 16.9937 5.38856 18.0364 5.9601 19.1285C7.41088 21.7691 8.79425 24.4096 10.1913 26.971C10.2726 27.1126 10.3624 27.2492 10.4601 27.3804C11.5168 26.9487 12.5111 26.3834 13.4176 25.699Z" fill="#3A3B7B"/>
<path d="M28.4803 24.8123C25.1406 28.6159 19.5589 27.6409 16.7644 22.7291C14.776 19.2433 14.4381 13.4929 18.7891 9.87606C19.7181 9.11889 20.8282 8.60415 22.0158 8.37986C23.4718 8.17906 24.9554 8.43341 26.2547 9.10656C27.554 9.77971 28.6024 10.8372 29.2503 12.1279C31.6147 16.353 31.2656 21.7326 28.4803 24.8123ZM27.1513 15.9211C26.7997 14.8834 26.0916 13.9965 25.1472 13.4111C24.6129 13.037 23.963 12.8542 23.3071 12.8936C22.6511 12.933 22.0291 13.1921 21.5456 13.6273C19.6133 15.2978 19.1998 19.2663 20.5972 21.6299C20.7752 22.0152 21.037 22.3578 21.3645 22.6339C21.692 22.9099 22.0773 23.1127 22.4933 23.2278C22.9093 23.3431 23.3459 23.3681 23.7728 23.301C24.1998 23.2339 24.6064 23.0764 24.9646 22.8396C26.0118 22.0493 26.7812 20.9597 27.1658 19.7223C27.5505 18.4847 27.5313 17.1607 27.1109 15.9343L27.1513 15.9211Z" fill="#3A3B7B"/>
<path d="M42.0914 17.6158C41.7502 17.6867 41.3979 17.6903 41.0552 17.626C40.7126 17.5618 40.3865 17.4314 40.0962 17.2422C39.8421 17.0993 39.6236 16.9033 39.4562 16.668C39.289 16.4327 39.1772 16.1641 39.1288 15.8815C39.0804 15.5989 39.0967 15.3094 39.1764 15.0337C39.2562 14.758 39.3976 14.503 39.5902 14.2871C39.926 13.853 40.402 13.5428 40.9409 13.4065C42.3481 13.0106 43.7963 12.7705 45.2585 12.6908C45.5798 12.655 45.9051 12.6823 46.2154 12.7711C46.5258 12.86 46.8148 13.0085 47.0657 13.2081C47.3165 13.4077 47.5241 13.6542 47.6762 13.9333C47.8281 14.2123 47.9217 14.5183 47.9512 14.8331C48.3692 16.3803 48.4118 18.0016 48.0755 19.5676C46.8505 24.6288 42.6656 26.3602 37.9755 24.7278C36.659 24.2912 35.5056 23.4806 34.6628 22.3995C33.5385 21.0974 32.7426 19.5554 32.3394 17.8975C32.0131 16.4213 32.0526 14.8903 32.4547 13.4322C32.8568 11.9741 33.6098 10.6311 34.6509 9.51558C35.6392 8.30277 36.9206 7.34941 38.3796 6.74133C39.3017 6.24699 40.3799 6.10824 41.4016 6.35241C41.6334 6.41568 41.8436 6.53842 42.0105 6.7079C42.1774 6.87739 42.2949 7.08744 42.3509 7.31628C42.4068 7.54511 42.399 7.78441 42.3285 8.00934C42.2579 8.23426 42.1271 8.43663 41.9497 8.59545C41.6122 8.89281 41.2457 9.15701 40.8554 9.38426C39.6547 10.1282 38.6091 11.088 37.774 12.2127C37.2266 12.9404 36.8489 13.7767 36.6675 14.6626C36.4861 15.5484 36.5054 16.4624 36.7242 17.3402C37.0274 18.5372 37.7038 19.6124 38.6595 20.4171C41.6208 23.0611 45.4838 20.5245 44.8175 16.9229C43.8324 17.1582 42.9686 17.4068 42.0914 17.6158Z" fill="#3A3B7B"/>
<path d="M60.2022 25.0935C55.813 27.7213 50.8285 25.0727 49.7483 19.5318C48.9613 15.5739 50.4842 10.0386 55.7759 7.94037C56.9018 7.5036 58.1222 7.35207 59.3241 7.49986C60.7678 7.76157 62.0912 8.45971 63.1076 9.49587C64.124 10.532 64.7823 11.8539 64.9894 13.2752C65.8692 17.985 63.8349 23.0048 60.2022 25.0935ZM61.746 16.2219C61.7471 15.1265 61.3531 14.0655 60.6332 13.226C60.2485 12.7069 59.6916 12.3343 59.0574 12.1717C58.4231 12.0092 57.751 12.0668 57.1553 12.3348C54.7794 13.3317 53.0989 16.9676 53.6999 19.6461C53.7453 20.0663 53.884 20.4717 54.1064 20.8341C54.3287 21.1964 54.6294 21.5069 54.9873 21.7438C55.3451 21.9807 55.7516 22.1384 56.1782 22.2057C56.605 22.2729 57.0415 22.2483 57.4573 22.1335C58.713 21.7077 59.8012 20.9092 60.57 19.8494C61.3389 18.7895 61.75 17.5214 61.746 16.2219Z" fill="#3A3B7B"/>
<path d="M69.3935 26.2215C69.3263 26.704 69.0658 27.1406 68.6693 27.4352C68.2727 27.7298 67.7727 27.8584 67.2793 27.7927C66.7858 27.7269 66.3392 27.4721 66.0379 27.0843C65.7364 26.6967 65.6049 26.2078 65.6721 25.7253C65.7394 25.2428 65.9999 24.8062 66.3964 24.5115C66.7929 24.2168 67.2929 24.0883 67.7864 24.1541C68.2798 24.2199 68.7264 24.4746 69.0279 24.8623C69.3293 25.2501 69.4609 25.739 69.3935 26.2215ZM68.2595 8.42937C68.5169 8.04689 68.8938 7.75603 69.3342 7.60015C69.7744 7.44428 70.2545 7.43174 70.7027 7.56443C71.1584 7.67698 71.5606 7.93917 71.8422 8.30709C72.1237 8.67503 72.2674 9.12636 72.2493 9.5855C72.1882 10.3219 72.0739 11.0532 71.9073 11.7738C71.4568 14.2125 71.0197 16.6511 70.5424 19.0633C70.3244 20.0255 70.0392 20.948 69.7267 21.9231C69.6182 22.2279 69.4372 22.5032 69.199 22.7264C69.0508 22.8944 68.8617 23.023 68.6491 23.1005C68.4365 23.178 68.2074 23.2019 67.983 23.1698C67.7585 23.1377 67.5458 23.0509 67.3648 22.9172C67.1838 22.7835 67.0402 22.6073 66.9473 22.4049C66.7878 22.0419 66.7015 21.6521 66.6936 21.2571C66.6972 19.6218 66.7009 17.9735 66.8124 16.3253C67.001 13.9732 67.3667 11.6379 67.9068 9.33851C67.9705 9.03042 68.0898 8.73593 68.2594 8.46894L68.2595 8.42937Z" fill="#3A3B7B"/>
<path fill-rule="evenodd" clip-rule="evenodd" d="M7.69486 36.682C7.53484 37.0292 7.49031 37.4166 7.5673 37.7897C7.61798 38.2814 7.73062 38.7652 7.90265 39.23C8.11746 39.7992 8.35798 40.3621 8.65456 41.0559C8.72276 41.2156 8.79404 41.3822 8.86862 41.5576C9.26855 42.4975 9.77032 43.6987 10.4393 45.437C10.6287 45.9308 10.7967 46.4287 10.9659 46.9299C11.0342 47.1324 11.1028 47.3356 11.173 47.5392C11.4247 48.2633 11.8592 48.9141 12.4358 49.4305C12.6805 49.7142 13.0055 49.9212 13.3701 50.0252C13.7419 50.1312 14.1376 50.1254 14.5059 50.0086C14.8742 49.8917 15.198 49.6691 15.4352 49.3698C15.6677 49.0763 15.8064 48.7223 15.834 48.3523C15.986 47.6317 15.9363 46.884 15.6899 46.1884C15.299 45.0335 14.8533 43.8767 14.3389 42.7452L14.3365 42.7402C13.4901 40.9697 12.6296 39.2114 11.7282 37.4524L11.7214 37.44C11.4574 36.9817 11.1139 36.5717 10.7064 36.2285C10.4419 35.9224 10.0768 35.7155 9.67311 35.6436C9.26086 35.5702 8.83536 35.6423 8.47256 35.8472C8.12937 36.0379 7.85701 36.3301 7.69486 36.682Z" fill="#3A3B7B"/>
<path fill-rule="evenodd" clip-rule="evenodd" d="M20.6924 32.3558C19.3598 32.0152 17.9674 31.9629 16.6123 32.2027C15.5629 32.3014 14.5304 32.5357 13.8129 33.0028C13.4479 33.2406 13.1526 33.5462 12.9878 33.9352C12.8221 34.3263 12.8001 34.7739 12.934 35.2731C13.1786 36.1873 13.4968 37.0764 13.814 37.9626L13.8653 38.1062L13.8666 38.1093C14.8216 40.684 15.7859 43.25 16.759 45.8073C16.8722 46.2102 17.0327 46.599 17.2373 46.9658L17.2412 46.9726C17.5115 47.4283 17.8586 47.8362 18.2679 48.179C18.4726 48.3675 18.7259 48.4981 19.0007 48.5568C19.2783 48.616 19.5671 48.5997 19.8357 48.5094C20.1044 48.4191 20.3425 48.2585 20.5242 48.0449C20.7029 47.8348 20.8202 47.5814 20.8637 47.3117C21.0422 46.5789 20.9872 45.8102 20.706 45.1087C20.6183 44.8727 20.5496 44.6315 20.4772 44.3776C20.4531 44.293 20.4286 44.2068 20.4028 44.1191C22.6451 43.2678 25.0314 42.1218 25.8756 39.4452C26.2059 38.5203 26.2355 37.5181 25.9602 36.576C25.6848 35.6328 25.1171 34.7961 24.3355 34.1811C23.2718 33.3203 22.0284 32.6972 20.6924 32.3558ZM16.9893 35.6329C17.0334 35.6206 17.0779 35.6091 17.1225 35.5985C18.5815 35.3775 20.0731 35.6796 21.3227 36.4488C21.8732 36.8249 22.0982 37.242 22.1361 37.643C22.1752 38.0558 22.0207 38.5027 21.7115 38.9319C21.127 39.7428 20.0624 40.3905 19.1017 40.5095C18.405 38.9314 17.6976 37.2895 16.9893 35.6329Z" fill="#3A3B7B"/>
<path d="M29.5881 29.4896C31.1775 28.7761 33.1446 28.6566 34.6826 29.1641C35.07 29.2754 35.4057 29.5149 35.6325 29.8417C35.8577 30.1665 35.9612 30.5575 35.9255 30.9482C35.9226 31.2017 35.8584 31.4511 35.7381 31.6759C35.6157 31.9048 35.4387 32.1015 35.2221 32.2494C35.0055 32.3972 34.7556 32.492 34.4937 32.5255C34.2317 32.5591 33.9654 32.5304 33.7171 32.442L33.6982 32.4353L33.6804 32.4261C33.5535 32.3607 33.4185 32.3115 33.2789 32.2793L33.2701 32.2773C32.188 31.9937 31.1657 32.4574 30.7914 33.029C30.6129 33.3015 30.5902 33.577 30.7378 33.828C30.8959 34.0968 31.2845 34.3988 32.0716 34.6153C32.2881 34.6739 32.51 34.7305 32.735 34.788C33.3575 34.947 34.0043 35.1122 34.6297 35.3406L34.632 35.3416C37.5169 36.422 38.5871 38.649 38.2144 40.7404C37.8457 42.8088 36.0742 44.6879 33.4155 45.1262C32.4479 45.3336 31.4416 45.2906 30.496 45.0013C29.5481 44.7111 28.6943 44.1836 28.0194 43.4709L28.0017 43.4523C27.7888 43.1838 27.6458 42.8687 27.5829 42.5346C27.525 42.233 27.5565 41.9216 27.6737 41.6369C27.7901 41.3539 27.9866 41.1093 28.2398 40.9312C28.5073 40.7294 28.8295 40.6086 29.1665 40.584C29.5023 40.5595 29.8382 40.6316 30.1328 40.7913C30.427 40.9311 30.7006 41.1092 30.946 41.3208L30.9506 41.3246C31.3848 41.7146 31.9108 41.8171 32.4158 41.7243C32.928 41.6302 33.4102 41.3351 33.7207 40.9427C34.0293 40.5528 34.1538 40.0891 34.0082 39.6384C33.8617 39.1844 33.4193 38.6751 32.4458 38.2479C32.1914 38.1416 31.9274 38.0558 31.6529 37.9721C31.5788 37.9496 31.5036 37.9271 31.4274 37.9043C31.2244 37.8436 31.0155 37.781 30.8107 37.7121C30.6696 37.6648 30.5297 37.6199 30.3911 37.5754C30.0123 37.4538 29.6431 37.3354 29.2878 37.1768C28.5144 36.9174 27.8468 36.4212 27.3843 35.7615C26.92 35.0993 26.6874 34.308 26.7211 33.5059C26.7279 31.551 27.9901 30.207 29.5881 29.4896Z" fill="#3A3B7B"/>
<path d="M49.719 29.3261C49.4115 29.1784 49.0712 29.1079 48.7289 29.1208C48.3865 29.1339 48.0528 29.2299 47.758 29.4006C47.465 29.5701 47.2195 29.8078 47.0433 30.0925C46.8818 30.3323 46.7698 30.6006 46.7136 30.8825C46.6575 31.1641 46.6582 31.4537 46.7156 31.7349C46.7721 32.0963 46.8349 32.4477 46.8969 32.7943C46.9996 33.3679 47.0995 33.9286 47.165 34.5002L47.1674 34.5146C47.3173 35.4112 47.3949 36.3177 47.4 37.226L47.4006 37.2389C47.4504 38.2199 47.1064 39.1809 46.4425 39.918L46.432 39.9311C46.2159 40.2006 45.9273 40.4061 45.5985 40.5245C45.2698 40.6428 44.9139 40.6694 44.5705 40.6012C44.2271 40.5331 43.91 40.3729 43.6544 40.1385C43.3989 39.9042 43.2148 39.604 43.1234 39.2734C42.9281 38.5766 42.8158 37.86 42.7884 37.138L43.1362 31.906C43.1413 31.8377 43.1471 31.7676 43.153 31.6968C43.1662 31.5379 43.1796 31.376 43.1854 31.2251C43.1938 31.0029 43.1875 30.7744 43.1351 30.558C43.0814 30.3369 42.9788 30.1264 42.7964 29.947C42.6158 29.7693 42.3718 29.638 42.0646 29.5483C41.509 29.3897 41.0389 29.3937 40.6468 29.5553C40.2546 29.717 39.9854 30.0182 39.7946 30.3664C39.6052 30.7116 39.4832 31.1206 39.3907 31.5303C39.322 31.8343 39.2667 32.1535 39.2141 32.4573C39.1959 32.562 39.1781 32.6648 39.1601 32.7646L39.1597 32.7676C38.8782 34.4337 38.7918 36.1259 38.902 37.8113C38.9213 38.722 39.1135 39.6213 39.4691 40.4633C39.8699 41.5496 40.5982 42.4916 41.5578 43.165C42.5194 43.8398 43.6679 44.213 44.8512 44.2352C46.0345 44.2574 47.1968 43.9275 48.1841 43.2894C49.1698 42.6522 49.9346 41.7374 50.3774 40.6663C50.9966 39.3018 51.2892 37.8171 51.2328 36.3253C51.199 35.2362 51.1408 34.1386 51.0829 33.0467C51.0545 32.511 51.0261 31.9765 51.0009 31.4453C50.9887 30.9126 50.8102 30.3963 50.4893 29.9657C50.2907 29.6934 50.026 29.4736 49.719 29.3261Z" fill="#3A3B7B"/>
<path d="M60.5981 37.5554C60.5668 37.5941 60.5337 37.6342 60.4993 37.6758C60.252 36.2628 60.023 34.8502 59.7937 33.4354C59.7115 32.9279 59.6288 32.4181 59.5456 31.9098L59.5363 31.8531L59.5056 31.8041C59.4478 31.7118 59.4422 31.6214 59.4426 31.4287L59.4427 31.4064L59.4392 31.3843C59.3772 30.9861 59.1939 30.6153 58.9132 30.3204C58.6334 30.0262 58.2695 29.8211 57.869 29.7316C57.4691 29.6342 57.0486 29.6545 56.6605 29.7901C56.2733 29.9253 55.9356 30.1691 55.6894 30.4909C55.4848 30.7378 55.3169 31.0119 55.191 31.3048C54.9051 31.9357 54.6167 32.5683 54.3276 33.2025L54.3226 33.2135C53.6007 34.7969 52.8739 36.391 52.1682 37.9976L52.166 38.0028C51.7327 39.0446 51.3744 40.1426 51.0174 41.2371C50.9461 41.4556 50.8748 41.674 50.8029 41.8918C50.6741 42.2372 50.6173 42.6042 50.6357 42.9713C50.6117 43.2998 50.6914 43.6278 50.8643 43.9109C51.0405 44.1997 51.3051 44.4272 51.6205 44.5614C51.9547 44.7056 52.3287 44.7369 52.6833 44.6503C53.037 44.5639 53.3515 44.3651 53.5771 44.0851C53.8651 43.7401 54.1131 43.3638 54.3156 42.965C54.9131 41.7766 55.4842 40.5737 56.0527 39.376C56.2728 38.9127 56.4864 38.4978 56.7295 38.0461C56.746 38.1019 56.7628 38.1563 56.7803 38.2109C57.0315 39.3035 57.4575 40.3505 58.0423 41.3134C58.1529 41.5174 58.3072 41.6958 58.4947 41.8363C58.6844 41.9786 58.9035 42.0786 59.1367 42.1297C59.37 42.1808 59.6118 42.1815 59.8453 42.1319C60.0786 42.0825 60.2988 41.9833 60.4892 41.8426L60.8662 41.568L63.7923 39.1689L63.6172 40.2448C63.3769 41.7236 63.1384 43.1902 62.8851 44.657C62.7201 45.307 62.7189 45.9863 62.8814 46.6369C62.9517 47.0029 63.1319 47.3402 63.3991 47.6057C63.6687 47.8733 64.0141 48.0555 64.3909 48.1287C64.7676 48.2018 65.1581 48.1627 65.5117 48.0161C65.8602 47.8717 66.1568 47.6296 66.3645 47.3207C66.8474 46.7376 67.1487 46.031 67.2327 45.285C67.359 44.2315 67.5014 43.1637 67.6439 42.0963C67.8081 40.8659 67.9722 39.6358 68.1112 38.4294L68.1116 38.4256C68.2458 37.1049 68.3122 35.7786 68.3107 34.4514C68.3404 34.032 68.2345 33.614 68.0077 33.2564C67.7801 32.8975 67.4426 32.6182 67.0432 32.4579C66.6278 32.2722 66.1625 32.2217 65.7156 32.3142C65.2717 32.4059 64.8695 32.6338 64.5674 32.9644C64.0276 33.4504 63.5211 33.9706 63.051 34.5216L63.0478 34.5253C62.5346 35.1478 62.0249 35.7825 61.5185 36.4131C61.2105 36.7964 60.9035 37.1788 60.5981 37.5554Z" fill="#3A3B7B"/>
</g>
<defs>
<clipPath id="clip0_1_2078">
<rect width="79.1771" height="49.7685" fill="white" transform="translate(0.510223 0.302368) rotate(0.12691)"/>
</clipPath>
</defs>
</svg>
