<svg width="190" height="48" viewBox="0 0 190 48" fill="none" xmlns="http://www.w3.org/2000/svg">
<g clip-path="url(#clip0_1_2094)">
<path d="M55.5238 33.1238L69.0427 33.1537L69.0517 29.0818L60.3378 29.0625L60.3717 13.7248L55.5668 13.7141L55.5238 33.1238Z" fill="#2F234F"/>
<path d="M77.0583 30.4568C75.1309 30.4525 74.1302 28.7672 74.1358 26.2426C74.1414 23.718 75.1496 22.01 77.077 22.0142C79.0043 22.0185 80.0321 23.731 80.0265 26.2556C80.0209 28.7802 78.9856 30.461 77.0583 30.4568ZM77.0784 33.6058C81.5576 33.6157 84.4964 30.4461 84.5057 26.2655C84.5149 22.085 81.5902 18.9024 77.111 18.8925C72.659 18.8826 69.6659 22.0521 69.6566 26.2326C69.6473 30.4132 72.6264 33.5959 77.0784 33.6058Z" fill="#2F234F"/>
<path d="M92.2327 38.0099C94.2959 38.0145 96.1157 37.557 97.3397 36.4739C98.4549 35.4719 99.1912 33.9534 99.1959 31.8631L99.2236 19.3215L94.9888 19.3121L94.9855 20.8051L94.9312 20.805C94.1194 19.6359 92.8723 18.9002 91.0263 18.8961C87.5787 18.8885 85.1835 21.7607 85.1745 25.8327C85.165 30.0946 88.0645 32.4357 91.1864 32.4426C92.8694 32.4463 93.9296 31.77 94.7461 30.8488L94.8547 30.8491L94.8516 32.2335C94.8479 33.9166 94.0585 34.8921 92.1854 34.888C90.7195 34.8847 89.9879 34.2587 89.7452 33.5252L85.4561 33.5157C85.884 36.4214 88.4051 38.0014 92.2327 38.0099ZM92.2252 29.1601C90.5693 29.1565 89.4864 27.7968 89.491 25.7065C89.4957 23.5891 90.5846 22.2342 92.2405 22.2378C94.0865 22.2419 95.0603 23.8186 95.0561 25.6917C95.0518 27.6462 94.1526 29.1644 92.2252 29.1601Z" fill="#2F234F"/>
<path d="M107.907 30.5251C105.979 30.5208 104.978 28.8355 104.984 26.3109C104.99 23.7863 105.998 22.0783 107.925 22.0826C109.853 22.0869 110.88 23.7994 110.875 26.324C110.869 28.8486 109.834 30.5294 107.907 30.5251ZM107.927 33.6741C112.406 33.6841 115.345 30.5144 115.354 26.3339C115.364 22.1534 112.438 18.9707 107.959 18.9608C103.507 18.951 100.514 22.1205 100.505 26.301C100.496 30.4815 103.475 33.6643 107.927 33.6741Z" fill="#2F234F"/>
<path d="M116.631 33.2591L121.056 33.269L121.086 19.37L116.661 19.3602L116.631 33.2591ZM116.666 17.4328L121.091 17.4426L121.099 13.8593L116.674 13.8495L116.666 17.4328Z" fill="#2F234F"/>
<path d="M122.965 37.8608L127.39 37.8706L127.403 31.8441L127.457 31.8442C128.323 33.0134 129.598 33.7221 131.389 33.726C135.027 33.7341 137.449 30.8619 137.459 26.3556C137.469 22.1751 135.223 18.994 131.531 18.9858C129.63 18.9816 128.271 19.8201 127.318 21.0668L127.237 21.0666L127.241 19.3835L123.006 19.3741L122.965 37.8608ZM130.257 30.3031C128.357 30.2989 127.274 28.7491 127.279 26.496C127.284 24.2428 128.265 22.5348 130.193 22.539C132.093 22.5432 132.985 24.1197 132.98 26.5086C132.975 28.8703 131.94 30.3068 130.257 30.3031Z" fill="#2F234F"/>
<path d="M144.648 33.7555C148.286 33.7635 150.977 32.195 150.983 29.1546C150.991 25.5984 148.115 24.9677 145.673 24.5551C143.909 24.2254 142.335 24.0862 142.337 23.1089C142.339 22.2402 143.182 21.8349 144.267 21.8373C145.489 21.84 146.33 22.2219 146.49 23.471L150.562 23.48C150.351 20.7378 148.237 19.0228 144.301 19.0141C141.016 19.0069 138.298 20.521 138.292 23.4528C138.284 26.7104 140.862 27.3676 143.277 27.7802C145.122 28.11 146.805 28.2495 146.802 29.4982C146.8 30.3941 145.958 30.8808 144.627 30.8779C143.161 30.8746 142.24 30.1939 142.08 28.8091L137.9 28.7998C138.029 31.8677 140.576 33.7464 144.648 33.7555Z" fill="#2F234F"/>
<path d="M156.983 33.7556C158.91 33.7598 160.134 33.0024 161.141 31.6473L161.222 31.6475L161.219 33.3577L165.453 33.3671L165.484 19.4682L161.059 19.4584L161.042 27.2222C161.038 28.8782 160.113 30.0163 158.593 30.0129C157.181 30.0098 156.504 29.1667 156.508 27.6465L156.526 19.4483L152.128 19.4386L152.108 28.5598C152.101 31.6545 153.78 33.7485 156.983 33.7556Z" fill="#2F234F"/>
<path d="M167.379 33.3713L171.803 33.3811L171.821 25.5901C171.824 23.9342 172.641 22.7687 174.026 22.7718C175.356 22.7747 175.978 23.6448 175.975 25.1378L175.957 33.3903L180.382 33.4001L180.399 25.6091C180.403 23.9532 181.192 22.7876 182.604 22.7908C183.934 22.7937 184.557 23.6638 184.553 25.1568L184.535 33.4093L188.96 33.4191L188.98 24.3794C188.987 21.2576 187.417 19.1095 184.268 19.1025C182.476 19.0986 180.982 19.8553 179.892 21.536L179.838 21.5359C179.135 20.0413 177.753 19.0881 175.934 19.0841C173.925 19.0796 172.593 20.0268 171.721 21.4636L171.64 21.4634L171.644 19.4818L167.409 19.4724L167.379 33.3713Z" fill="#2F234F"/>
<path fill-rule="evenodd" clip-rule="evenodd" d="M10.3688 4.85672C8.74806 5.98464 7.28179 7.31921 6.00818 8.82236C11.2002 8.35193 17.7934 9.15347 25.4415 12.9988C33.6087 17.1049 40.1923 17.2577 44.7764 16.384C44.3634 15.1243 43.8426 13.9133 43.2252 12.7618C37.9787 13.3034 31.2559 12.5563 23.4279 8.62068C18.457 6.12146 14.0727 5.08678 10.3688 4.85672ZM40.1708 8.39384C36.0389 3.7566 30.0257 0.830695 23.3258 0.815855C21.3582 0.811497 19.4486 1.05849 17.6276 1.52655C20.091 2.20457 22.7073 3.19431 25.4602 4.57841C31.1914 7.45988 36.1429 8.39454 40.1708 8.39384ZM45.7462 20.8047C40.2082 21.8855 32.5646 21.6441 23.4093 17.041C14.85 12.7377 8.02988 12.7765 3.42796 13.7885C3.19043 13.8407 2.95848 13.8956 2.73212 13.9528C2.12701 15.2612 1.64325 16.6373 1.29518 18.0667C1.66378 17.9691 2.04465 17.8764 2.43759 17.79C8.02052 16.5623 15.9047 16.6336 25.4229 21.4191C33.9823 25.7225 40.8023 25.6836 45.4043 24.6717C45.562 24.6371 45.7174 24.6012 45.8701 24.5642C45.8877 24.2076 45.8968 23.8487 45.8976 23.4879C45.8996 22.5802 45.8482 21.6848 45.7462 20.8047ZM45.121 29.3366C39.637 30.2829 32.2163 29.8986 23.3906 25.4614C14.8313 21.158 8.01122 21.1969 3.40931 22.2089C2.38782 22.4334 1.46874 22.7077 0.657882 22.9976C0.655386 23.1273 0.653992 23.2574 0.653704 23.3877C0.62603 35.8815 10.7318 46.0321 23.2255 46.0598C33.6962 46.083 42.5212 38.9889 45.121 29.3366Z" fill="#7F57F1"/>
</g>
<defs>
<clipPath id="clip0_1_2094">
<rect width="188.894" height="46.3752" fill="white" transform="translate(0.589813 0.433472) rotate(0.12691)"/>
</clipPath>
</defs>
</svg>
