<svg width="211" height="48" viewBox="0 0 211 48" fill="none" xmlns="http://www.w3.org/2000/svg">
<g clip-path="url(#clip0_1_2064)">
<path fill-rule="evenodd" clip-rule="evenodd" d="M66.9857 3.50849C66.9892 1.93696 68.2799 0.665817 69.8687 0.669336L74.8802 0.680436C76.0109 0.682941 77.106 1.07299 77.9788 1.7842L79.5005 3.02419L79.5386 3.05867C79.5738 3.047 79.609 3.03561 79.6443 3.0245C82.3966 2.15921 85.7339 2.00088 89.1398 2.00843C92.5456 2.01597 95.8822 2.18908 98.6307 3.06656C98.666 3.07782 98.7011 3.08937 98.7363 3.10119L98.7745 3.06688L100.302 1.83365C101.178 1.12631 102.274 0.741115 103.405 0.743619L108.417 0.75472C110.005 0.758239 111.29 2.03508 111.287 3.60662L111.283 5.36569C111.28 6.72668 110.698 8.02343 109.679 8.93782L108.446 10.0436C107.845 10.5834 107.123 10.9756 106.34 11.1886L106.049 11.2677C107.182 13.9599 107.806 16.8364 107.801 19.1621C107.78 28.5179 101.919 32.5456 96.7543 36.0944C92.6874 38.8892 89.0526 41.3869 89.0424 45.956C89.0526 41.3869 85.4289 38.8731 81.3743 36.0603C76.2257 32.4887 70.3825 28.4351 70.4032 19.0793C70.4084 16.7535 71.0443 13.8799 72.1899 11.1927L71.8991 11.1123C71.1169 10.8959 70.3971 10.5004 69.7979 9.95796L68.5705 8.84677C67.5555 7.92787 66.9788 6.62855 66.9818 5.26756L66.9857 3.50849ZM92.8247 26.7777C92.8237 27.2247 92.6257 27.6529 92.2744 27.9682C91.923 28.2835 91.447 28.46 90.951 28.4589C90.5229 28.458 90.1101 28.3246 89.7801 28.0843C90.3395 29.5752 91.7761 30.9899 93.9711 28.7249C95.909 26.62 93.8996 22.167 91.9383 19.5229C91.2845 18.6415 90.209 18.2157 89.1039 18.2132C87.9988 18.2108 86.9214 18.6319 86.2638 19.5103C84.2907 22.1457 82.2616 26.5897 84.1902 28.7032C86.3751 30.9779 87.818 29.5696 88.3839 28.0812C88.0529 28.32 87.6395 28.4516 87.2114 28.4506C86.7154 28.4495 86.2402 28.2709 85.8902 27.9541C85.5403 27.6372 85.3442 27.2082 85.3452 26.7611L92.8247 26.7777ZM81.9535 13.5852L76.7443 13.5737L80.8424 16.8343C81.7442 17.5517 83.0652 17.326 83.6263 16.3584C84.3348 15.1368 83.4008 13.5884 81.9535 13.5852ZM96.2748 13.6169L101.484 13.6285L97.3714 16.8709C96.4664 17.5844 95.1465 17.3527 94.5896 16.3827C93.8865 15.158 94.8274 13.6137 96.2748 13.6169Z" fill="#72B800"/>
<path d="M117.428 32.8228L122.043 32.833L122.081 15.4254L117.466 15.4151L117.428 32.8228ZM117.472 12.7005L122.087 12.7107L122.096 8.57089L117.482 8.56067L117.472 12.7005Z" fill="#355030"/>
<path d="M125.004 38.5404L129.619 38.5507L129.636 30.8818L129.703 30.882C130.684 32.3772 132.277 33.3648 134.72 33.3702C139.199 33.3801 142.261 29.8239 142.274 24.191C142.286 18.7618 139.342 14.9887 134.727 14.9785C132.352 14.9732 130.72 16.0894 129.597 17.6139L129.495 17.6136L129.5 15.4419L125.055 15.4321L125.004 38.5404ZM133.744 29.5336C130.996 29.5275 129.541 27.4544 129.548 24.2986C129.555 21.1768 130.715 18.7022 133.599 18.7086C136.449 18.7149 137.598 21.0249 137.59 24.3164C137.583 27.6079 136.086 29.5388 133.744 29.5336Z" fill="#355030"/>
<path d="M151.459 33.4069C155.803 33.4165 158.793 31.3193 158.801 27.8242C158.81 23.7522 155.588 22.9307 152.671 22.3135C150.195 21.799 147.888 21.6581 147.892 20.1651C147.894 18.9096 149.084 18.2335 150.882 18.2375C152.85 18.2419 154.036 18.9232 154.236 20.7899L158.409 20.7992C158.078 17.3033 155.538 15.0242 150.957 15.014C146.987 15.0052 143.861 16.7968 143.853 20.5633C143.844 24.3638 146.896 25.2189 150.017 25.8366C152.391 26.3169 154.596 26.4915 154.593 28.1542C154.59 29.3758 153.435 30.1537 151.399 30.1492C149.329 30.1446 147.905 29.2592 147.604 27.2565L143.329 27.247C143.592 30.9463 146.403 33.3957 151.459 33.4069Z" fill="#355030"/>
<path d="M176.312 32.953L176.35 15.5454L171.735 15.5351L171.713 25.5793C171.708 27.8867 170.381 29.5126 168.209 29.5078C166.241 29.5034 165.328 28.3816 165.332 26.3456L165.356 15.521L160.775 15.5109L160.749 27.1159C160.741 30.9164 162.907 33.3984 166.776 33.4069C169.219 33.4123 170.578 32.4991 171.769 30.9069L171.871 30.9072L171.867 32.9431L176.312 32.953Z" fill="#355030"/>
<path d="M179.297 32.9598L183.912 32.97L183.934 22.858C183.939 20.5506 185.198 19.0603 187.064 19.0644C188.761 19.0682 189.743 20.0884 189.738 22.0565L189.714 32.9829L194.329 32.9931L194.351 22.8811C194.356 20.5737 195.547 19.0832 197.482 19.0875C199.178 19.0913 200.16 20.1114 200.156 22.0796L200.131 33.006L204.746 33.0162L204.772 21.3093C204.781 17.5088 202.716 15.1289 199.051 15.1208C196.846 15.1159 195.011 16.2656 193.819 18.1632L193.751 18.1631C192.907 16.3288 191.145 15.1033 188.939 15.0984C186.53 15.0931 184.831 16.3109 183.877 17.9037L183.775 17.9034L183.78 15.5621L179.335 15.5522L179.297 32.9598Z" fill="#355030"/>
<path d="M0.917878 32.5646L5.53276 32.5748L5.5865 8.31271L0.971619 8.30249L0.917878 32.5646Z" fill="#355030"/>
<path d="M16.8157 33.1088C22.2111 33.1208 25.9187 29.1249 25.9302 23.9331C25.9416 18.7414 22.2518 14.7291 16.8565 14.7172C11.4611 14.7052 7.75352 18.7011 7.74202 23.8929C7.73052 29.0846 11.4203 33.0969 16.8157 33.1088ZM16.8236 29.5798C13.9732 29.5735 12.4173 27.2965 12.4248 23.9032C12.4323 20.5099 13.9984 18.2059 16.8487 18.2123C19.6652 18.2185 21.2549 20.5295 21.2474 23.9228C21.2399 27.3161 19.64 29.586 16.8236 29.5798Z" fill="#355030"/>
<path d="M35.7118 38.58C38.2907 38.5858 40.5316 37.9799 41.9938 36.6258C43.2858 35.441 44.07 33.7801 44.0754 31.3369L44.111 15.2527L39.6658 15.2428L39.6617 17.0752L39.5939 17.075C38.5452 15.6136 36.9522 14.7617 34.7805 14.7569C30.3692 14.7471 27.24 18.0657 27.2285 23.2574C27.2169 28.517 31.0106 31.5794 34.8789 31.588C37.0846 31.5929 38.4099 30.7135 39.4305 29.5621L39.5323 29.5623L39.5281 31.4625C39.5228 33.8378 38.2645 35.0906 35.6517 35.0848C33.5139 35.0801 32.5317 34.2296 32.1609 33.1429L27.5799 33.1327C28.0474 36.5271 30.9612 38.5695 35.7118 38.58ZM35.6676 27.891C33.2923 27.8857 31.7352 26.1517 31.7417 23.1995C31.7482 20.2813 33.3132 18.4524 35.6546 18.4576C38.4371 18.4637 39.7896 20.6384 39.7839 23.1834C39.7782 25.7623 38.5858 27.8975 35.6676 27.891Z" fill="#355030"/>
<path d="M55.2885 33.194C60.6839 33.206 64.3914 29.2101 64.4029 24.0183C64.4144 18.8266 60.7246 14.8143 55.3293 14.8024C49.9339 14.7904 46.2264 18.7863 46.2149 23.9781C46.2034 29.1698 49.8932 33.1821 55.2885 33.194ZM55.2963 29.665C52.446 29.6587 50.8901 27.3817 50.8976 23.9884C50.9051 20.5951 52.4712 18.2912 55.3215 18.2975C58.138 18.3037 59.7277 20.6147 59.7202 24.008C59.7127 27.4013 58.1128 29.6713 55.2963 29.665Z" fill="#355030"/>
<path d="M204.585 11.8076C204.587 11.0267 205.221 10.3951 206.002 10.3968L208.83 10.4031C209.61 10.4048 210.242 11.0392 210.241 11.8201C210.239 12.6009 209.604 13.2326 208.824 13.2308L205.996 13.2246C205.214 13.2228 204.584 12.5884 204.585 11.8076Z" fill="#355030"/>
</g>
<defs>
<clipPath id="clip0_1_2064">
<rect width="210.385" height="46.3752" fill="white" transform="translate(0.215637 0.27417) rotate(0.12691)"/>
</clipPath>
</defs>
</svg>
