<svg width="143" height="51" viewBox="0 0 143 51" fill="none" xmlns="http://www.w3.org/2000/svg">
<g clip-path="url(#clip0_1_2106)">
<path fill-rule="evenodd" clip-rule="evenodd" d="M131.147 31.8977C129.671 32.0178 128.158 31.4704 127.093 30.2821L123.591 26.3771C122.394 25.0416 121.475 23.5048 120.863 21.855C120.795 21.8813 120.726 21.9095 120.659 21.9395C121.105 23.4082 121.793 24.8071 122.71 26.0744L125.783 30.3238C126.924 31.902 128.852 32.5746 130.641 32.1932C130.718 32.1545 130.794 32.1135 130.87 32.0701C130.965 32.0153 131.058 31.9579 131.147 31.8977ZM131.382 31.7309C129.871 31.9327 128.291 31.4082 127.197 30.188L123.697 26.2831C122.512 24.961 121.602 23.4398 120.995 21.8068C121.054 21.7866 121.112 21.7678 121.171 21.7503C121.964 23.5362 123.128 25.1555 124.606 26.4918L128.495 30.0095C129.464 30.8861 130.688 31.3038 131.899 31.276C131.74 31.4383 131.567 31.5905 131.382 31.7309ZM131.437 31.8655C131.354 31.9274 131.269 31.9871 131.182 32.0442C131.371 31.9797 131.558 31.9026 131.74 31.8129C131.64 31.8336 131.539 31.8511 131.437 31.8655ZM132.225 31.5392C132.041 31.5991 131.854 31.6474 131.666 31.6842C131.821 31.5533 131.966 31.4139 132.102 31.2672C132.301 31.2544 132.501 31.2293 132.697 31.1923C132.614 31.2617 132.527 31.3286 132.439 31.3931C132.368 31.444 132.296 31.4927 132.225 31.5392ZM132.286 31.6675C131.784 31.9885 131.243 32.207 130.688 32.3273C128.381 33.4831 125.542 32.6484 124.24 30.3812L121.628 25.8338C120.968 24.6847 120.479 23.4595 120.166 22.1958L116.467 24.3205C114.117 25.6704 111.117 24.8596 109.767 22.5093C109.419 21.9032 109.215 21.2539 109.143 20.6008C108.934 20.0433 108.833 19.469 108.83 18.9022C108.68 18.3257 108.639 17.7437 108.696 17.1797C108.607 16.5913 108.628 16.0089 108.743 15.4544C108.716 14.8591 108.797 14.2812 108.97 13.741C109.005 13.1461 109.147 12.5799 109.375 12.0608C109.472 11.4731 109.672 10.925 109.954 10.4328C110.112 9.85874 110.368 9.33461 110.699 8.87465C110.916 8.32036 111.225 7.8259 111.602 7.40314C111.876 6.87429 112.236 6.41462 112.655 6.03345C112.983 5.53625 113.388 5.1167 113.845 4.78154C114.224 4.32129 114.67 3.94636 115.16 3.66081C115.585 3.24264 116.067 2.91652 116.585 2.68374C117.05 2.31221 117.566 2.03843 118.103 1.86097C118.605 1.54012 119.146 1.32168 119.7 1.20145C122.008 0.0453444 124.847 0.879982 126.149 3.14734L128.326 6.93883C129.142 8.3575 129.696 9.89208 129.98 11.472L133.924 9.20728C136.274 7.85731 139.273 8.66816 140.624 11.0184C140.971 11.6242 141.175 12.273 141.247 12.9257C141.456 13.4834 141.558 14.0579 141.56 14.6249C141.71 15.2012 141.751 15.783 141.694 16.3471C141.784 16.9366 141.763 17.5201 141.648 18.0755C141.674 18.6703 141.593 19.2477 141.42 19.7873C141.385 20.3815 141.244 20.9472 141.016 21.4659C140.918 22.0535 140.719 22.6016 140.437 23.0937C140.279 23.6681 140.023 24.1924 139.692 24.6526C139.475 25.2074 139.166 25.7023 138.787 26.1254C138.513 26.6541 138.154 27.1137 137.735 27.4947C137.407 27.992 137.002 28.4116 136.544 28.7468C136.166 29.207 135.719 29.5819 135.23 29.8674C134.806 30.2857 134.322 30.6118 133.804 30.8446C133.339 31.2163 132.825 31.4901 132.286 31.6675ZM133.278 31.0461C133.106 31.1545 132.928 31.2507 132.746 31.3346C132.827 31.2685 132.906 31.2003 132.981 31.1301C133.081 31.1052 133.18 31.0772 133.278 31.0461ZM134.228 30.4655C134.399 30.3629 134.566 30.2487 134.727 30.123C134.633 30.1642 134.538 30.2023 134.441 30.2374C134.372 30.3152 134.302 30.3912 134.228 30.4655ZM134.164 30.3291C134.089 30.4067 134.01 30.4823 133.928 30.5557C133.864 30.6137 133.798 30.6695 133.731 30.7233C133.555 30.8021 133.373 30.8697 133.19 30.926C133.331 30.7795 133.461 30.6258 133.58 30.4656C133.777 30.432 133.973 30.3864 134.164 30.3291ZM134.626 30.0127C134.803 29.9375 134.976 29.8514 135.144 29.7546C135.204 29.694 135.264 29.6316 135.322 29.5671C135.396 29.4856 135.466 29.4022 135.533 29.3171C135.348 29.3943 135.159 29.4601 134.967 29.5142C134.865 29.6858 134.751 29.8523 134.626 30.0127ZM134.77 29.565C134.647 29.7568 134.51 29.9414 134.359 30.1173C134.143 30.1942 133.922 30.2553 133.698 30.3004C133.834 30.1013 133.955 29.8937 134.058 29.6792C134.298 29.6586 134.536 29.6202 134.77 29.565ZM135.067 29.3375C135.284 29.2692 135.498 29.1853 135.704 29.0862C135.837 28.8954 135.954 28.6974 136.056 28.4938C135.828 28.5733 135.596 28.6362 135.36 28.6819C135.279 28.906 135.181 29.1252 135.067 29.3375ZM135.199 28.7103C135.109 28.9446 135.001 29.1732 134.874 29.3934C134.63 29.4589 134.38 29.5051 134.127 29.5312C134.238 29.2849 134.327 29.0305 134.394 28.7709C134.665 28.773 134.935 28.7524 135.199 28.7103ZM135.254 28.5581C135.344 28.296 135.411 28.0274 135.454 27.7555C135.155 27.7756 134.853 27.7685 134.549 27.7323C134.537 28.0348 134.495 28.3354 134.428 28.6302C134.706 28.6303 134.983 28.6058 135.254 28.5581ZM135.413 28.5275C135.497 28.2709 135.558 28.0087 135.598 27.7436C135.868 27.7173 136.134 27.6686 136.393 27.599C136.329 27.8415 136.245 28.0801 136.141 28.3124C135.905 28.403 135.661 28.4751 135.413 28.5275ZM136.246 28.4228C136.162 28.6041 136.067 28.7816 135.96 28.9542C136.128 28.8609 136.291 28.7573 136.447 28.6436C136.501 28.5769 136.554 28.5085 136.605 28.4384C136.669 28.3495 136.731 28.2593 136.789 28.1677C136.613 28.2637 136.432 28.3489 136.246 28.4228ZM136.935 27.9201C136.74 28.0401 136.536 28.1458 136.327 28.2366C136.419 28.0135 136.493 27.7854 136.55 27.554C136.781 27.4839 137.005 27.3971 137.223 27.2944C137.143 27.5074 137.046 27.7165 136.935 27.9201ZM137.04 28.0205C136.99 28.1108 136.937 28.1999 136.879 28.2879C137.026 28.1519 137.166 28.0055 137.296 27.8491C137.212 27.909 137.127 27.9662 137.04 28.0205ZM137.627 27.4022C137.483 27.5317 137.333 27.6518 137.175 27.7621C137.264 27.5794 137.34 27.3928 137.404 27.2037C137.582 27.1109 137.753 27.0073 137.918 26.8934C137.869 26.9904 137.818 27.0866 137.762 27.1817C137.719 27.2568 137.674 27.3304 137.627 27.4022ZM138.02 27.0034C138.152 26.8528 138.275 26.6927 138.388 26.5236C138.311 26.5919 138.233 26.6576 138.152 26.7207C138.112 26.8158 138.067 26.91 138.02 27.0034ZM138.259 26.4497C138.328 26.2586 138.385 26.0652 138.428 25.8703C138.595 25.7594 138.754 25.6384 138.906 25.5078C138.87 25.6094 138.828 25.7105 138.783 25.8108C138.747 25.8901 138.711 25.9681 138.671 26.0446C138.542 26.1884 138.403 26.3236 138.259 26.4497ZM138.037 26.6319C138.127 26.4176 138.2 26.1996 138.257 25.9795C138.052 26.1043 137.838 26.2141 137.616 26.3079C137.583 26.544 137.534 26.7787 137.465 27.0101C137.665 26.898 137.855 26.7716 138.037 26.6319ZM137.289 27.105C137.367 26.8631 137.425 26.617 137.464 26.369C137.214 26.4654 136.955 26.5415 136.689 26.5959C136.677 26.8638 136.643 27.131 136.587 27.3948C136.828 27.3168 137.063 27.2198 137.289 27.105ZM136.433 27.442C136.494 27.172 136.532 26.8978 136.547 26.6228C136.252 26.6742 135.95 26.6988 135.644 26.6945C135.663 26.9965 135.655 27.2998 135.618 27.6C135.895 27.571 136.167 27.5178 136.433 27.442ZM135.474 27.6128C135.513 27.3071 135.523 26.9982 135.502 26.6905C135.229 26.6787 134.953 26.644 134.676 26.5844L134.452 26.5364C134.525 26.8852 134.558 27.2387 134.553 27.5909C134.862 27.6286 135.171 27.6353 135.474 27.6128ZM134.412 27.5716C134.415 27.2149 134.379 26.8566 134.302 26.504L133.104 26.2466C133.23 26.5906 133.317 26.9427 133.362 27.2965L133.641 27.3878C133.897 27.4715 134.154 27.5324 134.412 27.5716ZM133.214 27.2477C133.163 26.8979 133.072 26.5503 132.939 26.2114L129.549 25.4828C126.826 24.8976 124.358 23.5265 122.435 21.5689C122.42 21.5688 122.405 21.5687 122.391 21.5688C124.043 23.4956 126.205 24.9533 128.658 25.7562L133.214 27.2477ZM122.21 21.5734C123.888 23.5628 126.1 25.0671 128.613 25.8901L133.233 27.4025C133.274 27.7614 133.273 28.1215 133.232 28.4759C132.98 28.4101 132.73 28.3226 132.485 28.2125L127.698 26.069C125.467 25.0698 123.558 23.514 122.137 21.5774C122.161 21.5759 122.186 21.5746 122.21 21.5734ZM122.273 21.43C122.282 21.4297 122.291 21.4295 122.3 21.4293C122.254 21.3809 122.208 21.3322 122.163 21.2832C122.158 21.2826 122.155 21.2819 122.15 21.2813C122.191 21.3312 122.232 21.3807 122.273 21.43ZM121.948 21.2539C121.998 21.316 122.047 21.3777 122.098 21.4389C122.079 21.4402 122.06 21.4416 122.04 21.4433C121.994 21.3789 121.949 21.3144 121.904 21.2492C121.919 21.2507 121.933 21.2523 121.948 21.2539ZM122.639 21.5749C124.528 23.4572 126.932 24.7762 129.578 25.345L132.875 26.0533C132.803 25.8871 132.721 25.7234 132.628 25.5627L132.417 25.1926L130.437 24.9799C127.534 24.6685 124.821 23.4691 122.651 21.5755C122.647 21.5754 122.644 21.5751 122.639 21.5749ZM123.073 21.7478C125.163 23.4616 127.723 24.5471 130.452 24.8399L132.33 25.0415L131.955 24.3887L131.266 24.3872C128.308 24.3806 125.447 23.4469 123.073 21.7478ZM132.118 24.3891L132.503 25.0601L133.803 25.1997C133.715 25.042 133.616 24.8876 133.508 24.7375L133.258 24.3916L132.118 24.3891ZM133.156 24.2505L132.036 24.248L131.743 23.7374C131.838 23.7295 131.935 23.7206 132.03 23.7108L132.714 23.6403L133.156 24.2505ZM133.432 24.392L133.622 24.6549C133.753 24.8371 133.872 25.0252 133.974 25.2181L135.218 25.3516C135.095 25.0201 134.934 24.699 134.735 24.3948L133.432 24.392ZM134.639 24.2538L133.33 24.2509L132.876 23.6237L134.011 23.507L134.296 23.8247C134.419 23.9627 134.534 24.1061 134.639 24.2538ZM134.902 24.3952C135.098 24.7055 135.255 25.0319 135.374 25.3683L135.666 25.3996C135.933 25.4284 136.199 25.4343 136.458 25.4191C136.387 25.0696 136.277 24.7267 136.128 24.3979L134.902 24.3952ZM136.061 24.257L134.81 24.2542C134.687 24.0731 134.551 23.8981 134.4 23.7307L134.184 23.4892L135.48 23.3559C135.71 23.6375 135.904 23.94 136.061 24.257ZM136.282 24.3983C136.425 24.7245 136.531 25.0635 136.6 25.4087C136.91 25.3812 137.213 25.3237 137.505 25.2385C137.48 24.9314 137.425 24.6273 137.342 24.3306C137.072 24.376 136.794 24.3994 136.511 24.3988L136.282 24.3983ZM137.301 24.1944C137.044 24.2367 136.78 24.2586 136.511 24.258L136.218 24.2573C136.065 23.9352 135.875 23.6267 135.648 23.3387L136.866 23.2133C137.049 23.5247 137.194 23.8542 137.301 24.1944ZM137.481 24.305C137.562 24.5966 137.617 24.8948 137.643 25.196C137.908 25.1102 138.163 25.0015 138.407 24.8723C138.412 24.5952 138.392 24.3191 138.348 24.0472C138.071 24.1587 137.781 24.2456 137.481 24.305ZM138.324 23.9052C138.042 24.0205 137.747 24.1096 137.441 24.1693C137.337 23.833 137.196 23.507 137.02 23.1975L137.246 23.1742C137.528 23.1452 137.802 23.0928 138.067 23.0195C138.18 23.3058 138.267 23.6025 138.324 23.9052ZM138.482 23.9913C138.527 24.2559 138.549 24.5243 138.548 24.794C138.768 24.6674 138.977 24.5237 139.175 24.3644C139.201 24.1114 139.207 23.8585 139.193 23.608C138.969 23.7544 138.731 23.8828 138.482 23.9913ZM139.182 23.4467C138.953 23.6008 138.711 23.7355 138.456 23.8486C138.398 23.5519 138.313 23.2608 138.201 22.9795C138.495 22.889 138.774 22.7723 139.038 22.6323C139.11 22.8982 139.158 23.1707 139.182 23.4467ZM139.329 23.5167C139.347 23.7544 139.346 23.9944 139.328 24.2349C139.499 24.0837 139.66 23.9203 139.808 23.7456C139.852 23.5175 139.878 23.289 139.888 23.0619C139.713 23.2267 139.526 23.3788 139.329 23.5167ZM139.893 22.8613C139.714 23.0403 139.52 23.2051 139.315 23.354C139.287 23.0858 139.237 22.8212 139.165 22.5627C139.402 22.4288 139.624 22.2763 139.832 22.1072C139.872 22.3549 139.892 22.6069 139.893 22.8613ZM140.033 22.9195C140.03 23.1192 140.015 23.32 139.987 23.5212C140.103 23.3677 140.21 23.2068 140.306 23.0391C140.329 22.9564 140.35 22.8726 140.367 22.7878C140.391 22.6802 140.41 22.5727 140.425 22.4653C140.304 22.6247 140.172 22.7763 140.033 22.9195ZM140.458 22.1798C140.328 22.3689 140.186 22.5482 140.031 22.7164C140.025 22.4754 139.999 22.2367 139.958 22.0021C140.139 21.8444 140.309 21.6737 140.466 21.4917C140.48 21.7185 140.477 21.9483 140.458 22.1798ZM140.595 22.2286C140.586 22.3316 140.573 22.4348 140.556 22.5381C140.636 22.3543 140.703 22.1641 140.759 21.9683C140.707 22.0568 140.652 22.1437 140.595 22.2286ZM140.879 21.4253C140.8 21.602 140.712 21.7731 140.613 21.9378C140.619 21.7349 140.614 21.5336 140.595 21.3348C140.719 21.178 140.833 21.0136 140.938 20.8426C140.933 20.9508 140.926 21.0596 140.913 21.1689C140.904 21.2552 140.893 21.3406 140.879 21.4253ZM141.076 20.9008C141.135 20.71 141.183 20.5139 141.217 20.3137C141.175 20.407 141.13 20.499 141.082 20.5893C141.083 20.6926 141.082 20.7964 141.076 20.9008ZM141.069 20.2981C141.15 20.1242 141.22 19.945 141.281 19.7611C141.285 19.6752 141.288 19.5888 141.288 19.5018C141.288 19.3921 141.285 19.2833 141.277 19.1754C141.192 19.3563 141.096 19.5316 140.989 19.7005C141.027 19.8962 141.055 20.0957 141.069 20.2981ZM140.944 19.5022C141.061 19.3058 141.163 19.1009 141.25 18.8893C141.221 18.6587 141.176 18.4331 141.114 18.214C141 18.4245 140.869 18.6266 140.724 18.8186C140.814 19.0394 140.888 19.2678 140.944 19.5022ZM140.624 18.9474C140.714 19.1814 140.786 19.4239 140.839 19.6728C140.701 19.8849 140.547 20.0861 140.377 20.2743C140.294 20.0178 140.189 19.7694 140.066 19.5313C140.268 19.3514 140.455 19.1559 140.624 18.9474ZM140.66 18.6683C140.81 18.4634 140.942 18.2471 141.057 18.0217C140.979 17.7797 140.882 17.5462 140.767 17.3229C140.622 17.548 140.456 17.7618 140.273 17.9619C140.421 18.1857 140.551 18.4219 140.66 18.6683ZM140.175 18.0674C140.324 18.2982 140.454 18.5425 140.562 18.7974C140.393 19.0144 140.204 19.2175 139.998 19.4035C139.85 19.1393 139.68 18.8888 139.487 18.6556C139.736 18.4794 139.966 18.2821 140.175 18.0674ZM140.192 17.842C140.378 17.6353 140.545 17.4136 140.691 17.1801C140.556 16.9378 140.402 16.7085 140.228 16.4946C140.043 16.7299 139.836 16.9501 139.606 17.1515C139.822 17.3633 140.019 17.5945 140.192 17.842ZM139.498 17.2432C139.719 17.4584 139.919 17.6944 140.094 17.9477C139.884 18.1675 139.649 18.3689 139.394 18.548C139.163 18.2832 138.901 18.0426 138.614 17.8315L138.813 17.7181C139.057 17.5771 139.287 17.4179 139.498 17.2432ZM139.503 17.054C139.739 16.8494 139.95 16.6246 140.136 16.3839C139.265 15.3706 137.973 14.7279 136.532 14.7247L131.287 14.7131C130.915 14.7123 130.548 14.6647 130.193 14.5739C130.188 14.6716 130.183 14.7695 130.177 14.8672C130.587 15.0514 131.028 15.1721 131.484 15.2211L136.698 15.7807C137.788 15.8977 138.756 16.3631 139.503 17.054ZM130.167 15.0167C130.577 15.1952 131.016 15.3124 131.469 15.3611L136.683 15.9209C137.735 16.0338 138.671 16.4811 139.395 17.1456C139.194 17.311 138.975 17.4619 138.742 17.5961L138.488 17.7416C137.975 17.3883 137.385 17.1275 136.738 16.9884L131.61 15.8868C131.084 15.7734 130.587 15.5636 130.146 15.2728C130.153 15.1875 130.16 15.1021 130.167 15.0167ZM130.039 14.8026C130.045 14.7137 130.049 14.6247 130.052 14.5358C130.021 14.5265 129.988 14.5168 129.956 14.5067C129.96 14.5923 129.962 14.6779 129.963 14.7637C129.987 14.777 130.013 14.7899 130.039 14.8026ZM129.963 14.9222C129.986 14.9332 130.007 14.9438 130.03 14.9544C130.024 15.0302 130.018 15.1058 130.011 15.1816C129.996 15.1697 129.979 15.1577 129.962 15.1454C129.963 15.071 129.963 14.9966 129.963 14.9222ZM129.82 14.6869C129.818 14.6109 129.817 14.535 129.814 14.4591C129.791 14.4509 129.768 14.4426 129.745 14.434C129.753 14.508 129.761 14.5821 129.767 14.6562C129.784 14.6666 129.802 14.6768 129.82 14.6869ZM129.782 14.8266C129.795 14.8341 129.809 14.8416 129.822 14.849C129.823 14.9121 129.823 14.9752 129.822 15.0383C129.813 15.0311 129.804 15.0237 129.795 15.0163C129.79 14.9531 129.786 14.8897 129.782 14.8266ZM129.617 14.5644C129.61 14.5015 129.604 14.4387 129.597 14.376C129.582 14.3701 129.569 14.3642 129.554 14.3581C129.565 14.4205 129.576 14.483 129.588 14.5455C129.597 14.5518 129.607 14.5581 129.617 14.5644ZM129.618 14.7315C129.623 14.7344 129.628 14.7375 129.632 14.7404C129.637 14.7897 129.641 14.8392 129.645 14.8885L129.641 14.8856C129.634 14.8342 129.627 14.7827 129.618 14.7315ZM129.425 14.4341C129.416 14.3853 129.407 14.3367 129.397 14.288C129.392 14.2855 129.387 14.2829 129.381 14.2804C129.395 14.3307 129.408 14.381 129.42 14.4314L129.425 14.4341ZM129.332 14.0988C129.342 14.1041 129.352 14.1093 129.362 14.1146C129.35 14.0527 129.337 13.9908 129.323 13.929C129.308 13.9246 129.294 13.9202 129.279 13.9156C129.297 13.9765 129.314 14.0375 129.332 14.0988ZM129.115 13.8622C129.13 13.9098 129.144 13.9573 129.158 14.0051L129.154 14.0028C129.136 13.9539 129.117 13.9051 129.099 13.8564C129.105 13.8584 129.11 13.8603 129.115 13.8622ZM129.23 13.752C129.249 13.7585 129.268 13.7647 129.287 13.7709C129.27 13.6967 129.253 13.6227 129.235 13.5489C129.21 13.5457 129.186 13.5424 129.161 13.5388C129.185 13.6097 129.207 13.6808 129.23 13.752ZM129.004 13.5128C129.024 13.5729 129.044 13.633 129.064 13.6933C129.052 13.6892 129.041 13.6852 129.031 13.6809C129.007 13.6218 128.983 13.5629 128.959 13.5041C128.973 13.5071 128.989 13.5101 129.004 13.5128ZM129.112 13.3884C129.14 13.3931 129.168 13.3975 129.196 13.4016C129.174 13.3153 129.15 13.2293 129.127 13.1437C129.093 13.1447 129.06 13.1453 129.026 13.1456C129.055 13.2263 129.084 13.3072 129.112 13.3884ZM128.876 13.1445C128.902 13.2158 128.928 13.2874 128.952 13.3593C128.932 13.3552 128.913 13.351 128.892 13.3466C128.863 13.2781 128.833 13.21 128.802 13.1419C128.827 13.143 128.852 13.1438 128.876 13.1445ZM128.975 13.0049C129.012 13.005 129.049 13.0046 129.087 13.0038C129.057 12.9046 129.027 12.8057 128.997 12.7072C128.954 12.7156 128.912 12.7234 128.87 12.7306C128.906 12.8216 128.941 12.9131 128.975 13.0049ZM128.726 12.7525C128.76 12.8353 128.791 12.9184 128.823 13.0018C128.795 13.0007 128.765 12.9993 128.737 12.9977C128.701 12.9198 128.665 12.8422 128.628 12.765C128.661 12.7612 128.693 12.7571 128.726 12.7525ZM128.816 12.5968C128.861 12.5893 128.908 12.5811 128.953 12.5723C128.916 12.4585 128.876 12.3453 128.836 12.2327C128.786 12.252 128.736 12.2705 128.685 12.288C128.73 12.3904 128.773 12.4933 128.816 12.5968ZM128.552 12.3322C128.592 12.4268 128.633 12.522 128.672 12.6177C128.635 12.6224 128.599 12.6266 128.561 12.6305C128.517 12.5427 128.474 12.4554 128.429 12.3687C128.469 12.3571 128.51 12.345 128.552 12.3322ZM128.629 12.1586C128.682 12.1403 128.736 12.1207 128.789 12.1003C128.014 9.99569 126.737 8.08818 125.044 6.55617L121.8 3.62323C120.821 2.73764 119.575 2.33424 118.353 2.39839C118.182 2.58723 118.029 2.78815 117.893 2.99879C118.812 3.04627 119.729 3.35279 120.528 3.93624L124.06 6.51414C126.066 7.9783 127.632 9.93064 128.629 12.1586ZM117.806 3.1361C118.726 3.16849 119.646 3.46681 120.445 4.05003L123.977 6.62793C125.959 8.0745 127.507 10.0024 128.494 12.2025C128.449 12.2161 128.405 12.229 128.361 12.2411C127.132 9.94685 125.282 8.01645 122.995 6.68889L119.213 4.49428C118.651 4.16808 118.051 3.96597 117.445 3.87949C117.543 3.62255 117.664 3.37369 117.806 3.1361ZM117.729 2.99307C117.855 2.7908 117.996 2.59684 118.153 2.4131C117.926 2.43461 117.699 2.47236 117.476 2.52627C117.307 2.68526 117.152 2.85457 117.01 3.0325C117.248 3.0019 117.489 2.98866 117.729 2.99307ZM116.889 3.19226C117.139 3.15264 117.391 3.13281 117.645 3.13315C117.511 3.36663 117.396 3.61024 117.301 3.86117C117.031 3.83088 116.762 3.82322 116.494 3.83748C116.607 3.61375 116.739 3.39787 116.889 3.19226ZM116.809 3.06256C116.929 2.90254 117.058 2.74877 117.199 2.60234C117.016 2.65865 116.836 2.72623 116.659 2.80502C116.592 2.85886 116.525 2.91479 116.461 2.97282C116.379 3.04614 116.301 3.12165 116.225 3.19918C116.417 3.14178 116.612 3.09618 116.809 3.06256ZM116.031 3.41103C116.246 3.33414 116.467 3.27297 116.691 3.22782C116.555 3.42686 116.434 3.63454 116.331 3.84887C116.091 3.86964 115.854 3.90794 115.619 3.96324C115.742 3.7715 115.879 3.58687 116.031 3.41103ZM115.949 3.29092C116.017 3.21321 116.087 3.13719 116.161 3.06304C115.99 3.16549 115.823 3.27958 115.663 3.40525C115.757 3.36412 115.853 3.326 115.949 3.29092ZM115.246 3.7737C115.414 3.67691 115.586 3.59084 115.763 3.51567C115.638 3.67601 115.525 3.84254 115.422 4.01415C115.23 4.0682 115.041 4.13392 114.856 4.21105C114.923 4.12599 114.994 4.04263 115.067 3.96112C115.126 3.89668 115.185 3.83421 115.246 3.7737ZM114.779 4.08222C114.619 4.2021 114.465 4.33301 114.318 4.4748C114.408 4.42403 114.499 4.37615 114.591 4.33119C114.65 4.24675 114.713 4.1637 114.779 4.08222ZM114.43 4.57409C114.262 4.66733 114.1 4.77099 113.943 4.8848C113.889 4.95132 113.835 5.01967 113.784 5.08982C113.72 5.17857 113.658 5.26882 113.601 5.36039C113.777 5.26434 113.958 5.17917 114.144 5.10529C114.227 4.92397 114.322 4.74653 114.43 4.57409ZM114.063 5.29149C113.853 5.3822 113.65 5.48794 113.455 5.60803C113.343 5.81158 113.247 6.02068 113.168 6.23362C113.385 6.13096 113.609 6.04407 113.839 5.97391C113.897 5.74262 113.971 5.51448 114.063 5.29149ZM113.996 5.92888C114.061 5.68645 114.144 5.44789 114.249 5.21564C114.484 5.12495 114.728 5.05295 114.976 5.00057C114.892 5.25696 114.831 5.51912 114.791 5.78417C114.521 5.81055 114.255 5.85922 113.996 5.92888ZM113.802 6.1331C113.561 6.21116 113.327 6.30823 113.102 6.42314C113.023 6.66494 112.964 6.91095 112.925 7.15878C113.176 7.06241 113.435 6.98622 113.7 6.9318C113.713 6.664 113.746 6.39681 113.802 6.1331ZM113.843 6.90481C113.857 6.62995 113.896 6.35589 113.957 6.08591C114.222 6.01005 114.495 5.95685 114.771 5.9278C114.734 6.22789 114.726 6.531 114.745 6.83297C114.439 6.82884 114.138 6.85347 113.843 6.90481ZM113.696 7.07669C113.424 7.1345 113.158 7.21587 112.903 7.31903C112.869 7.59403 112.86 7.87061 112.874 8.14549C113.162 8.06363 113.46 8.00759 113.764 7.97977C113.714 7.6814 113.691 7.37899 113.696 7.07669ZM113.906 7.96894C113.853 7.66509 113.83 7.35685 113.838 7.04889C114.136 6.99472 114.444 6.96901 114.755 6.97405C114.788 7.32465 114.858 7.67285 114.966 8.01215L114.739 7.98791C114.458 7.95766 114.18 7.9519 113.906 7.96894ZM113.79 8.11894C113.479 8.14646 113.176 8.20417 112.884 8.28935C112.909 8.59637 112.964 8.90054 113.048 9.19728C113.318 9.15174 113.597 9.12833 113.879 9.12896L114.107 9.12945C113.964 8.80328 113.858 8.46428 113.79 8.11894ZM114.262 9.12979C114.112 8.80095 114.002 8.45814 113.932 8.10852C114.192 8.09327 114.456 8.09923 114.724 8.12799L115.015 8.15913C115.134 8.4956 115.291 8.82223 115.486 9.1325L114.262 9.12979ZM114.171 9.27048L113.879 9.26984C113.61 9.26924 113.346 9.291 113.089 9.33336C113.195 9.67363 113.341 10.003 113.524 10.3145L114.741 10.1891C114.515 9.90101 114.325 9.59263 114.171 9.27048ZM114.909 10.172C114.679 9.89033 114.485 9.58773 114.328 9.27083L115.578 9.2736C115.701 9.45493 115.839 9.63015 115.989 9.79786L116.204 10.0387L114.909 10.172ZM114.848 10.3198L113.605 10.4477C113.793 10.7465 114.018 11.0272 114.276 11.2832L115.55 11.0152L115.311 10.7982C115.144 10.6471 114.989 10.4872 114.848 10.3198ZM115.721 10.9794L115.405 10.6937C115.268 10.5691 115.139 10.4384 115.019 10.3022L116.32 10.1684L116.837 10.7448C116.831 10.7461 116.825 10.7473 116.819 10.7486L115.721 10.9794ZM115.68 11.132L114.399 11.4012C114.532 11.5241 114.675 11.6407 114.825 11.7502L115.168 12.0013L116.236 11.6572C116.242 11.6552 116.248 11.6533 116.254 11.6513L115.68 11.132ZM116.41 11.6023L115.85 11.0962L116.848 10.8865C116.881 10.8796 116.914 10.8729 116.947 10.8662L117.373 11.3423C117.049 11.4173 116.729 11.504 116.41 11.6023ZM116.376 11.7607C116.343 11.7708 116.311 11.781 116.279 11.7913L115.309 12.104L115.919 12.5488C116.226 12.4178 116.536 12.298 116.85 12.1895L116.376 11.7607ZM117.001 12.1377L116.532 11.7124C116.845 11.6177 117.162 11.5342 117.48 11.4621L117.857 11.8824C117.57 11.9583 117.284 12.0434 117.001 12.1377ZM116.968 12.2975C116.66 12.4025 116.354 12.5185 116.051 12.6456L116.563 13.0195C116.835 12.8961 117.11 12.7815 117.387 12.6761L116.968 12.2975ZM117.535 12.6205L117.122 12.2463C117.401 12.1554 117.68 12.0734 117.963 12.0004L118.292 12.367C118.038 12.4443 117.786 12.5288 117.535 12.6205ZM117.505 12.7823C117.232 12.8845 116.961 12.9955 116.694 13.115L118.356 14.328C119.096 14.8683 119.646 15.6191 119.942 16.4734C119.944 16.4627 119.945 16.4518 119.948 16.4411C119.828 15.4017 119.334 14.4372 118.554 13.7311L117.505 12.7823ZM119.892 16.7911C119.635 15.8518 119.067 15.0216 118.273 14.4419L116.547 13.1818C116.251 13.3185 115.959 13.4659 115.671 13.624L118.14 15.0562C118.89 15.492 119.491 16.1337 119.879 16.8962C119.883 16.8611 119.888 16.8261 119.892 16.7911ZM119.845 17.1553C119.478 16.331 118.859 15.6368 118.068 15.1781L115.528 13.7037C115.498 13.7203 115.469 13.7371 115.44 13.7539L114.557 14.261L118 15.803C118.74 16.1347 119.37 16.6591 119.828 17.3127C119.834 17.2601 119.839 17.2077 119.845 17.1553ZM119.807 17.5331C119.356 16.8352 118.712 16.2761 117.942 15.9315L114.406 14.3478L113.271 14.9995C113.436 15.0751 113.607 15.1422 113.783 15.2L117.938 16.5603C118.65 16.7931 119.284 17.1989 119.79 17.7329C119.795 17.6663 119.8 17.5997 119.807 17.5331ZM119.777 17.9267C119.274 17.3617 118.626 16.9336 117.895 16.6942L113.739 15.3338C113.525 15.2637 113.32 15.1804 113.122 15.085L112.038 15.7078C112.524 16.0317 113.077 16.2712 113.682 16.4013L117.957 17.3198C118.622 17.4627 119.239 17.754 119.764 18.1644C119.767 18.0852 119.772 18.006 119.777 17.9267ZM119.9 18.2753C119.903 18.2112 119.906 18.1469 119.909 18.0827C119.911 18.0857 119.914 18.0887 119.917 18.0916C119.918 18.1586 119.919 18.2256 119.921 18.2925C119.914 18.2867 119.907 18.2811 119.9 18.2753ZM119.758 18.3394C119.232 17.9081 118.606 17.6033 117.927 17.4577L113.653 16.5391C113.005 16.4 112.416 16.1392 111.902 15.7859L111.648 15.9317C111.415 16.0659 111.197 16.2167 110.996 16.382C111.72 17.0465 112.655 17.4938 113.707 17.6068L118.055 18.0735C118.657 18.138 119.233 18.3237 119.752 18.6129C119.753 18.5218 119.754 18.4306 119.758 18.3394ZM119.892 18.6945C119.892 18.6154 119.893 18.5362 119.896 18.4572C119.906 18.4669 119.917 18.4768 119.928 18.4866C119.931 18.566 119.936 18.6454 119.94 18.7245C119.924 18.7144 119.907 18.7044 119.892 18.6945ZM119.75 18.7744C119.23 18.4723 118.648 18.279 118.04 18.2136L113.692 17.7469C112.602 17.6299 111.634 17.1646 110.887 16.4736C110.652 16.6784 110.441 16.9032 110.254 17.144C111.126 18.1571 112.417 18.7999 113.858 18.803L118.231 18.8127C118.755 18.8139 119.27 18.9074 119.753 19.0843C119.751 18.9811 119.75 18.8778 119.75 18.7744ZM119.895 19.1391C119.893 19.0461 119.892 18.9531 119.891 18.8602C119.912 18.873 119.932 18.886 119.952 18.8993C119.959 18.9903 119.967 19.0812 119.974 19.172C119.948 19.1608 119.922 19.1498 119.895 19.1391ZM119.757 19.2362C119.274 19.0522 118.758 18.9548 118.231 18.9536L113.858 18.944C112.385 18.9407 111.065 18.2889 110.168 17.2593C110.004 17.4843 109.861 17.7223 109.741 17.9699C110.7 19.3381 112.353 20.1601 114.134 19.9769L118.483 19.5295C118.917 19.4849 119.351 19.5045 119.772 19.5846C119.765 19.4685 119.761 19.3524 119.757 19.2362ZM119.916 19.6141C119.909 19.5073 119.904 19.4004 119.9 19.2935C119.93 19.3062 119.96 19.3193 119.99 19.3327C120.001 19.4355 120.013 19.538 120.025 19.6404C119.989 19.6311 119.952 19.6224 119.916 19.6141ZM119.781 19.7298C119.362 19.6466 118.93 19.6251 118.497 19.6697L114.148 20.117C112.343 20.3027 110.667 19.4856 109.672 18.1164C109.569 18.3479 109.484 18.5869 109.418 18.8312C110.42 20.5706 112.459 21.5508 114.53 21.1155L118.809 20.2158C119.142 20.1459 119.478 20.1148 119.813 20.1212C119.801 19.991 119.789 19.8604 119.781 19.7298ZM119.955 20.1262C119.943 20.0046 119.933 19.8828 119.924 19.7608C119.965 19.7703 120.006 19.7803 120.045 19.7909C120.061 19.9061 120.079 20.0211 120.097 20.1358C120.049 20.1319 120.003 20.1286 119.955 20.1262ZM119.827 20.2625C119.498 20.2548 119.165 20.2848 118.838 20.3537L114.56 21.2533C112.477 21.6911 110.426 20.7388 109.37 19.0261C109.321 19.2489 109.287 19.4755 109.269 19.704C110.274 21.8417 112.736 22.9507 115.044 22.2064L119.205 20.8644C119.427 20.793 119.653 20.7393 119.88 20.7035C119.86 20.5567 119.843 20.4098 119.827 20.2625ZM120.02 20.6838C120.001 20.5455 119.984 20.4069 119.968 20.2681C120.019 20.2709 120.07 20.2747 120.121 20.2793C120.143 20.4084 120.167 20.5372 120.193 20.6655C120.135 20.6705 120.077 20.6766 120.02 20.6838ZM119.899 20.843C119.68 20.8777 119.463 20.9295 119.249 20.9986L115.087 22.3406C112.794 23.08 110.354 22.0426 109.256 19.9911C109.253 20.1831 109.261 20.3756 109.281 20.568C109.312 20.6484 109.345 20.7285 109.38 20.8081C110.445 23.2154 113.261 24.3032 115.668 23.2378L119.666 21.4682C119.77 21.4222 119.875 21.3803 119.982 21.3427C119.952 21.1766 119.924 21.01 119.899 20.843ZM120.117 21.2973C120.089 21.1398 120.062 20.9817 120.04 20.8233C120.1 20.8157 120.161 20.8094 120.222 20.8045C120.252 20.9493 120.286 21.0937 120.32 21.2376C120.252 21.2559 120.185 21.2757 120.117 21.2973ZM120.009 21.4828C119.913 21.5174 119.817 21.5554 119.723 21.5971L115.724 23.3666C113.333 24.4252 110.551 23.4193 109.373 21.1205C109.476 21.5722 109.647 22.0166 109.889 22.4392C111.201 24.722 114.114 25.5096 116.397 24.1982L120.131 22.0532C120.086 21.8639 120.046 21.6737 120.009 21.4828ZM120.259 21.9808C120.216 21.8002 120.178 21.6189 120.143 21.4368C120.214 21.4141 120.284 21.3933 120.355 21.3743C120.397 21.5378 120.441 21.7006 120.489 21.8626C120.412 21.8997 120.335 21.9391 120.259 21.9808ZM120.292 22.123C120.603 23.3879 121.09 24.6141 121.75 25.7636L124.362 30.311C125.536 32.3537 127.992 33.1992 130.132 32.4148C128.45 32.5805 126.729 31.8735 125.668 30.4064L122.595 26.1569C121.674 24.8823 120.98 23.4759 120.53 21.9993C120.45 22.0379 120.37 22.0792 120.292 22.123ZM120.619 21.8033C120.683 21.7748 120.749 21.748 120.815 21.7227C120.765 21.5833 120.717 21.4432 120.672 21.3022C120.611 21.3135 120.551 21.3262 120.492 21.3401C120.531 21.4952 120.574 21.6496 120.619 21.8033ZM120.457 21.2034C120.514 21.1901 120.572 21.1781 120.628 21.167C120.589 21.042 120.552 20.9165 120.516 20.7905C120.465 20.7912 120.414 20.7928 120.364 20.7952C120.393 20.9318 120.424 21.0678 120.457 21.2034ZM120.335 20.6556C120.383 20.653 120.43 20.6513 120.478 20.6503C120.446 20.538 120.417 20.4255 120.39 20.3125C120.348 20.3062 120.308 20.3003 120.267 20.2951C120.288 20.4156 120.311 20.5358 120.335 20.6556ZM120.242 20.1503C120.28 20.1547 120.317 20.1595 120.354 20.1648C120.331 20.0644 120.308 19.9637 120.287 19.8626C120.256 19.8524 120.225 19.8426 120.193 19.833C120.208 19.9389 120.225 20.0447 120.242 20.1503ZM120.172 19.6799C120.2 19.6879 120.228 19.696 120.255 19.7044C120.237 19.6151 120.22 19.5256 120.204 19.4359C120.183 19.4248 120.161 19.4139 120.139 19.4032C120.15 19.4956 120.161 19.5878 120.172 19.6799ZM120.122 19.2385C120.139 19.2466 120.157 19.2549 120.174 19.2633C120.161 19.185 120.149 19.1066 120.137 19.0281C120.125 19.0193 120.113 19.0106 120.101 19.002C120.108 19.0809 120.115 19.1597 120.122 19.2385ZM120.088 18.8206C120.095 18.8255 120.103 18.8307 120.11 18.8356C120.101 18.7692 120.092 18.7027 120.084 18.6362C120.082 18.6335 120.078 18.6306 120.076 18.6279C120.079 18.6922 120.084 18.7564 120.088 18.8206ZM120.299 19.1531C120.309 19.2166 120.32 19.2801 120.33 19.3434C120.338 19.3476 120.346 19.352 120.354 19.3563C120.338 19.2912 120.324 19.226 120.308 19.1607C120.305 19.1581 120.302 19.1556 120.299 19.1531ZM120.402 19.5448C120.389 19.5372 120.376 19.5298 120.363 19.5224C120.377 19.6001 120.393 19.6777 120.408 19.7551C120.427 19.7615 120.445 19.7679 120.463 19.7745C120.443 19.6981 120.421 19.6215 120.402 19.5448ZM120.628 19.8378C120.61 19.7761 120.593 19.7142 120.576 19.6522C120.579 19.6544 120.583 19.6565 120.585 19.6587C120.608 19.722 120.629 19.7851 120.651 19.8481C120.644 19.8445 120.636 19.8412 120.628 19.8378ZM120.511 19.943C120.488 19.9342 120.466 19.9256 120.443 19.9172C120.462 20.0079 120.483 20.0984 120.505 20.1888C120.533 20.1938 120.561 20.1991 120.59 20.2047C120.563 20.1177 120.536 20.0305 120.511 19.943ZM120.748 20.2388C120.724 20.1636 120.701 20.0882 120.678 20.0125C120.692 20.0184 120.705 20.0244 120.719 20.0305C120.747 20.1048 120.775 20.1787 120.803 20.2524C120.785 20.2477 120.767 20.2433 120.748 20.2388ZM120.638 20.3586C120.606 20.3516 120.573 20.345 120.542 20.3388C120.568 20.4427 120.594 20.5463 120.624 20.6495C120.661 20.6499 120.699 20.6508 120.737 20.6522C120.703 20.5548 120.67 20.4569 120.638 20.3586ZM120.889 20.6604C120.858 20.5728 120.828 20.4848 120.798 20.3965C120.822 20.4025 120.846 20.4086 120.868 20.415C120.903 20.4995 120.938 20.5836 120.974 20.6672C120.946 20.6647 120.918 20.6625 120.889 20.6604ZM120.787 20.7954C120.745 20.7934 120.705 20.792 120.663 20.7911C120.697 20.9087 120.731 21.0257 120.768 21.1424C120.815 21.1349 120.862 21.1281 120.91 21.1221C120.867 21.0138 120.827 20.9049 120.787 20.7954ZM121.055 21.1062C121.015 21.0065 120.978 20.9064 120.941 20.8058C120.974 20.8086 121.007 20.8118 121.04 20.8153C121.081 20.9096 121.124 21.0036 121.168 21.097C121.131 21.0996 121.092 21.1026 121.055 21.1062ZM120.963 21.2575C120.913 21.2635 120.862 21.2704 120.812 21.2781C120.855 21.4109 120.9 21.543 120.947 21.6743C121.003 21.6552 121.058 21.6371 121.114 21.6203C121.062 21.5 121.011 21.3791 120.963 21.2575ZM121.25 21.5811C121.202 21.469 121.155 21.3561 121.109 21.2428C121.151 21.2393 121.191 21.2364 121.233 21.2342C121.284 21.3388 121.336 21.4428 121.389 21.5462C121.342 21.5572 121.297 21.5688 121.25 21.5811ZM121.308 21.7116C122.093 23.4725 123.243 25.069 124.7 26.3873L128.59 29.905C129.569 30.7904 130.815 31.1939 132.037 31.1298C132.207 30.9409 132.36 30.7401 132.496 30.5293C131.577 30.4818 130.66 30.1753 129.862 29.5919L125.626 26.5001C123.87 25.2184 122.451 23.5626 121.456 21.6753C121.406 21.6865 121.358 21.6986 121.308 21.7116ZM121.6 21.6454C122.583 23.499 123.981 25.1255 125.709 26.3863L129.945 29.4782C130.743 30.0612 131.663 30.3596 132.583 30.3921C132.725 30.1544 132.846 29.9055 132.944 29.6485C132.339 29.562 131.739 29.3599 131.177 29.0338L126.641 26.4017C124.615 25.2263 122.934 23.5784 121.722 21.6239C121.681 21.6305 121.641 21.6376 121.6 21.6454ZM121.531 21.5152C121.568 21.5078 121.606 21.5008 121.643 21.4943C121.589 21.406 121.537 21.3171 121.485 21.2276C121.453 21.2274 121.42 21.2277 121.387 21.2284C121.434 21.3245 121.482 21.4202 121.531 21.5152ZM121.319 21.0892C121.349 21.0883 121.377 21.0875 121.405 21.0872C121.361 21.0077 121.318 20.9277 121.275 20.8473C121.251 20.8434 121.226 20.8397 121.202 20.8362C121.241 20.921 121.28 21.0053 121.319 21.0892ZM121.136 20.6848C121.154 20.6872 121.173 20.6897 121.192 20.6924C121.156 20.6221 121.12 20.5513 121.084 20.4803C121.071 20.4756 121.056 20.4711 121.043 20.4665C121.073 20.5395 121.104 20.6123 121.136 20.6848ZM120.974 20.2983C120.982 20.3007 120.991 20.3032 120.999 20.3058C120.971 20.2456 120.941 20.1852 120.913 20.1246C120.91 20.1228 120.906 20.121 120.903 20.1192C120.927 20.1791 120.949 20.2387 120.974 20.2983ZM121.278 20.5491C121.307 20.6064 121.336 20.6634 121.367 20.7203C121.375 20.7219 121.384 20.7235 121.393 20.7251C121.358 20.6682 121.323 20.611 121.289 20.5536C121.284 20.5521 121.281 20.5506 121.278 20.5491ZM121.496 20.8898C121.482 20.8866 121.467 20.8835 121.452 20.8805C121.491 20.9499 121.529 21.019 121.568 21.0877C121.587 21.0881 121.607 21.0886 121.626 21.0893C121.582 21.0232 121.539 20.9567 121.496 20.8898ZM121.801 21.0989C121.765 21.0455 121.73 20.992 121.695 20.9381C121.699 20.9392 121.702 20.9403 121.707 20.9413C121.746 20.9948 121.787 21.0481 121.828 21.101C121.819 21.1002 121.81 21.0996 121.801 21.0989ZM121.723 21.2349C121.699 21.2335 121.674 21.2323 121.651 21.2312C121.698 21.3115 121.745 21.3914 121.794 21.4707C121.822 21.4667 121.85 21.463 121.878 21.4597C121.825 21.3852 121.774 21.3103 121.723 21.2349ZM121.973 21.591C121.94 21.5943 121.908 21.5979 121.875 21.6021C123.072 23.5142 124.725 25.1267 126.712 26.2798L131.248 28.912C131.803 29.234 132.396 29.4316 132.994 29.5131C133.095 29.2223 133.17 28.922 133.213 28.6168C132.949 28.5485 132.685 28.4569 132.427 28.3411L127.641 26.1975C125.361 25.1764 123.413 23.5795 121.973 21.591ZM133.351 28.6502C133.308 28.9496 133.236 29.2444 133.138 29.5305C133.414 29.5596 133.692 29.5643 133.967 29.5451C134.083 29.2939 134.177 29.0336 134.249 28.7678C133.95 28.7566 133.65 28.7179 133.351 28.6502ZM133.37 28.5098C133.674 28.5796 133.98 28.6185 134.284 28.6279C134.355 28.328 134.397 28.0218 134.409 27.7136C134.138 27.6733 133.867 27.6098 133.598 27.5218L133.38 27.4506C133.415 27.8049 133.411 28.1602 133.37 28.5098ZM133.895 29.6906C133.627 29.7049 133.358 29.6971 133.089 29.6669C132.994 29.9178 132.878 30.1615 132.744 30.395C132.998 30.3954 133.251 30.3756 133.5 30.336C133.65 30.1303 133.782 29.9144 133.895 29.6906ZM133.379 30.4957C133.141 30.5263 132.9 30.5395 132.66 30.5351C132.534 30.7374 132.393 30.9314 132.236 31.1152C132.464 31.0936 132.69 31.0559 132.913 31.002C133.082 30.843 133.238 30.6737 133.379 30.4957ZM123.602 21.9405C125.861 23.4277 128.521 24.2403 131.266 24.2463L131.874 24.2477L131.587 23.7493C128.792 23.9484 126.015 23.3111 123.602 21.9405ZM124.15 22.0773C126.403 23.2443 128.947 23.7833 131.51 23.6135L131.264 23.1857C128.833 23.4371 126.381 23.0526 124.15 22.0773ZM131.417 23.1691L131.666 23.6023C131.782 23.5931 131.899 23.5827 132.015 23.5706L132.619 23.5086L132.282 23.0428C131.995 23.094 131.705 23.136 131.417 23.1691ZM132.191 22.9158C131.908 22.9646 131.624 23.0047 131.34 23.0359L131.123 22.6577C131.383 22.6179 131.643 22.5708 131.901 22.5163L132.191 22.9158ZM132.436 23.0147L132.781 23.4919L133.894 23.3774L133.392 22.8166L132.719 22.9582C132.625 22.978 132.53 22.9968 132.436 23.0147ZM133.284 22.6955L132.69 22.8202C132.575 22.8444 132.46 22.8671 132.345 22.8884L132.052 22.4838C132.336 22.4206 132.619 22.3486 132.9 22.2676L133.284 22.6955ZM133.551 22.7831L134.068 23.3595L135.37 23.2256C135.25 23.0896 135.122 22.959 134.984 22.8345L134.668 22.5484L133.551 22.7831ZM134.539 22.4316L133.443 22.662L133.05 22.2236C133.142 22.196 133.233 22.1673 133.325 22.1378L133.98 21.9266L134.539 22.4316ZM134.839 22.5126L135.079 22.7301C135.246 22.881 135.4 23.0407 135.541 23.208L136.785 23.0801C136.596 22.7813 136.372 22.5005 136.113 22.2445L134.839 22.5126ZM135.99 22.1265L134.709 22.3958L134.135 21.8766L135.221 21.5265L135.565 21.778C135.715 21.8873 135.857 22.0038 135.99 22.1265ZM136.278 22.21C136.533 22.4728 136.754 22.7597 136.941 23.064L137.232 23.034C137.5 23.0064 137.76 22.9572 138.012 22.8882C137.87 22.561 137.691 22.2486 137.476 21.958L136.278 22.21ZM137.382 21.8339L136.158 22.0912C136 21.9396 135.83 21.7969 135.648 21.6641L135.386 21.4731L136.627 21.0732C136.91 21.3008 137.163 21.5565 137.382 21.8339ZM137.627 21.9262C137.834 22.2155 138.009 22.5251 138.147 22.8487C138.446 22.7572 138.73 22.6378 138.999 22.4936C138.91 22.1986 138.793 21.9125 138.65 21.6397C138.395 21.7403 138.128 21.821 137.851 21.8792L137.627 21.9262ZM138.581 21.515C138.339 21.6098 138.086 21.6859 137.822 21.7413L137.536 21.8017C137.318 21.5184 137.067 21.2563 136.786 21.0218L137.952 20.6457C138.196 20.9124 138.407 21.2043 138.581 21.515ZM138.78 21.5858C138.921 21.8539 139.036 22.1345 139.125 22.4234C139.366 22.2844 139.594 22.125 139.804 21.9478C139.752 21.676 139.674 21.4101 139.576 21.1531C139.327 21.3199 139.062 21.4651 138.78 21.5858ZM139.522 21.0193C139.271 21.1906 139 21.3392 138.714 21.4613C138.541 21.1541 138.336 20.8644 138.099 20.5983L138.317 20.5283C138.586 20.4413 138.843 20.3332 139.087 20.2064C139.258 20.4627 139.403 20.7351 139.522 21.0193ZM139.695 21.0705C139.793 21.3202 139.871 21.5781 139.927 21.8418C140.115 21.6723 140.291 21.4882 140.449 21.2917C140.423 21.0387 140.377 20.7901 140.311 20.548C140.121 20.7378 139.915 20.9129 139.695 21.0705ZM140.266 20.3925C140.074 20.5907 139.866 20.7729 139.64 20.9364C139.522 20.6582 139.378 20.3912 139.21 20.1391C139.477 19.9899 139.726 19.8177 139.956 19.6258C140.081 19.8712 140.185 20.1276 140.266 20.3925ZM139.889 19.4984C139.741 19.2282 139.567 18.9726 139.37 18.7356C139.141 18.8872 138.897 19.0216 138.638 19.1363L138.429 19.2285C138.692 19.4683 138.927 19.7349 139.131 20.0225C139.403 19.871 139.657 19.6952 139.889 19.4984ZM139.005 20.0896C138.799 19.799 138.559 19.5306 138.289 19.2909L137.168 19.7867C137.473 19.9906 137.748 20.2251 137.994 20.4841L138.273 20.3943C138.53 20.3116 138.774 20.2093 139.005 20.0896ZM137.845 20.5322C137.598 20.2792 137.321 20.0513 137.015 19.8547L135.823 20.3819L136.103 20.5447C136.298 20.6575 136.481 20.7818 136.655 20.9161L137.845 20.5322ZM136.491 20.9688C136.346 20.8607 136.193 20.7595 136.033 20.6664L135.664 20.4525L134.62 20.9141L135.246 21.3704L136.491 20.9688ZM135.08 21.4239L134.472 20.9799L133.843 21.2586C133.754 21.2975 133.666 21.3354 133.578 21.3725L134.015 21.7675L135.08 21.4239ZM133.859 21.8174L133.434 21.432C133.162 21.5419 132.888 21.6432 132.612 21.7357L132.946 22.1075C133.058 22.0744 133.17 22.0398 133.282 22.0038L133.859 21.8174ZM132.796 22.151L132.466 21.7838C132.215 21.865 131.961 21.9391 131.707 22.0059L131.961 22.3593C132.241 22.2986 132.519 22.2291 132.796 22.151ZM131.811 22.3912L131.559 22.0435C131.327 22.1017 131.094 22.154 130.86 22.2002L131.047 22.5266C131.303 22.4886 131.557 22.4436 131.811 22.3912ZM130.898 22.5482L130.714 22.2282C128.919 22.5628 127.075 22.5474 125.282 22.1796C127.108 22.681 129.018 22.807 130.898 22.5482ZM125.848 22.141C127.437 22.4026 129.058 22.3879 130.64 22.0988L130.483 21.8274C128.97 22.1859 127.404 22.2932 125.848 22.141ZM130.626 21.7929L130.786 22.0712C131.015 22.0267 131.244 21.9765 131.47 21.9204L131.255 21.6216C131.047 21.6836 130.836 21.7407 130.626 21.7929ZM131.167 21.5006C130.963 21.5603 130.758 21.6154 130.552 21.6657L130.139 20.9451C129.663 20.1178 129.479 19.1615 129.603 18.2261C129.667 19.0354 129.951 19.8192 130.435 20.488L131.167 21.5006ZM131.398 21.5784L131.617 21.8833C131.868 21.8189 132.117 21.7474 132.363 21.6688L132.077 21.3493C131.852 21.4315 131.625 21.5078 131.398 21.5784ZM131.975 21.2362C131.756 21.3157 131.534 21.3895 131.31 21.4577L130.548 20.4054C129.99 19.6321 129.705 18.7002 129.731 17.7567C129.88 18.5552 130.244 19.3051 130.795 19.9197L131.975 21.2362ZM132.218 21.2966L132.509 21.6213C132.781 21.5317 133.05 21.4335 133.318 21.3269L132.952 20.9961C132.71 21.1033 132.465 21.2035 132.218 21.2966ZM132.837 20.8926C132.6 20.9966 132.36 21.0937 132.118 21.184L130.9 19.8257C130.266 19.1183 129.887 18.226 129.811 17.2898L129.812 17.2841C130.045 18.0599 130.484 18.7649 131.095 19.3168L132.837 20.8926ZM133.092 20.933L133.463 21.268C133.57 21.2234 133.678 21.1772 133.785 21.1297L134.34 20.884L133.876 20.5453C133.618 20.6829 133.356 20.8122 133.092 20.933ZM133.749 20.4529C133.496 20.5868 133.239 20.7125 132.978 20.83L131.189 19.2124C130.532 18.618 130.079 17.8408 129.88 16.9896C129.885 16.9668 129.89 16.9439 129.895 16.9211C130.21 17.6174 130.701 18.2276 131.329 18.6861L133.749 20.4529ZM134.014 20.471L134.489 20.8182L135.513 20.3651L134.862 19.9871L134.264 20.3302C134.182 20.3781 134.098 20.425 134.014 20.471ZM134.721 19.9055L134.194 20.208C134.093 20.2665 133.991 20.3235 133.888 20.3791L131.412 18.5724C130.749 18.088 130.243 17.4289 129.945 16.6775C129.952 16.6389 129.96 16.6003 129.967 16.5618C130.348 17.1631 130.87 17.6705 131.497 18.0344L134.721 19.9055ZM135.003 19.9061L135.673 20.2946L136.869 19.7649C136.713 19.6725 136.551 19.5879 136.381 19.5121L135.993 19.3379L135.003 19.9061ZM135.833 19.2667L134.863 19.8244L131.567 17.9125C130.915 17.5334 130.377 16.9933 130.004 16.3519C130.012 16.3005 130.022 16.249 130.03 16.1976C130.455 16.6942 130.988 17.0962 131.596 17.3685L135.833 19.2667ZM136.143 19.2511L136.439 19.3835C136.644 19.4755 136.84 19.5799 137.027 19.6953L138.17 19.1892C137.898 18.9634 137.598 18.7657 137.274 18.6021L136.143 19.2511ZM137.119 18.5281L135.984 19.1799L131.653 17.2399C131.026 16.9591 130.481 16.5359 130.058 16.0113C130.067 15.9483 130.076 15.8853 130.084 15.8223C130.53 16.2099 131.051 16.5089 131.623 16.6961L136.608 18.3277C136.784 18.3854 136.955 18.4524 137.119 18.5281ZM137.418 18.5186C137.743 18.6895 138.042 18.8939 138.313 19.1257L138.581 19.0074C138.827 18.8984 139.059 18.7711 139.278 18.6278C139.041 18.3604 138.774 18.1187 138.481 17.9085L137.418 18.5186ZM138.352 17.8197L137.268 18.4425C137.072 18.3471 136.865 18.2638 136.651 18.1937L131.668 16.5622C131.082 16.3708 130.551 16.0588 130.105 15.6527C130.114 15.5787 130.123 15.5047 130.13 15.4306C130.57 15.7102 131.062 15.9127 131.582 16.0245L136.709 17.1262C137.314 17.2562 137.868 17.4958 138.352 17.8197ZM129.998 15.3431C129.984 15.3342 129.972 15.3254 129.959 15.3164C129.957 15.3798 129.955 15.4432 129.952 15.5068C129.961 15.5151 129.969 15.5233 129.978 15.5316C129.985 15.4687 129.991 15.406 129.998 15.3431ZM129.957 15.7072C129.953 15.7031 129.948 15.6991 129.944 15.695C129.941 15.747 129.938 15.799 129.934 15.851L129.938 15.855C129.944 15.8058 129.95 15.7565 129.957 15.7072ZM129.817 15.364C129.818 15.3143 129.819 15.2648 129.82 15.2152C129.816 15.2116 129.811 15.2081 129.806 15.2044C129.809 15.2564 129.811 15.3084 129.813 15.3604L129.817 15.364ZM128.848 13.6059C128.83 13.5598 128.811 13.514 128.79 13.4681C128.785 13.4668 128.779 13.4655 128.773 13.4641C128.798 13.5106 128.821 13.5573 128.844 13.6041L128.848 13.6059ZM128.688 13.2967C128.699 13.2998 128.709 13.3028 128.721 13.3056C128.696 13.2478 128.67 13.19 128.644 13.1325C128.628 13.1314 128.613 13.1301 128.598 13.1287C128.628 13.1845 128.657 13.2406 128.688 13.2967ZM128.427 13.1104C128.451 13.1538 128.474 13.1974 128.498 13.2411L128.494 13.2398C128.466 13.1958 128.438 13.1519 128.41 13.1082C128.416 13.1089 128.421 13.1097 128.427 13.1104ZM128.515 12.979C128.536 12.9813 128.556 12.9834 128.576 12.9852C128.544 12.9164 128.511 12.8478 128.477 12.7795C128.454 12.7815 128.429 12.7832 128.405 12.7847C128.442 12.8492 128.478 12.914 128.515 12.979ZM128.245 12.792C128.278 12.8464 128.31 12.9013 128.34 12.9562C128.329 12.9545 128.317 12.9526 128.306 12.9508C128.271 12.898 128.235 12.8453 128.199 12.793C128.215 12.7928 128.231 12.7924 128.245 12.792ZM128.324 12.648C128.353 12.6467 128.382 12.6451 128.41 12.6431C128.37 12.5635 128.33 12.4843 128.288 12.4054C128.255 12.4134 128.224 12.4209 128.191 12.4282C128.236 12.501 128.28 12.5743 128.324 12.648ZM128.044 12.4582C128.084 12.5226 128.124 12.5874 128.163 12.6527C128.143 12.6528 128.122 12.6529 128.102 12.6527C128.058 12.5918 128.015 12.5313 127.971 12.4711C127.995 12.467 128.02 12.4628 128.044 12.4582ZM128.111 12.3012C128.147 12.2936 128.183 12.2855 128.219 12.2769C127.004 10.019 125.179 8.11914 122.924 6.81075L119.142 4.61614C118.588 4.29397 117.994 4.09641 117.395 4.01485C117.294 4.30553 117.219 4.60562 117.176 4.91067C117.441 4.97906 117.705 5.07071 117.964 5.18662L121.954 6.97391C124.503 8.11571 126.636 9.9773 128.111 12.3012ZM117.157 5.05149C117.41 5.11744 117.66 5.20505 117.906 5.3152L121.897 7.10249C124.403 8.2252 126.504 10.0509 127.963 12.3297C127.934 12.3346 127.906 12.3392 127.878 12.3436C126.148 10.0261 123.734 8.27816 120.948 7.36626L117.155 6.1245C117.115 5.76577 117.116 5.40579 117.157 5.05149ZM117.038 4.87738C117.083 4.5781 117.153 4.28349 117.252 3.99757C116.975 3.96842 116.697 3.96384 116.422 3.98299C116.306 4.23413 116.212 4.49423 116.14 4.76004C116.44 4.77109 116.739 4.80974 117.038 4.87738ZM116.105 4.89984C116.409 4.90916 116.715 4.94791 117.019 5.01765C116.978 5.36719 116.974 5.72223 117.009 6.07645L116.793 6.00588C116.523 5.91762 116.252 5.854 115.981 5.81375C115.992 5.50574 116.034 5.19958 116.105 4.89984ZM115.995 4.75683C116.063 4.49746 116.153 4.24322 116.262 3.99697C116.009 4.02314 115.76 4.06933 115.516 4.13484C115.388 4.35494 115.28 4.58338 115.19 4.8177C115.455 4.77551 115.725 4.75488 115.995 4.75683ZM115.135 4.96982C115.407 4.92203 115.683 4.89757 115.961 4.89763C115.894 5.19224 115.852 5.49274 115.84 5.79503C115.536 5.75896 115.234 5.75192 114.935 5.7722C114.978 5.50036 115.045 5.23181 115.135 4.96982ZM114.915 5.91493C114.876 6.22043 114.866 6.52932 114.887 6.83693C115.16 6.84858 115.437 6.88345 115.714 6.94304L115.936 6.99068C115.864 6.64202 115.831 6.28847 115.837 5.93648C115.527 5.8989 115.218 5.89237 114.915 5.91493ZM115.977 5.95572C115.974 6.31236 116.01 6.67053 116.088 7.02313L117.285 7.28044C117.158 6.93636 117.073 6.58427 117.026 6.23048L116.749 6.13977C116.493 6.0559 116.235 5.99493 115.977 5.95572ZM117.175 6.27927C117.226 6.62902 117.317 6.97664 117.449 7.31567L119.989 7.8616C122.982 8.50445 125.665 10.096 127.656 12.3716C127.676 12.3695 127.697 12.3674 127.717 12.3649C126.007 10.1019 123.637 8.3947 120.905 7.50015L117.175 6.27927ZM127.814 12.4949C127.798 12.497 127.783 12.499 127.768 12.5009C127.809 12.5492 127.85 12.5977 127.891 12.6466C127.902 12.6472 127.914 12.6478 127.926 12.6483C127.888 12.597 127.851 12.5458 127.814 12.4949ZM128.027 12.7927C128.021 12.7926 128.016 12.7925 128.01 12.7922C128.043 12.8328 128.076 12.8735 128.107 12.9144L128.112 12.9153C128.085 12.8743 128.056 12.8334 128.027 12.7927ZM127.694 12.6315C127.662 12.5936 127.63 12.556 127.597 12.5185C127.591 12.5189 127.585 12.5195 127.58 12.5199C127.616 12.5568 127.653 12.5937 127.689 12.631L127.694 12.6315ZM127.446 12.3875C127.457 12.3869 127.469 12.3862 127.481 12.3856C125.516 10.1747 122.888 8.62834 119.959 7.99934L117.514 7.4737C117.585 7.64036 117.667 7.80468 117.761 7.96585L117.972 8.33488L119.087 8.45459C122.252 8.79419 125.19 10.1888 127.446 12.3875ZM118.059 8.48588L119.072 8.59467C122.158 8.92596 125.029 10.2713 127.249 12.3931L127.243 12.3931C124.773 10.3441 121.667 9.1891 118.434 9.14022L118.059 8.48588ZM117.799 8.31629L117.638 8.03602C117.526 7.84061 117.429 7.64069 117.346 7.43761L116.123 7.17496C116.211 7.51752 116.337 7.85382 116.503 8.17723L117.799 8.31629ZM116.585 8.32762L117.886 8.4673L118.272 9.1387C118.265 9.13867 118.258 9.13864 118.252 9.13863L117.13 9.13616L116.881 8.79121C116.772 8.64063 116.674 8.48584 116.585 8.32762ZM116.337 8.15933C116.175 7.83033 116.053 7.48908 115.97 7.14202L115.685 7.08079C115.421 7.02415 115.158 6.9905 114.898 6.97848C114.932 7.33357 115.005 7.68601 115.119 8.02863L116.337 8.15933ZM115.171 8.17586L116.414 8.30929C116.517 8.50258 116.635 8.69118 116.767 8.87376L116.956 9.13577L115.654 9.13289C115.455 8.82868 115.294 8.50745 115.171 8.17586ZM115.75 9.27398C115.855 9.42197 115.969 9.56551 116.093 9.70382L116.377 10.0209L117.493 9.90611C117.5 9.90546 117.505 9.90482 117.512 9.90418L117.059 9.27688L115.75 9.27398ZM117.233 9.27726L117.675 9.88861C118.008 9.85875 118.339 9.84075 118.67 9.83444L118.353 9.28011C118.319 9.27979 118.285 9.27959 118.252 9.27952L117.233 9.27726ZM118.517 9.28261L118.832 9.83229C121.672 9.81066 124.454 10.6457 126.814 12.2282C124.447 10.3875 121.54 9.34645 118.517 9.28261ZM126.328 12.0825C124.105 10.7002 121.535 9.96775 118.913 9.97279L119.19 10.4564C121.664 10.3624 124.128 10.9203 126.328 12.0825ZM119.032 10.4633L118.752 9.97404C118.425 9.97844 118.098 9.99425 117.771 10.0217L118.143 10.5353C118.438 10.5018 118.736 10.4779 119.032 10.4633ZM118.238 10.6666C118.528 10.6354 118.82 10.6134 119.111 10.6006L119.357 11.0276C119.092 11.0504 118.827 11.0808 118.565 11.1186L118.238 10.6666ZM117.982 10.5543L117.608 10.0363C117.574 10.0395 117.541 10.0428 117.507 10.0463L116.493 10.1505L116.998 10.7123C117.325 10.6479 117.653 10.5952 117.982 10.5543ZM117.107 10.8346C117.43 10.7731 117.752 10.7232 118.077 10.6847L118.407 11.142C118.114 11.1876 117.821 11.2424 117.53 11.3066L117.107 10.8346ZM117.639 11.4273L118.011 11.8427C118.269 11.7775 118.528 11.7197 118.789 11.6694L118.5 11.2704C118.211 11.3136 117.924 11.3659 117.639 11.4273ZM118.657 11.2477L118.941 11.6406C119.176 11.5981 119.41 11.5615 119.645 11.5309L119.433 11.1624C119.174 11.1836 118.916 11.212 118.657 11.2477ZM119.589 11.1506L119.797 11.512C121.644 11.2917 123.527 11.437 125.335 11.9506C123.491 11.2837 121.533 11.0136 119.589 11.1506ZM124.831 11.9627C123.205 11.5604 121.525 11.4551 119.873 11.6449L119.938 11.7573C119.975 11.8219 120.011 11.8871 120.045 11.9531C121.62 11.6856 123.239 11.6858 124.831 11.9627ZM119.899 11.9786C119.872 11.9278 119.844 11.8774 119.816 11.8275L119.722 11.6632C119.491 11.6922 119.262 11.7269 119.034 11.7673L119.277 12.1051C119.483 12.0583 119.69 12.0161 119.899 11.9786ZM119.368 12.2293C119.566 12.1851 119.765 12.1454 119.964 12.1099C120.382 12.9781 120.496 13.9623 120.289 14.9051C120.28 13.9873 119.988 13.0879 119.443 12.3343L119.368 12.2293ZM119.129 12.1397L118.88 11.7954C118.624 11.8435 118.369 11.8988 118.117 11.9613L118.441 12.3224C118.668 12.2556 118.898 12.1948 119.129 12.1397ZM118.545 12.4388C118.768 12.3747 118.993 12.3162 119.218 12.2634L119.329 12.4168C119.96 13.2889 120.241 14.3629 120.122 15.4275C120.017 14.516 119.632 13.6521 119.012 12.9596L118.545 12.4388ZM118.395 12.4827C118.146 12.5573 117.9 12.6389 117.654 12.7274L118.648 13.6266C119.338 14.2501 119.81 15.0687 120.01 15.9641C120.017 14.8932 119.625 13.8549 118.906 13.0537L118.395 12.4827ZM123.785 21.6381C125.975 22.1932 128.246 22.2057 130.41 21.6999L130.017 21.0153C129.427 19.9897 129.271 18.772 129.578 17.6302C129.586 17.6028 129.593 17.5753 129.601 17.548C129.611 17.421 129.624 17.2939 129.645 17.1672C129.65 17.139 129.654 17.1108 129.659 17.0825C129.655 16.9554 129.656 16.8277 129.663 16.6997C129.664 16.6708 129.667 16.6419 129.668 16.6129C129.65 16.4873 129.639 16.3605 129.632 16.2328C129.63 16.2043 129.629 16.1758 129.628 16.1473C129.598 16.0237 129.572 15.8985 129.552 15.7718C129.548 15.7436 129.543 15.7154 129.539 15.6871C129.496 15.5675 129.458 15.4456 129.425 15.3218C129.417 15.2938 129.41 15.266 129.403 15.2382C129.348 15.1239 129.297 15.0068 129.251 14.8874C129.241 14.8604 129.231 14.8335 129.221 14.8066C129.153 14.6988 129.091 14.5877 129.034 14.4736C129.02 14.4481 129.008 14.4228 128.994 14.3975C128.916 14.2969 128.842 14.1927 128.773 14.085C128.757 14.0613 128.742 14.0377 128.727 14.0142C128.638 13.922 128.553 13.8259 128.473 13.7257C128.455 13.7039 128.437 13.682 128.42 13.6602C128.322 13.5778 128.228 13.4911 128.137 13.3999C128.117 13.3796 128.097 13.3595 128.077 13.3393C127.972 13.2678 127.869 13.1915 127.77 13.1108C127.747 13.0925 127.725 13.0743 127.702 13.0562C127.59 12.9963 127.481 12.9313 127.374 12.8615C127.351 12.8461 127.327 12.8307 127.302 12.8153C127.185 12.7671 127.068 12.7138 126.954 12.6552C126.929 12.6422 126.903 12.6294 126.878 12.6167C126.756 12.5811 126.634 12.5402 126.514 12.4939C126.488 12.4838 126.462 12.4737 126.435 12.4637C126.31 12.4411 126.185 12.413 126.061 12.3795C124.102 11.85 122.072 11.7578 120.109 12.0851C120.555 13.0368 120.653 14.12 120.376 15.1424C120.311 15.3841 120.252 15.6269 120.2 15.8705C120.175 16.0456 120.153 16.2207 120.134 16.3961C120.127 16.5722 120.123 16.7482 120.123 16.9239C120.135 17.1018 120.15 17.2793 120.168 17.4562C120.198 17.6308 120.232 17.8045 120.268 17.9773C120.316 18.1473 120.368 18.316 120.421 18.4835C120.487 18.6483 120.555 18.8114 120.627 18.973C120.711 19.131 120.796 19.287 120.885 19.441C120.985 19.5892 121.086 19.7352 121.19 19.8791C121.304 20.0154 121.42 20.1493 121.537 20.2807C121.664 20.4036 121.792 20.5238 121.922 20.6414C122.061 20.7506 122.201 20.8569 122.343 20.9604C122.495 21.0561 122.648 21.1486 122.803 21.2381C122.961 21.3164 123.122 21.3915 123.283 21.4636C123.449 21.525 123.617 21.5832 123.785 21.6381ZM125.837 11.9916C123.792 10.9986 121.536 10.5205 119.27 10.5945L119.512 11.015C121.658 10.8533 123.823 11.1834 125.837 11.9916ZM124.716 22.1591C126.766 22.9606 128.983 23.2697 131.186 23.0519L130.973 22.6798C128.876 22.9775 126.736 22.7996 124.716 22.1591ZM115.029 4.84608C114.793 4.89178 114.561 4.9547 114.334 5.03409C114.435 4.83067 114.552 4.63276 114.685 4.44205C114.892 4.34304 115.105 4.25915 115.322 4.19085C115.208 4.403 115.11 4.62207 115.029 4.84608ZM140.424 20.4305C140.589 20.2546 140.739 20.0673 140.877 19.87C140.913 20.0942 140.936 20.3229 140.941 20.555C140.832 20.7566 140.708 20.9497 140.572 21.133C140.541 20.8942 140.49 20.6593 140.424 20.4305ZM109.114 20.0374C109.115 19.9348 109.119 19.8324 109.126 19.7302C109.083 19.6364 109.042 19.5406 109.004 19.443C109.028 19.6416 109.065 19.84 109.114 20.0374ZM108.971 18.8839C108.993 18.967 109.017 19.05 109.044 19.1327C109.078 19.2373 109.115 19.3397 109.155 19.4403C109.18 19.2416 109.218 19.0448 109.268 18.851C109.17 18.6768 109.082 18.4954 109.006 18.3074C108.983 18.4979 108.971 18.6905 108.971 18.8839ZM109.049 18.0231C109.126 18.2426 109.217 18.4535 109.322 18.6552C109.391 18.4254 109.476 18.2006 109.578 17.9828C109.445 17.7854 109.325 17.5775 109.221 17.3602C109.148 17.5764 109.091 17.798 109.049 18.0231ZM109.137 17.1753C109.067 17.3626 109.009 17.5542 108.963 17.749C108.934 17.6448 108.908 17.5389 108.885 17.4315C108.867 17.3463 108.851 17.2612 108.838 17.1762C108.858 16.9841 108.89 16.7943 108.933 16.6074C108.99 16.8024 109.058 16.9919 109.137 17.1753ZM109.289 17.1714C109.392 17.4037 109.513 17.6258 109.65 17.8359C109.772 17.5967 109.913 17.3667 110.074 17.1487C109.904 16.9414 109.75 16.72 109.616 16.4866C109.489 16.706 109.379 16.935 109.289 17.1714ZM109.536 16.3438C109.412 16.55 109.304 16.7648 109.211 16.9861C109.128 16.7748 109.059 16.5554 109.006 16.3293C109.07 16.1094 109.151 15.8949 109.246 15.6872C109.327 15.9143 109.424 16.1336 109.536 16.3438ZM109.699 16.348C109.834 16.5902 109.989 16.8193 110.162 17.0333C110.347 16.7979 110.555 16.5776 110.785 16.3761C110.568 16.1643 110.372 15.9332 110.198 15.6856C110.012 15.8925 109.845 16.1143 109.699 16.348ZM110.117 15.5659C109.934 15.7659 109.769 15.98 109.623 16.2052C109.509 15.9819 109.411 15.7485 109.333 15.5066C109.448 15.2809 109.581 15.0645 109.73 14.8594C109.84 15.1058 109.969 15.3419 110.117 15.5659ZM110.296 15.5801C110.472 15.8333 110.671 16.0692 110.892 16.2844C111.104 16.1099 111.333 15.9507 111.578 15.8096L111.776 15.6959C111.489 15.4849 111.228 15.2443 110.996 14.9795C110.741 15.1585 110.507 15.3601 110.296 15.5801ZM110.904 14.8718C110.654 15.0481 110.424 15.2456 110.216 15.4603C110.066 15.2294 109.936 14.9852 109.828 14.7304C109.997 14.5132 110.186 14.3101 110.393 14.1239C110.54 14.3881 110.711 14.6386 110.904 14.8718ZM111.113 14.8997C111.35 15.1671 111.616 15.4088 111.91 15.6191L112.972 15.0089C112.648 14.838 112.348 14.6336 112.077 14.4017L111.81 14.5202C111.563 14.6291 111.331 14.7564 111.113 14.8997ZM111.961 14.2991L111.753 14.3913C111.494 14.506 111.249 14.6403 111.021 14.7918C110.824 14.5548 110.65 14.2993 110.502 14.0291C110.734 13.8324 110.988 13.6564 111.26 13.5051C111.463 13.7926 111.698 14.0592 111.961 14.2991ZM112.221 14.3383C112.493 14.5641 112.792 14.7618 113.118 14.9254L114.247 14.2766L113.951 14.1442C113.746 14.0522 113.55 13.9479 113.364 13.8323L112.221 14.3383ZM113.222 13.7409L112.102 14.2366C111.832 13.9969 111.592 13.7285 111.385 13.4379C111.617 13.3182 111.861 13.2159 112.118 13.1332L112.396 13.0435C112.641 13.3025 112.918 13.537 113.222 13.7409ZM113.521 13.7629C113.677 13.8553 113.839 13.9398 114.009 14.0156L114.398 14.1899L115.369 13.6317C115.375 13.6284 115.381 13.6251 115.386 13.6219L114.718 13.2333L113.521 13.7629ZM114.566 13.1459L113.376 13.6731C113.069 13.4764 112.792 13.2484 112.545 12.9954L113.735 12.6118C113.908 12.7461 114.092 12.8704 114.287 12.9834L114.566 13.1459ZM114.876 13.1629L115.529 13.5415C115.82 13.3791 116.117 13.2276 116.417 13.087L115.901 12.71C115.87 12.7234 115.838 12.7369 115.808 12.7506L114.876 13.1629ZM115.769 12.6139C115.763 12.6165 115.757 12.6191 115.751 12.6218L114.726 13.0754L114.358 12.8616C114.197 12.7684 114.044 12.6673 113.898 12.5591L115.143 12.1575L115.769 12.6139ZM115.003 12.0548L114.741 11.864C114.559 11.7312 114.39 11.5883 114.232 11.4366L113.008 11.6938C113.227 11.9712 113.479 12.227 113.764 12.4546L115.003 12.0548ZM113.604 12.5061C113.322 12.2714 113.072 12.0093 112.854 11.726L112.569 11.7861C112.305 11.8415 112.051 11.9178 111.808 12.0126C111.984 12.3233 112.195 12.6152 112.438 12.8819L113.604 12.5061ZM112.291 12.9293C112.054 12.6632 111.849 12.3736 111.677 12.0664C111.39 12.1884 111.12 12.3369 110.868 12.5082C110.987 12.7924 111.133 13.0647 111.305 13.321C111.548 13.1942 111.805 13.0862 112.074 12.9991L112.291 12.9293ZM111.18 13.3883C111.013 13.1362 110.869 12.8693 110.75 12.5911C110.525 12.7546 110.316 12.9368 110.125 13.135C110.206 13.3999 110.31 13.6563 110.435 13.9016C110.664 13.7098 110.913 13.5375 111.18 13.3883ZM110.325 13.9961C110.202 13.7581 110.097 13.5097 110.014 13.2532C109.844 13.4415 109.689 13.643 109.552 13.8552C109.604 14.104 109.677 14.3464 109.767 14.5804C109.936 14.3717 110.122 14.1761 110.325 13.9961ZM109.666 14.7092C109.577 14.4883 109.503 14.26 109.446 14.0259C109.33 14.2225 109.227 14.4277 109.14 14.6397C109.169 14.8701 109.214 15.0954 109.275 15.3143C109.39 15.1036 109.521 14.9013 109.666 14.7092ZM109.181 15.4946C109.122 15.304 109.074 15.1084 109.038 14.9087C108.976 15.0904 108.925 15.2764 108.885 15.4658C108.889 15.5512 108.895 15.6369 108.904 15.723C108.915 15.8324 108.93 15.9407 108.949 16.0475C109.015 15.8585 109.093 15.6739 109.181 15.4946ZM108.86 16.3252C108.837 16.2246 108.818 16.1228 108.801 16.0197C108.783 16.2184 108.778 16.4197 108.785 16.6226C108.807 16.5225 108.832 16.4234 108.86 16.3252ZM108.889 14.9095C108.922 14.812 108.957 14.7156 108.996 14.6205C108.983 14.5177 108.974 14.4139 108.969 14.3093C108.93 14.5058 108.903 14.7062 108.889 14.9095ZM109.11 13.7672C109.105 13.8528 109.102 13.9391 109.102 14.0259C109.102 14.136 109.105 14.2452 109.112 14.3535C109.198 14.1723 109.295 13.9966 109.402 13.8275C109.363 13.6315 109.336 13.4318 109.321 13.2292C109.24 13.4034 109.169 13.583 109.11 13.7672ZM109.45 12.9723C109.455 13.2047 109.477 13.4337 109.514 13.658C109.651 13.4605 109.802 13.273 109.966 13.097C109.9 12.8681 109.851 12.6331 109.818 12.3941C109.682 12.5774 109.559 12.7707 109.45 12.9723ZM109.796 12.1923C109.672 12.3492 109.557 12.5137 109.453 12.6848C109.457 12.5767 109.465 12.4679 109.477 12.3587C109.486 12.2721 109.497 12.1864 109.511 12.1014C109.59 11.9246 109.679 11.7535 109.778 11.5889C109.771 11.7919 109.777 11.9933 109.796 12.1923ZM109.941 12.2355C109.968 12.4886 110.014 12.7373 110.08 12.9795C110.269 12.7897 110.475 12.6146 110.696 12.457C110.598 12.2072 110.52 11.9492 110.464 11.6855C110.275 11.8549 110.101 12.0388 109.941 12.2355ZM110.433 11.5251C110.251 11.6828 110.081 11.8535 109.925 12.0354C109.911 11.8085 109.913 11.5785 109.933 11.3469C110.062 11.1579 110.205 10.9787 110.359 10.8107C110.366 11.0517 110.391 11.2905 110.433 11.5251ZM110.586 11.5794C110.639 11.8514 110.716 12.1173 110.815 12.3744C111.063 12.2077 111.329 12.0625 111.61 11.9419C111.469 11.6737 111.354 11.3932 111.265 11.1042C111.025 11.2432 110.797 11.4025 110.586 11.5794ZM111.225 10.965C110.989 11.0987 110.766 11.2512 110.558 11.4202C110.518 11.1724 110.498 10.9202 110.498 10.6658C110.677 10.487 110.87 10.3223 111.075 10.1736C111.104 10.4418 111.154 10.7065 111.225 10.965ZM111.391 11.034C111.48 11.3291 111.597 11.6152 111.74 11.888C111.996 11.7872 112.262 11.7066 112.54 11.6482L112.762 11.6015C112.555 11.3122 112.381 11.0026 112.242 10.6791C111.944 10.7706 111.66 10.89 111.391 11.034ZM112.188 10.5483C111.896 10.6388 111.616 10.7555 111.352 10.8953C111.281 10.6294 111.232 10.3569 111.208 10.0809C111.436 9.92698 111.679 9.79229 111.933 9.6792C111.991 9.97592 112.076 10.267 112.188 10.5483ZM112.378 10.6395C112.52 10.9667 112.699 11.2791 112.913 11.5697L114.112 11.3177C113.856 11.0549 113.635 10.7681 113.449 10.4638L113.158 10.4937C112.89 10.5212 112.63 10.5705 112.378 10.6395ZM113.37 10.3302L113.144 10.3535C112.862 10.3825 112.588 10.4349 112.324 10.5084C112.209 10.2221 112.123 9.9253 112.066 9.62263C112.348 9.50737 112.643 9.41831 112.949 9.35852C113.053 9.69476 113.194 10.0208 113.37 10.3302ZM112.909 9.22278C112.827 8.93131 112.773 8.63295 112.746 8.33178C112.482 8.41771 112.226 8.52634 111.983 8.65562C111.978 8.93263 111.998 9.20867 112.041 9.48056C112.319 9.36909 112.609 9.28227 112.909 9.22278ZM111.907 9.53656C111.864 9.27203 111.842 9.00357 111.842 8.73394C111.622 8.86041 111.413 9.00406 111.216 9.16326C111.189 9.41619 111.183 9.66906 111.197 9.91956C111.421 9.77329 111.659 9.64495 111.907 9.53656ZM111.061 10.0109C111.044 9.77321 111.044 9.53322 111.063 9.29281C110.892 9.44377 110.731 9.60701 110.583 9.78139C110.539 10.0096 110.513 10.238 110.503 10.4651C110.677 10.3006 110.864 10.1487 111.061 10.0109ZM110.358 10.6076C110.36 10.4079 110.375 10.207 110.403 10.0059C110.288 10.1592 110.181 10.32 110.085 10.4875C110.062 10.5705 110.042 10.6546 110.023 10.7397C110 10.847 109.981 10.9543 109.966 11.0613C110.087 10.9021 110.218 10.7506 110.358 10.6076ZM109.796 11.2981C109.805 11.1951 109.818 11.0918 109.834 10.9883C109.755 11.1723 109.688 11.3626 109.632 11.5585C109.684 11.4699 109.738 11.383 109.796 11.2981ZM110.261 9.96014C110.322 9.8775 110.386 9.79693 110.451 9.7185C110.472 9.61712 110.495 9.51581 110.522 9.41467C110.424 9.58925 110.337 9.77128 110.261 9.96014ZM110.823 8.94273C110.792 9.02283 110.763 9.10422 110.736 9.18683C110.702 9.2912 110.672 9.39591 110.645 9.50079C110.782 9.35522 110.929 9.21827 111.082 9.09066C111.106 8.89241 111.142 8.69422 111.19 8.49711C111.059 8.63755 110.937 8.78629 110.823 8.94273ZM111.392 8.29262C111.325 8.51496 111.275 8.73934 111.241 8.96413C111.432 8.81867 111.634 8.68706 111.844 8.57061C111.852 8.33247 111.878 8.09385 111.921 7.8567C111.735 7.98897 111.558 8.13462 111.392 8.29262ZM111.962 7.65768C111.795 7.76856 111.636 7.88956 111.484 8.02003C111.521 7.91841 111.562 7.81735 111.607 7.71703C111.643 7.63786 111.68 7.56012 111.719 7.48384C111.848 7.34 111.986 7.20479 112.131 7.07869C112.062 7.26963 112.006 7.46298 111.962 7.65768ZM112.087 7.74385C112.034 7.99258 112.001 8.24338 111.988 8.49393C112.227 8.37191 112.477 8.26908 112.736 8.18721C112.72 7.91959 112.726 7.65028 112.754 7.38213C112.522 7.48498 112.299 7.60602 112.087 7.74385ZM112.774 7.21999C112.552 7.31382 112.338 7.42368 112.133 7.54844C112.19 7.3284 112.263 7.11049 112.353 6.89641C112.535 6.75656 112.726 6.63015 112.925 6.51802C112.857 6.74934 112.807 6.98399 112.774 7.21999ZM112.986 6.32434C113.05 6.13526 113.126 5.94879 113.215 5.76606C113.058 5.87633 112.907 5.99642 112.763 6.12595C112.716 6.19779 112.671 6.27129 112.627 6.34641C112.572 6.4415 112.52 6.53768 112.472 6.63483C112.637 6.52092 112.809 6.41725 112.986 6.32434ZM112.238 6.80759C112.279 6.71259 112.323 6.61835 112.37 6.52499C112.238 6.67553 112.115 6.83555 112.002 7.00459C112.078 6.93637 112.157 6.87069 112.238 6.80759ZM113.094 5.67884C113.177 5.61903 113.263 5.56196 113.349 5.50765C113.4 5.41746 113.454 5.32837 113.51 5.24049C113.364 5.37641 113.225 5.52263 113.094 5.67884ZM111.37 7.9218C111.333 8.01949 111.299 8.11771 111.268 8.21634C111.195 8.28743 111.123 8.36088 111.054 8.43664C111.149 8.25689 111.255 8.08511 111.37 7.9218ZM109.314 12.6256C109.309 12.7303 109.307 12.8345 109.309 12.938C109.26 13.0286 109.215 13.1208 109.173 13.2145C109.208 13.0137 109.255 12.8171 109.314 12.6256ZM108.813 17.7357C108.84 17.8368 108.871 17.9364 108.904 18.0343C108.886 18.1352 108.872 18.2367 108.86 18.3388C108.832 18.1372 108.816 17.9358 108.813 17.7357ZM117.112 2.48211C117.21 2.45102 117.308 2.42305 117.408 2.39821C117.484 2.32807 117.562 2.25992 117.643 2.19389C117.461 2.27781 117.284 2.37387 117.112 2.48211ZM118.164 1.98932C118.092 2.03585 118.021 2.08458 117.95 2.13551C117.862 2.19986 117.776 2.26671 117.692 2.3359C117.889 2.29887 118.088 2.27392 118.287 2.26108C118.423 2.11449 118.568 1.9752 118.723 1.84429C118.535 1.88112 118.349 1.92944 118.164 1.98932ZM119.007 1.79764C118.823 1.93803 118.649 2.0901 118.49 2.25221C119.702 2.22428 120.925 2.64199 121.894 3.51874L125.138 6.45168C126.847 7.99801 128.136 9.92312 128.919 12.047C128.982 12.02 129.045 11.9914 129.107 11.9612C128.524 9.99148 127.508 8.15535 126.11 6.59638L123.192 3.34052C122.098 2.12026 120.518 1.59582 119.007 1.79764ZM129.235 11.8967C128.644 9.91639 127.621 8.07054 126.215 6.50234L123.297 3.24649C122.231 2.05812 120.718 1.51073 119.242 1.63084C119.331 1.57067 119.424 1.51313 119.519 1.45839C119.595 1.41514 119.671 1.37417 119.747 1.33546C121.537 0.953964 123.465 1.6266 124.606 3.20479L127.168 6.74787C128.268 8.26882 129.04 9.97923 129.458 11.7725L129.376 11.8193C129.33 11.846 129.282 11.8718 129.235 11.8967ZM129.147 12.0983C129.087 12.1268 129.027 12.1539 128.967 12.1797C129.01 12.3 129.052 12.4211 129.091 12.5427C129.146 12.5301 129.201 12.5163 129.256 12.5014C129.221 12.3665 129.186 12.2321 129.147 12.0983ZM129.391 12.4622C129.355 12.319 129.317 12.1764 129.275 12.0346C129.333 12.0048 129.39 11.9738 129.446 11.9415L129.49 11.9162C129.525 12.0756 129.559 12.2358 129.588 12.3964C129.523 12.4199 129.458 12.4419 129.391 12.4622ZM129.29 12.6382C129.238 12.6522 129.187 12.6652 129.135 12.6773C129.168 12.7838 129.201 12.8907 129.231 12.998C129.278 12.9954 129.324 12.9921 129.369 12.988C129.345 12.871 129.318 12.7544 129.29 12.6382ZM129.511 12.973C129.484 12.848 129.456 12.7233 129.426 12.5991C129.488 12.5798 129.551 12.5591 129.614 12.537C129.637 12.674 129.659 12.8114 129.679 12.9492C129.623 12.9582 129.567 12.9663 129.511 12.973ZM129.4 13.1267C129.357 13.1307 129.314 13.134 129.271 13.1367C129.298 13.231 129.322 13.3256 129.347 13.4205C129.384 13.4245 129.42 13.428 129.458 13.431C129.44 13.3294 129.42 13.2279 129.4 13.1267ZM129.602 13.4405C129.583 13.3305 129.562 13.2209 129.54 13.1114C129.593 13.1049 129.646 13.0973 129.698 13.0887C129.715 13.2073 129.728 13.326 129.742 13.445C129.695 13.4442 129.649 13.4427 129.602 13.4405ZM129.483 13.5744C129.449 13.5719 129.417 13.569 129.384 13.5659C129.404 13.6492 129.423 13.7327 129.442 13.8165C129.47 13.824 129.498 13.8314 129.526 13.8384C129.512 13.7502 129.498 13.6622 129.483 13.5744ZM129.674 13.873C129.659 13.776 129.644 13.6791 129.627 13.5826C129.67 13.5844 129.713 13.5855 129.756 13.5861C129.766 13.6889 129.775 13.792 129.782 13.895C129.746 13.8882 129.71 13.8807 129.674 13.873ZM129.548 13.9888C129.524 13.9831 129.501 13.9773 129.477 13.9713C129.493 14.044 129.507 14.117 129.522 14.1902C129.541 14.1986 129.559 14.2068 129.578 14.215C129.568 14.1394 129.558 14.0641 129.548 13.9888ZM129.727 14.2765C129.717 14.1913 129.706 14.1063 129.695 14.0213C129.728 14.0279 129.761 14.0342 129.793 14.0402C129.799 14.1291 129.804 14.2181 129.808 14.3071C129.78 14.2972 129.754 14.287 129.727 14.2765ZM129.951 14.3569C129.986 14.3685 130.022 14.3797 130.057 14.3904C130.061 14.287 130.062 14.1837 130.064 14.0804C130.021 14.0754 129.978 14.0698 129.936 14.0635C129.942 14.1612 129.947 14.259 129.951 14.3569ZM129.926 13.9196C129.971 13.9267 130.018 13.933 130.064 13.9385C130.063 13.8188 130.061 13.6992 130.058 13.5795C130.005 13.5825 129.952 13.5846 129.897 13.5856C129.908 13.6967 129.918 13.8081 129.926 13.9196ZM129.883 13.445C129.94 13.444 129.997 13.4419 130.054 13.4387C130.048 13.2996 130.041 13.1607 130.031 13.0219C129.966 13.0375 129.902 13.0515 129.837 13.064C129.854 13.1907 129.87 13.3177 129.883 13.445ZM129.817 12.9243C129.885 12.9111 129.953 12.8961 130.021 12.8795C130.008 12.7166 129.992 12.5539 129.974 12.3916L129.927 12.4121C129.868 12.4385 129.808 12.4633 129.747 12.487C129.773 12.6324 129.796 12.7781 129.817 12.9243ZM129.721 12.3456C129.771 12.3258 129.821 12.305 129.87 12.2833L129.956 12.2452C129.934 12.0612 129.907 11.8776 129.876 11.6945L129.618 11.8427C129.655 12.0097 129.69 12.1774 129.721 12.3456ZM129.585 11.6992L129.851 11.5466C129.572 9.96492 129.02 8.42836 128.205 7.00901L126.027 3.21751C124.853 1.17465 122.397 0.329224 120.257 1.11383C121.938 0.948063 123.66 1.65507 124.72 3.12222L127.283 6.66531C128.385 8.1899 129.161 9.90297 129.585 11.6992ZM130.007 11.6197C130.038 11.8078 130.066 11.9965 130.09 12.1857L134.666 10.1609C137.057 9.10259 139.84 10.108 141.018 12.406C140.915 11.9547 140.744 11.5109 140.501 11.0886C139.19 8.80581 136.277 8.01822 133.993 9.32943L130.007 11.6197ZM141.109 12.9586C141.079 12.8785 141.046 12.7987 141.01 12.7195C139.945 10.3122 137.13 9.22433 134.722 10.2898L130.108 12.3319C130.128 12.5019 130.145 12.6723 130.159 12.8429C130.21 12.8284 130.262 12.8129 130.313 12.7964L135.304 11.187C137.597 10.4476 140.037 11.4847 141.135 13.5357C141.138 13.3438 141.129 13.151 141.109 12.9586ZM141.121 13.8229C140.115 11.6856 137.654 10.5769 135.348 11.3211L130.356 12.9306C130.295 12.9504 130.232 12.9691 130.17 12.9861C130.18 13.1334 130.189 13.2809 130.194 13.4285C130.363 13.4134 130.532 13.3884 130.7 13.3531L135.832 12.2741C137.913 11.8365 139.965 12.7884 141.02 14.5007C141.07 14.2779 141.103 14.0513 141.121 13.8229ZM141.123 14.6758C141.172 14.4821 141.21 14.2852 141.236 14.0866C141.276 14.1873 141.313 14.29 141.347 14.3947C141.374 14.4773 141.397 14.5602 141.42 14.6431C141.419 14.8365 141.408 15.029 141.385 15.2196C141.308 15.0315 141.22 14.85 141.123 14.6758ZM140.972 14.6956C139.97 12.9567 137.931 11.9767 135.861 12.412L130.729 13.4909C130.552 13.5279 130.376 13.5541 130.198 13.5695C130.203 13.6973 130.205 13.8253 130.204 13.9533C130.476 13.9772 130.75 13.9756 131.025 13.9472L136.242 13.4106C138.047 13.2251 139.723 14.0421 140.718 15.4113C140.821 15.1796 140.907 14.9403 140.972 14.6956ZM140.812 15.5451C140.914 15.3269 140.999 15.1018 141.069 14.8717C141.173 15.0733 141.265 15.2843 141.341 15.5037C141.3 15.7293 141.243 15.9512 141.17 16.1679C141.065 15.9505 140.946 15.7424 140.812 15.5451ZM140.65 15.5578C139.69 14.1897 138.037 13.3677 136.257 13.5508L131.04 14.0874C130.76 14.1162 130.481 14.1183 130.204 14.0947C130.204 14.2063 130.201 14.3181 130.198 14.4297C130.55 14.5227 130.917 14.5713 131.288 14.5722L136.532 14.5838C138.005 14.587 139.325 15.239 140.223 16.2686C140.386 16.0435 140.529 15.8055 140.65 15.5578ZM140.317 16.3793C140.477 16.1611 140.618 15.931 140.74 15.6919C140.878 15.9021 140.998 16.1242 141.102 16.3567C141.011 16.5929 140.902 16.822 140.774 17.0415C140.64 16.8079 140.486 16.5864 140.317 16.3793ZM140.854 17.1843C140.966 17.3946 141.064 17.614 141.145 17.8411C141.239 17.6335 141.32 17.4189 141.385 17.1991C141.332 16.9729 141.262 16.7534 141.179 16.5418C141.087 16.7633 140.978 16.9781 140.854 17.1843ZM141.254 16.3528C141.333 16.5363 141.401 16.7259 141.458 16.921C141.5 16.7337 141.532 16.5432 141.553 16.3505C141.54 16.2657 141.524 16.1809 141.506 16.096C141.484 15.9883 141.457 15.8822 141.428 15.778C141.382 15.9731 141.324 16.165 141.254 16.3528ZM141.487 15.4925C141.52 15.5904 141.55 15.6899 141.578 15.791C141.575 15.591 141.56 15.3897 141.531 15.1882C141.519 15.2902 141.504 15.3918 141.487 15.4925ZM141.606 16.9042C141.583 17.0048 141.558 17.1045 141.53 17.2032C141.553 17.3043 141.573 17.4068 141.59 17.5104C141.607 17.3106 141.613 17.1081 141.606 16.9042ZM141.506 18.0641C141.502 17.9779 141.495 17.8915 141.486 17.8047C141.475 17.6954 141.46 17.5875 141.442 17.4809C141.376 17.6699 141.297 17.8545 141.209 18.0337C141.268 18.2246 141.316 18.4203 141.352 18.6203C141.414 18.4389 141.466 18.2532 141.506 18.0641ZM141.395 18.9086C141.407 19.0111 141.416 19.1147 141.421 19.2191C141.46 19.0231 141.486 18.823 141.5 18.6202C141.469 18.7176 141.433 18.8137 141.395 18.9086ZM141.386 14.0841C141.348 13.9864 141.307 13.8906 141.265 13.7966C141.272 13.6944 141.275 13.5919 141.277 13.4891C141.326 13.6867 141.363 13.8853 141.386 14.0841ZM119.207 1.4844C119.12 1.5416 119.035 1.60119 118.952 1.66305C118.85 1.67737 118.75 1.69487 118.649 1.71557C118.831 1.62591 119.018 1.54891 119.207 1.4844ZM140.13 23.5666C140.069 23.6493 140.005 23.73 139.939 23.8086C139.92 23.91 139.896 24.0114 139.868 24.1127C139.966 23.9379 140.054 23.7557 140.13 23.5666ZM139.568 24.5846C139.598 24.5046 139.628 24.4233 139.654 24.3407C139.688 24.2363 139.719 24.1314 139.745 24.0263C139.608 24.1721 139.462 24.3092 139.308 24.437C139.285 24.6353 139.249 24.8336 139.2 25.0309C139.331 24.8903 139.454 24.7412 139.568 24.5846ZM139.122 25.3116C139.092 25.4105 139.058 25.5089 139.02 25.6069C139.136 25.4432 139.242 25.2709 139.337 25.0906C139.268 25.1667 139.195 25.2403 139.122 25.3116ZM138.998 25.2353C139.066 25.0129 139.115 24.7884 139.149 24.5635C138.958 24.709 138.756 24.8407 138.545 24.9572C138.538 25.1955 138.513 25.4341 138.469 25.6713C138.655 25.539 138.832 25.3933 138.998 25.2353ZM138.303 25.7842C138.356 25.5353 138.389 25.2845 138.402 25.0339C138.163 25.1559 137.913 25.2587 137.654 25.3406C137.67 25.6082 137.665 25.8777 137.636 26.1458C137.868 26.043 138.091 25.9219 138.303 25.7842ZM137.487 26.2089C137.521 25.9338 137.529 25.6572 137.515 25.3824C137.228 25.4642 136.93 25.5202 136.626 25.5479C136.676 25.8463 136.699 26.1487 136.694 26.451C136.966 26.3932 137.232 26.3119 137.487 26.2089ZM136.553 26.4787C136.559 26.1709 136.537 25.8626 136.484 25.5587C136.211 25.5757 135.932 25.5699 135.651 25.5397L135.424 25.5153C135.531 25.8546 135.601 26.2028 135.634 26.5534C135.945 26.5586 136.253 26.5329 136.553 26.4787ZM135.491 26.5489C135.457 26.1939 135.383 25.8414 135.27 25.4989L134.052 25.368C134.214 25.697 134.335 26.038 134.418 26.385L134.705 26.4467C134.969 26.5032 135.231 26.5369 135.491 26.5489ZM134.266 26.3521C134.178 26.0096 134.051 25.6734 133.884 25.3501L132.59 25.2111L132.751 25.4925C132.863 25.6874 132.96 25.8868 133.042 26.0893L134.266 26.3521ZM136.071 29.0534C135.981 29.1042 135.891 29.1521 135.799 29.197C135.739 29.2815 135.676 29.3645 135.611 29.446C135.771 29.3262 135.924 29.1953 136.071 29.0534Z" fill="#4845D2"/>
<path d="M4.38883 24.4971L0.34021 24.4882L0.299746 42.7563L11.5075 42.7811L11.5154 39.2016L4.3563 39.1857L4.38883 24.4971Z" fill="#4845D2"/>
<path d="M11.9079 36.586C11.8993 40.4866 14.5103 43.0844 18.4602 43.0932C22.3854 43.1019 25.0079 40.5156 25.0166 36.615C25.0252 32.7146 22.4142 30.092 18.4891 30.0833C14.5391 30.0745 11.9166 32.6855 11.9079 36.586ZM15.7344 36.5698C15.7385 34.7183 16.8275 33.4864 18.4815 33.49C20.1107 33.4936 21.1943 34.7304 21.1902 36.5819C21.1861 38.4582 20.097 39.69 18.4678 39.6864C16.8138 39.6828 15.7302 38.4461 15.7344 36.5698Z" fill="#4845D2"/>
<path d="M25.6286 36.4185C25.6203 40.1463 28.0341 42.6697 31.4655 42.6773C33.1195 42.681 34.5527 42.0917 35.2707 41.1305L35.2669 42.8338C35.2631 44.5372 34.1991 45.6704 32.3229 45.6662C30.6443 45.6625 29.4857 44.87 29.4147 43.4627L25.5636 43.4542C25.9018 46.8371 28.5135 49.114 32.0931 49.1219C36.3145 49.1313 38.9867 46.397 38.9963 42.0521L39.0219 30.4987L35.5905 30.4911L35.3902 31.7497C34.7012 30.736 33.2462 30.0663 31.5675 30.0625C28.1113 30.0549 25.637 32.6416 25.6286 36.4185ZM29.4799 36.3283C29.4838 34.5509 30.6715 33.3686 32.1773 33.3719C33.9301 33.3758 35.2112 34.5389 35.2072 36.341C35.2032 38.1432 33.9414 39.3748 32.1887 39.3709C30.6829 39.3675 29.4759 38.1305 29.4799 36.3283Z" fill="#4845D2"/>
<path d="M40.1163 36.6481C40.1076 40.5487 42.7187 43.1466 46.6686 43.1553C50.5938 43.164 53.2163 40.5778 53.2249 36.6772C53.2336 32.7767 50.6226 30.1541 46.6974 30.1454C42.7475 30.1367 40.1249 32.7477 40.1163 36.6481ZM43.9428 36.632C43.9469 34.7805 45.0359 33.5485 46.6899 33.5522C48.3192 33.5558 49.4027 34.7925 49.3986 36.644C49.3944 38.5203 48.3055 39.7522 46.6762 39.7486C45.0222 39.7449 43.9387 38.5082 43.9428 36.632Z" fill="#4845D2"/>
<path d="M56.5205 28.6118C57.7056 28.6144 58.6705 27.6539 58.6732 26.4442C58.6759 25.2346 57.7151 24.2943 56.5301 24.2917C55.3205 24.289 54.3556 25.225 54.3529 26.4346C54.3503 27.6443 55.3109 28.6091 56.5205 28.6118ZM54.5634 42.8765L58.3898 42.8849L58.4172 30.5416L54.5908 30.5331L54.5634 42.8765Z" fill="#4845D2"/>
<path d="M60.6041 48.8146L64.3565 48.8229L64.3724 41.6639C65.0862 42.6035 66.7141 43.249 68.4175 43.2528C72.0957 43.2609 74.3238 40.4515 74.2337 36.5508C74.1437 32.5761 71.8533 30.1763 68.4217 30.1687C66.669 30.1648 65.0133 30.9265 64.3195 32.0606L64.1254 30.5542L60.6445 30.5465L60.6041 48.8146ZM64.4574 36.7267C64.4615 34.8752 65.6985 33.6435 67.476 33.6475C69.2781 33.6515 70.4109 34.913 70.4068 36.7399C70.4028 38.5667 69.2644 39.8232 67.4623 39.8192C65.6848 39.8153 64.4533 38.5782 64.4574 36.7267Z" fill="#4845D2"/>
<path d="M74.6335 39.0206C74.7267 41.5142 76.6978 43.2467 79.8083 43.2536C82.7954 43.2602 84.8726 41.6847 84.8782 39.142C84.8822 37.3152 83.7987 36.1032 81.7755 35.605L79.5796 35.057C78.79 34.8577 78.2967 34.6591 78.2981 34.0173C78.2996 33.3754 78.819 32.957 79.5843 32.9586C80.4482 32.9606 81.0148 33.5295 80.9883 34.3689L84.4197 34.3765C84.3266 31.8089 82.3799 30.1999 79.6644 30.1938C76.9242 30.1878 74.8716 31.8126 74.8661 34.2812C74.8625 35.9352 75.7728 37.295 78.2155 37.9423L80.3866 38.5149C81.028 38.6892 81.2989 38.986 81.298 39.4057C81.2966 40.0228 80.7279 40.4165 79.7653 40.4144C78.6543 40.4119 78.063 39.8922 78.0649 39.0282L74.6335 39.0206Z" fill="#4845D2"/>
<path d="M90.6884 43.2776C92.1943 43.2809 93.7017 42.5929 94.4692 41.5825L94.7131 42.9655L98.2927 42.9734L98.32 30.6301L94.5182 30.6216L94.5039 37.0402C94.4998 38.8917 93.9546 39.9027 92.2018 39.8988C90.844 39.8958 89.9567 39.2766 89.9618 36.9808L89.9759 30.6116L86.1741 30.6031L86.157 38.3548C86.1505 41.2925 87.7753 43.2711 90.6884 43.2776Z" fill="#4845D2"/>
<path d="M104.321 42.9865L104.336 36.2471C104.341 34.1735 105.453 33.5834 106.539 33.5858C107.749 33.5884 108.537 34.3308 108.534 35.8614L108.518 42.9958L112.27 43.0042L112.285 36.2647C112.29 34.1663 113.378 33.5762 114.463 33.5787C115.674 33.5813 116.486 34.3238 116.483 35.879L116.467 43.0135L120.17 43.0217L120.188 34.9491C120.194 32.1348 118.717 30.2554 115.533 30.2483C113.756 30.2444 112.297 31.1052 111.652 32.4369C110.914 31.1022 109.633 30.2353 107.584 30.2307C106.226 30.2277 104.965 30.8421 104.223 31.8279L104.077 30.6426L100.522 30.6347L100.495 42.9781L104.321 42.9865Z" fill="#4845D2"/>
</g>
<defs>
<clipPath id="clip0_1_2106">
<rect width="142.519" height="49.7685" fill="white" transform="translate(0.393539 0.414062) rotate(0.12691)"/>
</clipPath>
</defs>
</svg>
