<svg width="230" height="46" viewBox="0 0 230 46" fill="none" xmlns="http://www.w3.org/2000/svg">
<g clip-path="url(#clip0_1_2118)">
<path fill-rule="evenodd" clip-rule="evenodd" d="M29.6902 13.5322C27.8329 12.2853 25.6475 11.617 23.4104 11.6121L23.4354 0.301084C27.9096 0.310995 32.2804 1.64744 35.9951 4.14142C39.7098 6.63538 42.6014 10.1749 44.3045 14.3123C46.0075 18.4497 46.4454 22.9993 45.5628 27.3855C44.6803 31.7718 42.5168 35.7979 39.346 38.9546C36.1753 42.1114 32.1396 44.257 27.7495 45.1201C23.3594 45.9833 18.8117 45.5252 14.6819 43.8039C10.5521 42.0825 7.02548 39.1752 4.54799 35.4495C2.0705 31.7238 0.753428 27.3471 0.763338 22.873L12.0743 22.898C12.0694 25.1351 12.7279 27.3234 13.9667 29.1863C15.2054 31.0491 16.9687 32.5028 19.0337 33.3635C21.0985 34.2242 23.3723 34.4532 25.5674 34.0215C27.7625 33.59 29.7803 32.5172 31.3657 30.9389C32.9511 29.3604 34.0328 27.3474 34.474 25.1543C34.9154 22.9612 34.6965 20.6864 33.8449 18.6177C32.9934 16.549 31.5475 14.7792 29.6902 13.5322Z" fill="#007DFC"/>
<path fill-rule="evenodd" clip-rule="evenodd" d="M12.1244 0.276036C12.1211 1.76142 11.8253 3.23161 11.2539 4.60266C10.6824 5.97371 9.84646 7.21878 8.79381 8.26678C7.74116 9.31478 6.4924 10.1452 5.11883 10.7106C3.74525 11.276 2.27377 11.5653 0.788393 11.562L0.763338 22.873C3.7341 22.8795 6.67706 22.3009 9.42422 21.1702C12.1714 20.0394 14.6689 18.3786 16.7741 16.2825C18.8795 14.1866 20.5513 11.6965 21.6943 8.95434C22.8372 6.21222 23.4288 3.27184 23.4354 0.301084L12.1244 0.276036Z" fill="#007DFC"/>
<path d="M142.865 16.9129L137.377 16.9008L137.338 34.3336L142.826 34.3458L142.865 16.9129Z" fill="#007DFC"/>
<path d="M137.995 13.6379C138.567 14.2131 139.283 14.5017 140.144 14.5036C141.005 14.5055 141.711 14.2201 142.262 13.6474C142.814 13.0508 143.091 12.334 143.093 11.497C143.095 10.6362 142.821 9.91812 142.272 9.343C141.723 8.76784 141.018 8.47933 140.157 8.47742C139.297 8.47551 138.579 8.76087 138.004 9.33354C137.452 9.90622 137.176 10.623 137.174 11.4839C137.172 12.3209 137.445 13.0389 137.995 13.6379Z" fill="#007DFC"/>
<path d="M58.6013 34.1592L58.6574 8.83484L64.2891 8.84731L64.2439 29.2216L75.4713 29.2465L75.4604 34.1965L58.6013 34.1592Z" fill="#007DFC"/>
<path fill-rule="evenodd" clip-rule="evenodd" d="M85.6012 34.6135C83.8077 34.6095 82.1825 34.2114 80.7255 33.419C79.2925 32.6028 78.1591 31.5003 77.3251 30.1114C76.4913 28.7226 76.0762 27.1673 76.0801 25.4455C76.0839 23.7238 76.5058 22.1823 77.3457 20.8211C78.1857 19.4598 79.324 18.3862 80.7605 17.6004C82.1971 16.7904 83.8242 16.3875 85.6415 16.3915C87.459 16.3955 89.0842 16.7938 90.5172 17.586C91.9503 18.3783 93.0838 19.469 93.9177 20.8578C94.7517 22.2227 95.1668 23.766 95.1629 25.4878C95.1591 27.2095 94.7372 28.763 93.8971 30.1481C93.0571 31.5333 91.9187 32.6308 90.4821 33.4406C89.0456 34.2266 87.4186 34.6175 85.6012 34.6135ZM85.6122 29.6276C86.4014 29.6294 87.0952 29.4635 87.6939 29.13C88.2925 28.7727 88.7479 28.2835 89.0601 27.6624C89.3963 27.0175 89.5654 26.2884 89.5672 25.4754C89.569 24.6623 89.4031 23.9565 89.0696 23.358C88.7362 22.7355 88.271 22.2562 87.6739 21.9201C87.1008 21.56 86.4197 21.3792 85.6305 21.3775C84.8653 21.3758 84.1834 21.5536 83.5847 21.911C82.9862 22.2445 82.5188 22.7217 82.1826 23.3427C81.8464 23.9638 81.6775 24.6807 81.6757 25.4938C81.674 26.2829 81.8397 27.0008 82.1731 27.6471C82.5065 28.2696 82.9718 28.7609 83.5688 29.1209C84.1659 29.457 84.847 29.6259 85.6122 29.6276Z" fill="#007DFC"/>
<path fill-rule="evenodd" clip-rule="evenodd" d="M99.4749 41.065C100.932 41.7377 102.617 42.0762 104.53 42.0805C106.396 42.0846 108.058 41.7176 109.519 40.9795C110.979 40.2414 112.129 39.2158 112.969 37.9024C113.809 36.589 114.231 35.0356 114.235 33.242L114.272 16.8495L108.891 16.8375L108.888 18.0088C108.489 17.6711 108.035 17.3873 107.527 17.1573C106.595 16.7009 105.532 16.4713 104.336 16.4687C102.734 16.4651 101.31 16.8446 100.065 17.6071C98.8196 18.3456 97.837 19.3717 97.1167 20.6854C96.3963 21.9752 96.0346 23.433 96.0309 25.0592C96.0274 26.6614 96.3827 28.1209 97.0973 29.4377C97.8118 30.7546 98.7898 31.797 100.032 32.5649C101.274 33.3329 102.696 33.7187 104.298 33.7222C105.469 33.7248 106.534 33.5001 107.492 33.0478C107.955 32.8287 108.375 32.5703 108.749 32.2724L108.746 33.3734C108.744 34.593 108.347 35.5367 107.556 36.2045C106.79 36.8724 105.725 37.2048 104.362 37.2018C103.262 37.1993 102.318 37.006 101.529 36.6216C100.765 36.2373 100.073 35.6738 99.4525 34.9311L96.0733 38.2954C96.9076 39.4929 98.0415 40.4162 99.4749 41.065ZM107.323 28.3484C106.772 28.682 106.114 28.8479 105.349 28.8462C104.584 28.8445 103.914 28.6756 103.341 28.3396C102.792 28.0035 102.362 27.5482 102.053 26.9736C101.743 26.3751 101.589 25.741 101.591 25.0715C101.592 24.3541 101.749 23.7088 102.061 23.1356C102.373 22.5623 102.817 22.109 103.392 21.7754C103.966 21.4419 104.624 21.2759 105.366 21.2776C106.131 21.2793 106.788 21.4481 107.337 21.7842C107.91 22.1202 108.34 22.5756 108.626 23.1501C108.935 23.7247 109.089 24.3707 109.088 25.0881C109.086 25.8055 108.929 26.4508 108.617 27.024C108.329 27.5734 107.897 28.0148 107.323 28.3484Z" fill="#007DFC"/>
<path fill-rule="evenodd" clip-rule="evenodd" d="M125.782 34.7023C123.988 34.6983 122.362 34.3001 120.906 33.5078C119.473 32.6915 118.339 31.589 117.505 30.2001C116.671 28.8113 116.256 27.256 116.26 25.5343C116.264 23.8125 116.686 22.2711 117.526 20.9098C118.366 19.5486 119.504 18.475 120.941 17.6891C122.377 16.8791 124.005 16.4762 125.822 16.4802C127.639 16.4843 129.264 16.8825 130.697 17.6747C132.131 18.4671 133.264 19.5577 134.098 20.9465C134.932 22.3115 135.347 23.8548 135.343 25.5765C135.339 27.2983 134.917 28.8517 134.077 30.2368C133.237 31.622 132.099 32.7195 130.662 33.5294C129.226 34.3154 127.598 34.7063 125.782 34.7023ZM125.793 29.7164C126.581 29.7181 127.275 29.5522 127.874 29.2188C128.472 28.8614 128.928 28.3722 129.24 27.7511C129.577 27.1062 129.746 26.3772 129.747 25.5641C129.749 24.7511 129.583 24.0453 129.25 23.4467C128.916 22.8242 128.452 22.345 127.854 22.0088C127.281 21.6488 126.6 21.468 125.811 21.4662C125.045 21.4645 124.363 21.6423 123.765 21.9998C123.166 22.3333 122.699 22.8105 122.363 23.4315C122.026 24.0525 121.857 24.7695 121.856 25.5825C121.854 26.3717 122.02 27.0895 122.353 27.7359C122.687 28.3584 123.151 28.8496 123.749 29.2096C124.346 29.5458 125.027 29.7147 125.793 29.7164Z" fill="#007DFC"/>
<path fill-rule="evenodd" clip-rule="evenodd" d="M156.016 34.7335C154.846 34.7309 153.769 34.5014 152.79 34.0448C152.274 33.8046 151.809 33.518 151.393 33.1853L151.375 41.7179L145.958 41.7059L146.013 16.9197L151.501 16.9319L151.498 18.135C151.897 17.8102 152.34 17.5297 152.827 17.2935C153.808 16.8173 154.886 16.5806 156.056 16.5832C157.707 16.5868 159.165 16.9847 160.43 17.7767C161.72 18.5686 162.722 19.6469 163.436 21.0116C164.175 22.3763 164.542 23.9315 164.538 25.6771C164.534 27.4229 164.16 28.9764 163.415 30.3379C162.695 31.6994 161.689 32.7731 160.395 33.5595C159.126 34.3458 157.666 34.7371 156.016 34.7335ZM155.024 29.7812C155.812 29.7829 156.495 29.6051 157.069 29.2477C157.668 28.8903 158.135 28.401 158.471 27.7801C158.808 27.1591 158.977 26.454 158.978 25.6648C158.98 24.8518 158.814 24.1341 158.481 23.5116C158.147 22.8891 157.682 22.4098 157.085 22.0737C156.512 21.7136 155.843 21.5329 155.077 21.5312C154.313 21.5295 153.63 21.7072 153.032 22.0647C152.457 22.3982 152.002 22.8754 151.666 23.4965C151.33 24.1175 151.161 24.8345 151.159 25.6475C151.157 26.4367 151.311 27.1425 151.62 27.7649C151.954 28.3873 152.419 28.8787 153.016 29.2387C153.613 29.5987 154.282 29.7796 155.024 29.7812Z" fill="#007DFC"/>
<path d="M169.89 34.4414C170.894 34.7067 171.909 34.8404 172.937 34.8427C175.114 34.8475 176.836 34.3492 178.106 33.3476C179.399 32.3461 180.048 30.9965 180.052 29.2986C180.054 28.1986 179.854 27.3133 179.448 26.6429C179.043 25.9485 178.519 25.3973 177.874 24.9893C177.229 24.5814 176.547 24.257 175.831 24.0163C175.114 23.7756 174.433 23.5708 173.788 23.402C173.143 23.2331 172.617 23.0407 172.211 22.8245C171.805 22.6084 171.602 22.321 171.603 21.9623C171.604 21.6275 171.76 21.3767 172.07 21.21C172.382 21.0194 172.848 20.9249 173.47 20.9263C174.116 20.9277 174.773 21.0606 175.442 21.3252C176.135 21.5897 176.756 22.0455 177.304 22.6924L180.432 19.5427C179.646 18.5366 178.619 17.781 177.352 17.2761C176.111 16.7473 174.748 16.4812 173.265 16.4779C171.855 16.4747 170.622 16.7111 169.569 17.187C168.515 17.663 167.701 18.3189 167.125 19.1545C166.55 19.9663 166.261 20.9342 166.258 22.0581C166.256 23.1103 166.457 23.9836 166.862 24.678C167.267 25.3484 167.793 25.8757 168.436 26.2597C169.081 26.6438 169.763 26.9443 170.479 27.161C171.196 27.3778 171.878 27.5826 172.523 27.7754C173.167 27.9442 173.694 28.1487 174.1 28.3887C174.53 28.6049 174.744 28.9282 174.743 29.3585C174.743 29.6933 174.562 29.9559 174.203 30.1465C173.868 30.337 173.378 30.4317 172.732 30.4302C171.799 30.4282 170.939 30.2588 170.151 29.9223C169.362 29.5619 168.681 29.0701 168.109 28.4471L164.981 31.5968C165.578 32.2437 166.294 32.8193 167.13 33.3233C167.99 33.8034 168.91 34.1761 169.89 34.4414Z" fill="#007DFC"/>
<path d="M190.048 34.8447C188.446 34.8412 187.024 34.5152 185.782 33.8668C184.563 33.1945 183.609 32.2837 182.918 31.1343C182.227 29.9611 181.883 28.6212 181.887 27.1146L181.909 16.9993L187.397 17.0114L187.375 27.055C187.374 27.6528 187.468 28.1672 187.659 28.598C187.873 29.029 188.183 29.3645 188.589 29.6045C188.995 29.8445 189.485 29.9652 190.058 29.9664C190.872 29.9682 191.518 29.7186 191.998 29.2174C192.477 28.6924 192.717 27.9756 192.719 27.0669L192.742 17.0233L198.23 17.0354L198.207 27.1149C198.204 28.6454 197.855 29.9957 197.158 31.1659C196.462 32.3122 195.504 33.2188 194.282 33.8857C193.062 34.5286 191.65 34.8483 190.048 34.8447Z" fill="#007DFC"/>
<path d="M206.446 17.0537L200.958 17.0415L200.919 34.4744L206.408 34.4865L206.43 24.2994C206.431 23.7016 206.552 23.1997 206.792 22.7937C207.056 22.3877 207.404 22.0776 207.835 21.8634C208.266 21.6251 208.756 21.5066 209.306 21.5079C210.095 21.5096 210.752 21.7622 211.277 22.2655C211.827 22.745 212.1 23.4272 212.098 24.3119L212.075 34.4991L217.564 34.5112L217.586 24.3241C217.587 23.7263 217.708 23.2244 217.948 22.8184C218.212 22.4125 218.559 22.1023 218.991 21.8881C219.421 21.6498 219.912 21.5314 220.462 21.5326C221.251 21.5343 221.908 21.7869 222.433 22.2903C222.982 22.7697 223.255 23.4519 223.253 24.3367L223.23 34.5238L228.72 34.5359L228.744 23.739C228.747 22.2804 228.438 21.0361 227.819 20.0065C227.223 18.9529 226.4 18.15 225.349 17.5978C224.322 17.0215 223.139 16.7319 221.799 16.7289C220.436 16.7259 219.204 17.0221 218.103 17.6176C217.388 17.9968 216.762 18.487 216.226 19.088C215.728 18.457 215.123 17.9402 214.408 17.5376C213.454 16.9855 212.366 16.708 211.147 16.7053C209.855 16.7024 208.695 16.975 207.666 17.5226C207.217 17.7505 206.81 18.0236 206.443 18.3421L206.446 17.0537Z" fill="#007DFC"/>
</g>
<defs>
<clipPath id="clip0_1_2118">
<rect width="228.483" height="45.2441" fill="white" transform="translate(0.813446 0.250977) rotate(0.12691)"/>
</clipPath>
</defs>
</svg>
