<svg width="97" height="274" viewBox="0 0 97 274" fill="none" xmlns="http://www.w3.org/2000/svg">
<path d="M5.14358 267.757L21.5854 273.277L18.145 256.278L5.14358 267.757ZM0.765145 2.83841C1.45667 3.34935 2.14365 3.86021 2.8261 4.37099L4.62612 1.96597C3.9387 1.45148 3.24676 0.936925 2.55028 0.42233L0.765145 2.83841ZM6.8666 7.43454C8.19544 8.45534 9.50633 9.47574 10.7994 10.4957L12.6598 8.13703C11.3565 7.10908 10.0355 6.08081 8.69664 5.05228L6.8666 7.43454ZM14.6257 13.5541C15.9307 14.6113 17.2169 15.6681 18.4842 16.7242L20.4073 14.4164C19.1292 13.3513 17.8324 12.2858 16.5167 11.2199L14.6257 13.5541ZM22.3465 19.9903C23.6141 21.0783 24.862 22.1655 26.0903 23.252L28.0806 21.0019C26.8409 19.9054 25.5818 18.8084 24.303 17.7108L22.3465 19.9903ZM29.7171 26.5089C30.9757 27.6567 32.2127 28.8036 33.4284 29.9494L35.4888 27.7633C34.261 26.6061 33.0119 25.4481 31.7413 24.2893L29.7171 26.5089ZM37.051 33.4219C38.2368 34.5783 39.4011 35.7335 40.544 36.8874L42.6783 34.7734C41.523 33.607 40.3464 32.4395 39.1482 31.2712L37.051 33.4219ZM43.9931 40.4332C45.1685 41.664 46.3199 42.8932 47.4476 44.1209L49.6599 42.0887C48.5189 40.8466 47.3543 39.6031 46.1656 38.3585L43.9931 40.4332ZM50.7596 47.7987C51.8496 49.0336 52.9157 50.2667 53.9583 51.498L56.2508 49.5567C55.1948 48.3096 54.1152 47.0609 53.0119 45.8108L50.7596 47.7987ZM57.1899 55.4005C58.241 56.6991 59.2663 57.9955 60.266 59.2896L62.6432 57.4531C61.6295 56.1408 60.5901 54.8266 59.5249 53.5105L57.1899 55.4005ZM63.2067 63.1886C64.2173 64.5618 65.1994 65.9322 66.1535 67.2997L68.6171 65.5807C67.6484 64.1923 66.6516 62.8014 65.6261 61.4081L63.2067 63.1886ZM68.9322 71.3929C69.8445 72.7751 70.7285 74.1542 71.5845 75.5298L74.135 73.9427C73.2647 72.544 72.3663 71.1425 71.4394 69.7381L68.9322 71.3929ZM74.1798 79.8355C75.0148 81.267 75.8199 82.6946 76.5955 84.1181L79.2334 82.6808C78.4436 81.2314 77.6242 79.7783 76.7747 78.3219L74.1798 79.8355ZM78.9057 88.5162C79.663 90.0136 80.388 91.5062 81.0816 92.994L83.8043 91.7248C83.0971 90.2077 82.358 88.6862 81.5864 87.1605L78.9057 88.5162ZM83.0713 97.4497C83.7361 99.0066 84.3667 100.558 84.9638 102.103L87.7659 101.02C87.1561 99.4422 86.5124 97.8587 85.834 96.27L83.0713 97.4497ZM86.6557 106.721C87.2027 108.301 87.7151 109.874 88.1938 111.44L91.0667 110.562C90.5772 108.96 90.0533 107.352 89.4943 105.738L86.6557 106.721ZM89.5509 116.201C89.9748 117.803 90.3636 119.397 90.7184 120.984L93.65 120.328C93.2868 118.704 92.8887 117.071 92.455 115.432L89.5509 116.201ZM91.7055 125.854C92.0006 127.477 92.2604 129.091 92.4858 130.696L95.4606 130.279C95.2296 128.633 94.9634 126.979 94.6611 125.316L91.7055 125.854ZM93.0752 135.639C93.2359 137.277 93.3612 138.905 93.4522 140.524L96.4515 140.355C96.3582 138.695 96.2297 137.025 96.0649 135.345L93.0752 135.639ZM93.6254 145.499C93.6475 147.146 93.6343 148.783 93.5871 150.408L96.5899 150.495C96.6383 148.828 96.6518 147.149 96.6292 145.458L93.6254 145.499ZM93.3361 155.369C93.2174 157.013 93.0642 158.644 92.8778 160.263L95.8621 160.607C96.0533 158.946 96.2106 157.272 96.3323 155.585L93.3361 155.369ZM92.2046 165.18C91.9462 166.808 91.6545 168.421 91.331 170.021L94.2754 170.617C94.6072 168.976 94.9064 167.321 95.1714 165.651L92.2046 165.18ZM90.2451 174.863C89.8506 176.464 89.4245 178.05 88.9681 179.62L91.8528 180.459C92.3205 178.849 92.7574 177.223 93.1619 175.582L90.2451 174.863ZM87.4869 184.354C86.9619 185.919 86.4072 187.467 85.8244 188.998L88.632 190.067C89.2289 188.499 89.7971 186.912 90.3349 185.309L87.4869 184.354ZM83.9701 193.595C83.3217 195.116 82.6459 196.618 81.9443 198.102L84.66 199.386C85.3779 197.868 86.0696 196.33 86.7334 194.774L83.9701 193.595ZM79.7417 202.538C78.9775 204.007 78.1885 205.456 77.3762 206.885L79.9876 208.37C80.8181 206.909 81.625 205.427 82.4067 203.925L79.7417 202.538ZM74.8513 211.142C73.9789 212.553 73.0843 213.943 72.1693 215.31L74.6659 216.981C75.6007 215.584 76.515 214.164 77.4066 212.721L74.8513 211.142ZM69.3484 219.368C68.3744 220.717 67.3811 222.042 66.3705 223.343L68.7427 225.186C69.7748 223.858 70.7893 222.504 71.7841 221.126L69.3484 219.368ZM63.2746 227.188C62.2064 228.468 61.122 229.722 60.0236 230.949L62.2618 232.953C63.3833 231.7 64.4905 230.42 65.5813 229.112L63.2746 227.188ZM56.6593 234.578C55.5073 235.778 54.3427 236.949 53.168 238.09L55.2611 240.245C56.4609 239.08 57.6501 237.884 58.8265 236.658L56.6593 234.578ZM49.5459 241.486C48.3167 242.598 47.0791 243.677 45.8357 244.723L47.7694 247.022C49.0405 245.953 50.3052 244.85 51.5611 243.714L49.5459 241.486ZM41.9667 247.856C40.6489 248.883 39.3276 249.872 38.0056 250.822L39.7586 253.261C41.1124 252.289 42.4648 251.276 43.813 250.226L41.9667 247.856ZM33.9558 253.61C32.5477 254.538 31.1424 255.42 29.7435 256.256L31.2843 258.835C32.7217 257.976 34.1642 257.07 35.6083 256.119L33.9558 253.61ZM25.4468 258.689C23.9746 259.476 22.5141 260.21 21.0695 260.888L22.346 263.607C23.8396 262.906 25.3469 262.149 26.8636 261.338L25.4468 258.689ZM16.5523 262.849C14.9795 263.476 13.4332 264.031 11.9192 264.514L12.8322 267.376C14.417 266.871 16.0296 266.291 17.664 265.64L16.5523 262.849Z" fill="url(#paint0_linear_21_10937)"/>
<defs>
<linearGradient id="paint0_linear_21_10937" x1="28.0776" y1="281.653" x2="-121.394" y2="160.905" gradientUnits="userSpaceOnUse">
<stop stop-color="#4563FF"/>
<stop offset="1" stop-color="#58AFFF"/>
</linearGradient>
</defs>
</svg>
