<svg width="38" height="37" viewBox="0 0 38 37" fill="none" xmlns="http://www.w3.org/2000/svg">
<path d="M35.5481 25.4305L26.6906 21.4611C26.2893 21.2892 25.8514 21.22 25.4167 21.26C24.9819 21.2999 24.5639 21.4477 24.2006 21.6899C24.1638 21.7135 24.1287 21.7399 24.0956 21.7686L19.4663 25.7061C19.4182 25.7323 19.3648 25.747 19.3101 25.7489C19.2554 25.7509 19.201 25.7401 19.1513 25.7174C16.1756 24.2811 13.0931 21.2174 11.6513 18.283C11.6273 18.234 11.6148 18.1801 11.6148 18.1255C11.6148 18.0709 11.6273 18.017 11.6513 17.968L15.6019 13.2805C15.6302 13.2458 15.6565 13.2095 15.6806 13.1718C15.9195 12.8071 16.0638 12.3887 16.1004 11.9543C16.1371 11.5199 16.065 11.0832 15.8906 10.6836L11.9494 1.84113C11.7256 1.31915 11.3385 0.883833 10.8463 0.600525C10.354 0.317217 9.78317 0.201197 9.2194 0.269878C6.76919 0.591996 4.52011 1.79526 2.89244 3.65482C1.26477 5.51437 0.369886 7.90297 0.375022 10.3743C0.375022 25.0555 12.3188 36.9993 27 36.9993C29.4712 37.004 31.8596 36.109 33.719 34.4814C35.5785 32.8538 36.7819 30.6049 37.1044 28.1549C37.1729 27.5937 37.0585 27.0255 36.7781 26.5346C36.4977 26.0437 36.0663 25.6565 35.5481 25.4305ZM27 34.7493C13.56 34.7493 2.62502 23.8143 2.62502 10.3743C2.61875 8.45037 3.31315 6.59002 4.57848 5.14077C5.84381 3.69153 7.5935 2.75254 9.50065 2.49925H9.54377C9.61933 2.50066 9.6927 2.52487 9.75426 2.5687C9.81583 2.61253 9.86271 2.67394 9.88877 2.74488L13.845 11.578C13.8676 11.6271 13.8793 11.6805 13.8793 11.7346C13.8793 11.7886 13.8676 11.842 13.845 11.8911L9.8869 16.5899C9.85737 16.6234 9.83042 16.6591 9.80627 16.6968C9.55859 17.0749 9.41275 17.5105 9.38285 17.9615C9.35296 18.4125 9.44004 18.8636 9.63565 19.2711C11.2988 22.6761 14.73 26.0811 18.1725 27.7443C18.5824 27.9388 19.0357 28.0238 19.4882 27.9909C19.9407 27.958 20.3769 27.8085 20.7544 27.5568C20.79 27.5324 20.8256 27.5061 20.8594 27.478L25.4869 23.5405C25.5326 23.5159 25.5831 23.5016 25.6348 23.4983C25.6866 23.4951 25.7385 23.5031 25.7869 23.5218L34.6463 27.4911C34.7186 27.5219 34.7795 27.5747 34.8202 27.642C34.8609 27.7093 34.8794 27.7877 34.8731 27.8661C34.6212 29.7741 33.6831 31.5251 32.2342 32.7919C30.7852 34.0586 28.9246 34.7544 27 34.7493Z" fill="url(#paint0_linear_47_1009)"/>
<defs>
<linearGradient id="paint0_linear_47_1009" x1="36.0656" y1="36.9993" x2="-3.94442" y2="29.9058" gradientUnits="userSpaceOnUse">
<stop stop-color="#4563FF"/>
<stop offset="1" stop-color="#58AFFF"/>
</linearGradient>
</defs>
</svg>
