<svg width="49" height="53" viewBox="0 0 49 53" fill="none" xmlns="http://www.w3.org/2000/svg">
<path d="M23.1297 25.186L1.02563 48.3444C1.27386 49.2241 1.71993 50.0354 2.32975 50.7162C2.93956 51.3971 3.69698 51.9295 4.5441 52.2728C5.39121 52.6161 6.3056 52.7611 7.21737 52.6969C8.12914 52.6326 9.01414 52.3607 9.80472 51.902L34.676 37.737L23.1297 25.186Z" fill="#EA4335"/>
<path d="M45.4808 21.2498L34.7257 15.0894L22.6194 25.713L34.7749 37.704L45.4482 31.6096C46.3937 31.1145 47.1856 30.3701 47.7382 29.4569C48.2908 28.5438 48.583 27.4969 48.583 26.4296C48.583 25.3623 48.2908 24.3153 47.7382 23.4022C47.1856 22.4891 46.3937 21.7447 45.4482 21.2496H45.4812L45.4808 21.2498Z" fill="#FBBC04"/>
<path d="M1.02568 4.39941C0.892072 4.89335 0.825563 5.40302 0.827943 5.9147V46.8286C0.829328 47.3401 0.895773 47.8494 1.02568 48.3441L23.8875 25.7787L1.02568 4.39941Z" fill="#4285F4"/>
<path d="M23.2944 26.3718L34.7254 15.0891L9.88718 0.858081C8.95266 0.310777 7.88978 0.0209359 6.80679 0.0180778C4.11926 0.0128546 1.75651 1.79658 1.02563 4.383L23.2944 26.3718Z" fill="#34A853"/>
</svg>
