<svg width="1138" height="293" viewBox="0 0 1138 293" fill="none" xmlns="http://www.w3.org/2000/svg">
<path d="M3.51062 25.0189C3.51062 11.6362 14.3595 0.787354 27.7422 0.787354H1113.27C1126.65 0.787354 1137.5 11.6362 1137.5 25.0189V268.143C1137.5 281.525 1126.65 292.374 1113.27 292.374H27.7422C14.3595 292.374 3.51062 281.525 3.51062 268.143V25.0189Z" fill="#007BFF"/>
<mask id="mask0_47_1027" style="mask-type:alpha" maskUnits="userSpaceOnUse" x="0" y="0" width="1135" height="292">
<path d="M0.5 24.6059C0.5 11.2231 11.3489 0.374268 24.7316 0.374268H1110.26C1123.64 0.374268 1134.49 11.2231 1134.49 24.6059V267.73C1134.49 281.112 1123.64 291.961 1110.26 291.961H24.7316C11.3488 291.961 0.5 281.112 0.5 267.73V24.6059Z" fill="#007BFF"/>
</mask>
<g mask="url(#mask0_47_1027)">
<g opacity="0.5">
<path d="M25.1734 -28.8508C29.9922 -10.93 19.3197 7.4904 1.3356 12.2923C-16.6485 17.0941 -35.1339 6.45913 -39.9527 -11.4617C-44.7715 -29.3825 -34.0989 -47.8028 -16.1149 -52.6047C1.8692 -57.4066 20.3546 -46.7716 25.1734 -28.8508Z" fill="white" fill-opacity="0.5"/>
<rect width="239.297" height="85.6828" rx="4.68718" transform="matrix(0.966153 -0.257969 0.259671 0.965697 33.0505 -70.9482)" fill="white" fill-opacity="0.5"/>
<rect width="316.816" height="90.723" rx="4.68718" transform="matrix(0.966153 -0.257969 0.259671 0.965697 60.097 29.6414)" fill="white" fill-opacity="0.5"/>
<path d="M99.321 52.2101L330.519 -9.52119M106.301 78.1689L282.142 31.2183" stroke="white" stroke-opacity="0.4" stroke-width="6.24957" stroke-linecap="round"/>
</g>
<g opacity="0.5">
<path d="M346.384 112.644C351.203 130.565 369.689 141.2 387.673 136.398C405.657 131.596 416.329 113.176 411.51 95.2552C406.692 77.3344 388.206 66.6994 370.222 71.5013C352.238 76.3032 341.565 94.7235 346.384 112.644Z" fill="white" fill-opacity="0.5"/>
<rect width="239.297" height="85.6828" rx="4.68718" transform="matrix(-0.966153 0.257969 0.259671 0.965697 318.44 80.1096)" fill="white" fill-opacity="0.5"/>
<rect width="316.816" height="90.723" rx="4.68718" transform="matrix(-0.966153 0.257969 0.259671 0.965697 345.488 180.701)" fill="white" fill-opacity="0.5"/>
<path d="M295.359 117.572L134.172 160.61M302.339 143.531L209.41 168.344" stroke="white" stroke-opacity="0.4" stroke-width="6.24957" stroke-linecap="round"/>
<path d="M322.844 219.787L91.6465 281.518M329.824 245.746L153.984 292.696" stroke="white" stroke-opacity="0.4" stroke-width="6.24957" stroke-linecap="round"/>
</g>
</g>
</svg>
