<svg width="31" height="25" viewBox="0 0 31 25" fill="none" xmlns="http://www.w3.org/2000/svg">
<path d="M5.33779 2.51889C6.06831 1.52747 6.87711 0.979572 7.76417 0.87521C8.65123 0.770851 9.40785 0.953482 10.034 1.4231C10.7124 1.84055 11.0776 2.4928 11.1298 3.37986C11.2342 4.26693 10.8689 5.20617 10.034 6.1976C8.83386 7.60646 8.02507 9.01533 7.60763 10.4242C7.19019 11.8331 6.98147 13.0854 6.98147 14.1812L6.66838 11.0504C8.75559 11.0504 10.4515 11.6504 11.756 12.8506C13.0605 14.0507 13.7127 15.6683 13.7127 17.7033C13.7127 19.634 13.1126 21.2255 11.9125 22.4778C10.7124 23.678 9.06868 24.278 6.98147 24.278C4.84208 24.278 3.17231 23.5736 1.97216 22.1647C0.772018 20.7037 0.171946 18.6948 0.171946 16.1379C0.171946 14.7812 0.302396 13.3985 0.563297 11.9896C0.824199 10.5286 1.31991 9.04142 2.05043 7.52819C2.83314 5.96278 3.92892 4.29302 5.33779 2.51889ZM21.9311 2.51889C22.6616 1.52747 23.4704 0.979572 24.3575 0.87521C25.2445 0.770851 26.0012 0.953482 26.6273 1.4231C27.3057 1.84055 27.6709 2.4928 27.7231 3.37986C27.8275 4.26693 27.4622 5.20617 26.6273 6.1976C25.4272 7.60646 24.6184 9.01533 24.2009 10.4242C23.7835 11.8331 23.5748 13.0854 23.5748 14.1812L23.2617 11.0504C25.3489 11.0504 27.0448 11.6504 28.3493 12.8506C29.6538 14.0507 30.306 15.6683 30.306 17.7033C30.306 19.634 29.706 21.2255 28.5058 22.4778C27.3057 23.678 25.662 24.278 23.5748 24.278C21.4354 24.278 19.7656 23.5736 18.5655 22.1647C17.3653 20.7037 16.7653 18.6948 16.7653 16.1379C16.7653 14.7812 16.8957 13.3985 17.1566 11.9896C17.4175 10.5286 17.9132 9.04142 18.6437 7.52819C19.4265 5.96278 20.5222 4.29302 21.9311 2.51889Z" fill="url(#paint0_linear_108_90)"/>
<defs>
<linearGradient id="paint0_linear_108_90" x1="32.6219" y1="72.9775" x2="-8.68749" y2="69.8266" gradientUnits="userSpaceOnUse">
<stop stop-color="#4563FF"/>
<stop offset="1" stop-color="#58AFFF"/>
</linearGradient>
</defs>
</svg>
